<?xml version="1.0" encoding="UTF-8"?>
<svg id="Layer_1" xmlns="http://www.w3.org/2000/svg" version="1.1" viewBox="0 0 1647 3055">
  <!-- Generator: Adobe Illustrator 29.8.0, SVG Export Plug-In . SVG Version: 2.1.1 Build 160)  -->
  <defs>
    <style>
      .st0 {
        fill: #57686e;
      }

      .st1 {
        fill: #a1c9d6;
      }

      .st2 {
        fill: #5e7279;
      }

      .st3 {
        fill: #5d7177;
      }

      .st4 {
        fill: #5f737a;
      }

      .st5 {
        fill: #667d85;
      }

      .st6 {
        fill: #6a818a;
      }

      .st7 {
        fill: #4d5b60;
      }

      .st8 {
        fill: #e3d5bb;
      }

      .st9 {
        fill: #667c84;
      }

      .st10 {
        fill: #e0d5bc;
      }
    </style>
  </defs>
  <path class="st1" d="M823,27h2q1.32,1.49,2.84,3.59c.56.78,1.13,1.55,1.71,2.35.6.84,1.21,1.69,1.83,2.56,1.27,1.75,2.54,3.5,3.82,5.25q.96,1.32,1.94,2.68c7.33,10.09,14.83,20.03,22.87,29.57q.66.78,1.33,1.58c11.19,13.34,23.1,25.93,35.36,38.29q1.28,1.3,2.59,2.63c5.93,5.93,12.18,11.26,18.72,16.5,1.04.88,2.07,1.76,3.1,2.64,26.03,22.36,55.05,34.6,87.15,45.73,35.17,12.19,70.4,26.21,99.75,49.62.91.72,1.82,1.43,2.75,2.17,9.78,7.85,19.31,16.08,27.25,25.83.9,1.07,1.8,2.13,2.7,3.2,7.81,9.36,14.25,19.24,20.3,29.8.37.64.74,1.28,1.12,1.94,8.71,15.11,14.6,31.49,19.88,48.06.8-.12,1.6-.23,2.42-.35q30.3-4.36,41.58-4.65c.72-.02,1.44-.04,2.18-.06,53.38-1.34,105.74,13.39,145.17,50.5,1.56,1.51,3.11,3.03,4.65,4.56l1.51,1.5c25.53,25.68,42.77,59.57,54.49,93.5.66-1.32,1.32-2.64,2-4,.01.68.03,1.37.04,2.07.35,7.34,1.59,14.06,3.33,21.18,4.32,18.03,6.26,36.22,5.62,54.75.99.33,1.98.66,3,1h-4q.03,1.27.07,2.57c.13,8.74-.65,16.8-2.07,25.43.72.06,1.43.13,2.17.2,40.22,3.72,78.75,12.29,111.83,36.8.54.39,1.08.78,1.63,1.18,52.86,38.08,74.87,97.47,85.02,159.68.11.71.23,1.41.34,2.14h1c4.04,41.88,3.42,83.9,3.37,125.92-.01,11.31,0,22.63,0,33.94,0,21.13,0,42.26,0,63.4-.01,21.39-.02,42.77-.02,64.16,0,.68,0,1.35,0,2.05,0,6.21,0,12.41,0,18.62,0,15.55,0,31.11,0,46.66,0,.71,0,1.42,0,2.16,0,35.03-.01,70.06-.03,105.09,0,12.32,0,24.63-.01,36.95,0,.77,0,1.53,0,2.32-.01,35.54-.02,71.08-.02,106.62,0,2.33,0,4.65,0,6.98,0,14.03,0,28.07,0,42.1,0,34.88,0,69.76,0,104.64,0,.79,0,1.59,0,2.41,0,51.37-.01,102.75-.03,154.12q0,1.23,0,2.48c0,24.95-.01,49.89-.02,74.84,0,27.6-.01,55.21-.02,82.81q0,1.25,0,2.52c-.02,78.07-.03,156.14-.04,234.22,0,5.06,0,10.11,0,15.17,0,52.69-.01,105.38-.02,158.07q0,1.13,0,2.29c0,3.5,0,6.99,0,10.49-.03,255-.09,509.99-.14,764.99H0q-.08-556.4-.1-768.94c0-2.98,0-5.97,0-8.95,0-.75,0-1.49,0-2.26,0-52.77,0-105.53-.01-158.3,0-5.05,0-10.1,0-15.15,0-78.08-.01-156.15-.03-234.23,0-.83,0-1.66,0-2.52,0-27.62,0-55.23-.01-82.85,0-24.95,0-49.9-.01-74.85,0-.82,0-1.64,0-2.48,0-51.35-.01-102.7-.02-154.05,0-.79,0-1.59,0-2.4,0-34.85,0-69.69,0-104.54,0-14.02,0-28.04,0-42.06,0-2.32,0-4.65,0-6.97,0-35.54,0-71.08-.01-106.62,0-.77,0-1.53,0-2.32,0-12.32,0-24.64,0-36.97,0-35-.02-70-.02-105v-2.15c0-15.51,0-31.03,0-46.54,0-6.19,0-12.38,0-18.56,0-.68,0-1.35,0-2.05,0-22.02,0-44.04-.01-66.07,0-21,0-41.99,0-62.99,0-12.3,0-24.6,0-36.91,0-8.18,0-16.37,0-24.55,0-4.63,0-9.26,0-13.89-.04-25.92.54-51.67,4.07-77.39.17-1.26.33-2.52.51-3.81,1.55-11.33,3.53-22.57,5.63-33.81.86-4.6,1.54-9.17,2.05-13.82h2q.35-1.09.7-2.19c13.13-40.92,32.3-79.18,67.3-105.81.96-.78,1.91-1.57,2.9-2.38,34.63-27.91,77.38-39.16,121.1-40.62-.31-1.1-.61-2.21-.93-3.34-8.56-34.34-1.91-74,9.95-106.67q1.08-2.98,1.43-6.2c.63-3.19,1.34-3.59,3.55-5.79q1.02-1.85,1.84-3.93.5-1.18,1.01-2.38c.36-.85.72-1.69,1.08-2.57,21.64-49.48,58.55-89.97,109.21-109.97,42.49-15.95,87.67-15.48,131.85-8.15q.3-.9.61-1.81,12.88-38.17,18.73-45.98c1.83-2.44,3.39-4.99,4.97-7.6,7.42-12.2,15.83-23.26,25.69-33.62.52-.55,1.04-1.11,1.58-1.68,13.2-13.94,27.95-25.46,44.42-35.32.59-.35,1.18-.71,1.79-1.08,28.57-17,59.79-27.9,91.02-38.86,27.83-9.78,51.69-22.87,74.19-42.06,1.15-.97,2.31-1.94,3.46-2.91,6.09-5.14,11.96-10.36,17.52-16.08,1.97-1.97,4.01-3.78,6.14-5.58,3.37-2.89,6.23-6.02,9.09-9.4,1.85-2.11,3.78-4.07,5.78-6.04,3.88-3.84,7.46-7.85,11-12,.8-.92,1.6-1.85,2.43-2.8,11-12.75,20.97-26.29,30.91-39.87q6.47-8.84,8.67-11.33Z"/>
  <path class="st8" d="M823,27h2q1.32,1.49,2.84,3.59c.56.78,1.13,1.55,1.71,2.35.6.84,1.21,1.69,1.83,2.56,1.27,1.75,2.54,3.5,3.82,5.25q.96,1.32,1.94,2.68c7.33,10.09,14.83,20.03,22.87,29.57q.66.78,1.33,1.58c11.19,13.34,23.1,25.93,35.36,38.29q1.28,1.3,2.59,2.63c5.93,5.93,12.18,11.26,18.72,16.5,1.04.88,2.07,1.76,3.1,2.64,26.03,22.36,55.05,34.6,87.15,45.73,35.17,12.19,70.4,26.21,99.75,49.62.91.72,1.82,1.43,2.75,2.17,9.78,7.85,19.31,16.08,27.25,25.83.9,1.07,1.8,2.13,2.7,3.2,7.81,9.36,14.25,19.24,20.3,29.8.37.64.74,1.28,1.12,1.94,8.71,15.11,14.6,31.49,19.88,48.06.8-.12,1.6-.23,2.42-.35q30.3-4.36,41.58-4.65c.72-.02,1.44-.04,2.18-.06,53.38-1.34,105.74,13.39,145.17,50.5,1.56,1.51,3.11,3.03,4.65,4.56l1.51,1.5c25.53,25.68,42.77,59.57,54.49,93.5.66-1.32,1.32-2.64,2-4,.01.68.03,1.37.04,2.07.35,7.34,1.59,14.06,3.33,21.18,4.32,18.03,6.26,36.22,5.62,54.75.99.33,1.98.66,3,1h-4q.03,1.27.07,2.57c.13,8.74-.65,16.8-2.07,25.43.72.06,1.43.13,2.17.2,40.22,3.72,78.75,12.29,111.83,36.8.54.39,1.08.78,1.63,1.18,52.86,38.08,74.87,97.47,85.02,159.68.11.71.23,1.41.34,2.14h1c4.04,41.88,3.42,83.9,3.37,125.92-.01,11.31,0,22.63,0,33.94,0,21.13,0,42.26,0,63.4-.01,21.39-.02,42.77-.02,64.16,0,.68,0,1.35,0,2.05,0,6.21,0,12.41,0,18.62,0,15.55,0,31.11,0,46.66,0,.71,0,1.42,0,2.16,0,35.03-.01,70.06-.03,105.09,0,12.32,0,24.63-.01,36.95,0,.77,0,1.53,0,2.32-.01,35.54-.02,71.08-.02,106.62,0,2.33,0,4.65,0,6.98,0,14.03,0,28.07,0,42.1,0,34.88,0,69.76,0,104.64,0,.79,0,1.59,0,2.41,0,51.37-.01,102.75-.03,154.12q0,1.23,0,2.48c0,24.95-.01,49.89-.02,74.84,0,27.6-.01,55.21-.02,82.81q0,1.25,0,2.52c-.02,78.07-.03,156.14-.04,234.22,0,5.06,0,10.11,0,15.17,0,52.69-.01,105.38-.02,158.07q0,1.13,0,2.29c0,3.5,0,6.99,0,10.49-.03,255-.09,509.99-.14,764.99H0q-.08-556.4-.1-768.94c0-2.98,0-5.97,0-8.95,0-.75,0-1.49,0-2.26,0-52.77,0-105.53-.01-158.3,0-5.05,0-10.1,0-15.15,0-78.08-.01-156.15-.03-234.23,0-.83,0-1.66,0-2.52,0-27.62,0-55.23-.01-82.85,0-24.95,0-49.9-.01-74.85,0-.82,0-1.64,0-2.48,0-51.35-.01-102.7-.02-154.05,0-.79,0-1.59,0-2.4,0-34.85,0-69.69,0-104.54,0-14.02,0-28.04,0-42.06,0-2.32,0-4.65,0-6.97,0-35.54,0-71.08-.01-106.62,0-.77,0-1.53,0-2.32,0-12.32,0-24.64,0-36.97,0-35-.02-70-.02-105v-2.15c0-15.51,0-31.03,0-46.54,0-6.19,0-12.38,0-18.56,0-.68,0-1.35,0-2.05,0-22.02,0-44.04-.01-66.07,0-21,0-41.99,0-62.99,0-12.3,0-24.6,0-36.91,0-8.18,0-16.37,0-24.55,0-4.63,0-9.26,0-13.89-.04-25.92.54-51.67,4.07-77.39.17-1.26.33-2.52.51-3.81,1.55-11.33,3.53-22.57,5.63-33.81.86-4.6,1.54-9.17,2.05-13.82h2q.35-1.09.7-2.19c13.13-40.92,32.3-79.18,67.3-105.81.96-.78,1.91-1.57,2.9-2.38,34.63-27.91,77.38-39.16,121.1-40.62-.31-1.1-.61-2.21-.93-3.34-8.56-34.34-1.91-74,9.95-106.67q1.08-2.98,1.43-6.2c.63-3.19,1.34-3.59,3.55-5.79q1.02-1.85,1.84-3.93.5-1.18,1.01-2.38c.36-.85.72-1.69,1.08-2.57,21.64-49.48,58.55-89.97,109.21-109.97,42.49-15.95,87.67-15.48,131.85-8.15q.3-.9.61-1.81,12.88-38.17,18.73-45.98c1.83-2.44,3.39-4.99,4.97-7.6,7.42-12.2,15.83-23.26,25.69-33.62.52-.55,1.04-1.11,1.58-1.68,13.2-13.94,27.95-25.46,44.42-35.32.59-.35,1.18-.71,1.79-1.08,28.57-17,59.79-27.9,91.02-38.86,27.83-9.78,51.69-22.87,74.19-42.06,1.15-.97,2.31-1.94,3.46-2.91,6.09-5.14,11.96-10.36,17.52-16.08,1.97-1.97,4.01-3.78,6.14-5.58,3.37-2.89,6.23-6.02,9.09-9.4,1.85-2.11,3.78-4.07,5.78-6.04,3.88-3.84,7.46-7.85,11-12,.8-.92,1.6-1.85,2.43-2.8,11-12.75,20.97-26.29,30.91-39.87q6.47-8.84,8.67-11.33ZM823,74c-.64.84-1.29,1.67-1.95,2.54-9.91,12.8-20.5,24.97-31.53,36.82-1.7,1.83-3.39,3.68-5.09,5.52-7.34,7.96-14.87,15.56-22.94,22.78-1.43,1.29-2.84,2.6-4.26,3.92-7.09,6.59-14.53,12.59-22.24,18.43q-1.01.77-2.04,1.56c-25.44,19.32-52.79,30.32-82.74,40.71-33,11.46-65.19,24.54-93.22,45.73q-1.34,1.01-2.71,2.03c-14.06,10.99-26.52,24.04-36.29,38.97-.39.58-.77,1.17-1.17,1.77-14.69,22.54-29.83,53.78-29.83,81.23-.97-.31-1.94-.63-2.95-.95-11.86-3.72-23.78-6.18-36.05-8.05-.78-.12-1.55-.24-2.35-.36-47.31-6.94-98.01-.46-137.47,27.93-41.54,31.38-68.64,83.02-76.38,134.07-2.5,19.89-2.14,41.32,2.26,60.87.21.94.42,1.87.64,2.84,2.49,10.38,6.53,20.13,11.3,29.66-1-.21-2.01-.42-3.04-.64-11.14-2.23-21.86-2.84-33.21-2.73-.85,0-1.71,0-2.59.01-46.89.3-89.31,16.65-122.77,49.93-33.55,34.6-47.91,84.64-52.89,131.31-.12,1.03-.23,2.06-.36,3.12-2.77,25.7-3.44,51.28-3.39,77.1,0,4.65,0,9.29,0,13.94,0,8.14,0,16.29,0,24.43.01,12.19,0,24.39,0,36.58,0,20.79,0,41.57,0,62.36,0,21.05.01,42.1.01,63.15,0,.67,0,1.33,0,2.02,0,6.1,0,12.2,0,18.29,0,15.29,0,30.57,0,45.86v2.12c0,34.47,0,68.95.02,103.42,0,12.13,0,24.25,0,36.38,0,.75,0,1.51,0,2.28,0,34.96.01,69.92.01,104.89,0,2.29,0,4.58,0,6.86,0,13.8,0,27.6,0,41.39,0,34.3,0,68.6,0,102.89,0,.78,0,1.56,0,2.37,0,50.54,0,101.08.02,151.62,0,.81,0,1.61,0,2.44,0,24.55,0,49.1.01,73.65,0,27.17,0,54.33.01,81.5,0,.82,0,1.63,0,2.48.01,76.8.02,153.61.03,230.41,0,4.97,0,9.94,0,14.92,0,51.82,0,103.64.01,155.45,0,.74,0,1.49,0,2.25,0,3.44,0,6.88,0,10.32.02,250.88.06,501.75.1,752.63h1591q.09-377.49.14-754.97c0-2.93,0-5.86,0-8.79q0-1.1,0-2.22c0-51.83.01-103.66.02-155.48,0-4.96,0-9.92,0-14.88,0-76.66.02-153.33.04-229.99,0-.82,0-1.63,0-2.47,0-27.1.01-54.21.02-81.31,0-24.49.01-48.98.02-73.47,0-.8,0-1.61,0-2.44.01-50.42.02-100.85.03-151.27q0-1.17,0-2.36c0-34.23,0-68.47,0-102.7,0-13.77,0-27.55,0-41.32,0-2.28,0-4.57,0-6.85,0-34.9,0-69.79.02-104.69,0-.75,0-1.5,0-2.28,0-12.09,0-24.17.01-36.26.01-34.35.02-68.71.02-103.06v-2.12c0-15.25,0-30.5,0-45.75,0-6.08,0-12.17,0-18.25,0-.66,0-1.33,0-2.01,0-21.61,0-43.21.02-64.82.01-20.63.01-41.25,0-61.88,0-11.02,0-22.04,0-33.05q1.07-73.47-7.37-146.28c-.16-.82-.32-1.65-.49-2.49-.9-4.48-1.89-8.92-2.98-13.35-.36-1.47-.72-2.94-1.06-4.42-6.32-26.75-17.11-53.19-34.47-74.74-.46-.58-.93-1.16-1.41-1.76-22.3-27.63-51.66-45.7-85.78-55.05-1.06-.29-2.11-.58-3.2-.88-13.46-3.53-26.5-4.64-40.34-4.57-2.5.01-5.01,0-7.51-.01-11.04,0-21.82.83-32.76,2.27.42-1.03.84-2.06,1.27-3.11,18.09-44.47,17.03-92.37-1.17-136.76-3.34-7.9-7.06-15.56-11.1-23.13-.35-.65-.69-1.31-1.05-1.98-8.57-16.07-18.72-30.54-30.95-44.02-.64-.72-1.28-1.45-1.94-2.19-20.94-22.39-50.69-35.19-80.06-41.81-.78-.18-1.57-.36-2.38-.54-12.79-2.76-25.73-2.74-38.75-2.77-.84,0-1.68,0-2.55-.01-17.3-.04-34.06,1.45-50.95,5.26q-1.76.38-3.56.76c-6.43,1.41-12.61,3.08-18.82,5.3-.12-1.29-.24-2.57-.37-3.89-3.22-28.68-15.42-59-32.63-82.11-.75-1.04-1.5-2.09-2.27-3.16-33.42-45.33-84.77-65.3-136.14-83.25-36.16-12.65-67.7-29.81-95.9-56.1-2.03-1.87-4.07-3.66-6.17-5.44-5.68-4.96-10.96-10.33-16.28-15.67-1.8-1.81-3.61-3.61-5.42-5.42-5.82-5.82-11.52-11.66-16.82-17.96-.97-1.12-1.95-2.24-2.92-3.35-5.73-6.62-11.29-13.33-16.6-20.29q-2.32-3.15-5.48-5.35Z"/>
  <path class="st1" d="M823,74c3.8,3.71,7.31,7.58,10.75,11.62.53.62,1.06,1.24,1.6,1.87,3.05,3.58,6.03,7.2,8.96,10.88,9.37,11.49,19.93,21.96,30.36,32.48,1.03,1.04,2.06,2.08,3.09,3.13,6,6.07,12.14,11.79,18.84,17.09,2.24,1.81,4.35,3.7,6.45,5.68,12.33,11.03,26.6,20.08,40.94,28.25q.94.54,1.91,1.09c14.34,8.01,30.08,12.99,45.49,18.48q35.62,12.7,50.4,19.43c2.17.99,4.35,1.95,6.53,2.91,20.67,9.22,39.26,21.51,55.66,37.09.53.49,1.05.99,1.6,1.5,29.37,27.71,47.45,65.92,54.4,105.5.04,1.67.05,3.33,0,5,1-.31,1.99-.63,3.02-.95,7.88-2.44,15.78-4.58,23.86-6.23q1.09-.23,2.2-.47c15.32-3.02,30.9-3.76,46.48-3.72q1.3,0,2.62,0c46.25.13,87.55,14.9,120.82,47.37,10.83,10.95,19.21,23.78,27,37,.35.58.7,1.16,1.06,1.75,11.67,19.41,20.06,40.26,25.13,62.31.16.67.31,1.34.47,2.03,2.58,11.9,3.68,23.73,3.6,35.88-.01,2.02,0,4.04.01,6.06.02,21.78-4.47,44.35-14.27,63.96,1.07-.14,2.15-.28,3.25-.43,10.6-1.32,21.04-1.92,31.72-1.89,2.46,0,4.91-.02,7.37-.05,15.47-.06,30.52,1.84,45.28,6.61.96.3,1.92.61,2.92.92,19.58,6.31,37.42,14.78,53.46,27.83.56.45,1.12.9,1.69,1.37,35.19,28.66,53.56,68.79,62.67,112.62.35,1.64.7,3.28,1.08,4.91,1.35,5.81,2.29,11.61,3.07,17.52.13.96.26,1.93.39,2.92,5.7,43.76,4.52,88.09,4.46,132.12-.01,11.11,0,22.22,0,33.33,0,20.75,0,41.5,0,62.25-.01,21-.02,42-.02,63,0,.66,0,1.33,0,2.01,0,6.09,0,12.19,0,18.28,0,15.27,0,30.55,0,45.82,0,.7,0,1.4,0,2.12,0,34.4-.01,68.8-.03,103.2,0,12.09,0,24.19-.01,36.28,0,.75,0,1.5,0,2.28-.01,34.9-.02,69.8-.02,104.7,0,2.29,0,4.57,0,6.86,0,13.78,0,27.56,0,41.34,0,34.25,0,68.5,0,102.76,0,.78,0,1.56,0,2.36,0,50.45-.01,100.9-.03,151.35q0,1.21,0,2.44c0,24.5-.01,48.99-.02,73.49,0,27.11-.01,54.21-.02,81.32q0,1.22,0,2.47c-.02,76.67-.03,153.33-.04,230,0,4.96,0,9.93,0,14.89,0,51.74-.01,103.48-.02,155.22q0,1.11,0,2.25c0,3.43,0,6.87,0,10.3-.03,250.4-.09,500.81-.14,751.21H28q-.12-546.83-.14-755.81c0-2.93,0-5.87,0-8.8,0-.73,0-1.47,0-2.23,0-51.88-.01-103.76-.02-155.64v-14.89c-.01-76.75-.02-153.5-.04-230.25,0-.82,0-1.63,0-2.47,0-27.14-.01-54.27-.02-81.41,0-24.52-.01-49.04-.02-73.56q0-1.21,0-2.44c-.01-50.48-.02-100.96-.03-151.43,0-.78,0-1.56,0-2.36,0-34.27,0-68.54,0-102.8,0-13.79,0-27.58,0-41.36,0-2.29,0-4.57,0-6.86,0-34.94,0-69.87-.02-104.81,0-.75,0-1.5,0-2.28,0-12.1,0-24.2-.01-36.31-.01-34.39-.02-68.79-.02-103.18v-2.12c0-15.26,0-30.53,0-45.79,0-6.09,0-12.18,0-18.27,0-.66,0-1.33,0-2.01,0-21.63,0-43.27-.02-64.9-.01-20.65-.01-41.29,0-61.94,0-12.08,0-24.17-.01-36.25,0-8.05,0-16.11,0-24.16,0-4.55,0-9.09,0-13.64-.05-18.9.43-37.67,1.79-56.53.06-.88.13-1.75.19-2.65,3.84-51.95,15.08-105.65,50.4-145.83.79-.92,1.58-1.85,2.39-2.8,5.69-6.48,11.73-12,18.61-17.2.53-.4,1.05-.8,1.59-1.21,19.84-15.01,42.09-25.38,66.41-30.79.73-.16,1.45-.33,2.2-.5,12.73-2.71,25.59-2.81,38.55-2.88.82,0,1.65-.02,2.5-.02,11.57-.09,22.43,1.01,33.75,3.4-.51-1.12-1.01-2.25-1.53-3.41-3.33-7.42-6.5-14.68-8.47-22.59-.16-.63-.32-1.25-.49-1.89-.56-2.18-1.1-4.36-1.64-6.54-.17-.68-.34-1.36-.52-2.06-11.45-48.21,5.4-100.52,30.39-141.62,14.61-23.2,32.52-42.92,56.25-56.88.58-.35,1.17-.69,1.77-1.05,46.66-27.27,105.27-25.63,156.23-12.95,3.03.92,6.02,1.92,9,3,.12-1.28.24-2.56.37-3.88,3.45-30.77,17.47-61.37,35.63-86.12.71-.98,1.43-1.95,2.16-2.96,32.39-41.63,81.18-61.49,129.5-78.26,9.14-3.18,18.22-6.44,27.2-10.03.8-.32,1.6-.64,2.43-.97,18.86-7.64,35.74-18.19,51.71-30.79.61-.48,1.22-.96,1.85-1.46,8.87-7.01,17.36-14.31,25.57-22.07,1.58-1.47,3.17-2.92,4.78-4.36,7.83-7.05,15.05-14.53,22.15-22.31,1.54-1.69,3.1-3.36,4.66-5.03,9.99-10.73,18.97-22.22,27.99-33.77ZM820.49,118.4c-.53.65-1.07,1.3-1.62,1.98-.62.74-1.24,1.48-1.88,2.24-.66.79-1.31,1.57-1.99,2.38-5.41,6.16-10.98,12.18-16.56,18.19-.61.67-1.23,1.33-1.86,2.02-3.75,4.02-7.65,7.7-11.82,11.27-1.97,1.71-3.78,3.51-5.57,5.4-3.84,3.89-7.97,7.31-12.23,10.73-2.5,2.03-4.92,4.11-7.34,6.24-11.77,10.24-24.72,19.09-38.17,26.97-.67.4-1.34.79-2.03,1.2-14.12,8.05-28.97,14.22-44.31,19.51-4.6,1.59-9.18,3.21-13.77,4.83-.9.32-1.8.63-2.72.96-55.82,19.66-105.66,44.3-132.41,100.1-6.85,14.87-10.57,30.36-13.99,46.31-2.13,9.39-5.26,15.37-13.14,21.06-5.96,3.54-11.26,3.96-18.06,3.23-2.89-.82-5.66-1.83-8.48-2.86-20.2-6.57-42.47-8.41-63.58-8.46-1.26,0-2.52-.01-3.82-.02-12.24.09-24.26,1.52-36.12,4.58-.84.22-1.69.43-2.56.66-30.94,8.21-57.97,27.13-75.44,54.09-.39.59-.78,1.18-1.18,1.79-24.03,36.84-39.32,80.45-31.7,124.89,2.7,11.78,6.64,23.37,11.89,34.25,2.76,5.82,3.08,12.4,1.23,18.58-.97,2.25-2.04,4.36-3.25,6.49q-.93,1.64-1.88,3.31c-3.74,4.73-8.29,7.34-14.12,8.69-6.53.38-12.6-.31-19-1.5-37.58-6.18-79.07,1.47-110.34,23.84-38.49,28.44-56.27,70.59-63.5,116.89-2,13.53-3.24,27.12-4.16,40.76q-.13,1.74-.26,3.51c-1.08,16.24-.88,32.51-.87,48.77,0,4.57,0,9.15,0,13.72,0,8.04,0,16.07,0,24.11,0,12.03,0,24.06,0,36.09,0,20.5,0,41,0,61.51,0,20.77,0,41.55,0,62.32,0,1.31,0,2.63,0,3.98,0,5.35,0,10.69,0,16.04,0,15.07,0,30.13,0,45.2v2.09c0,34.01,0,68.03,0,102.04,0,11.97,0,23.94,0,35.91,0,.74,0,1.49,0,2.25,0,34.49,0,68.97,0,103.46,0,2.26,0,4.51,0,6.77,0,13.6,0,27.21,0,40.82,0,33.82,0,67.64,0,101.46,0,.77,0,1.54,0,2.33,0,49.85,0,99.71,0,149.56,0,.8,0,1.59,0,2.41,0,24.22,0,48.45,0,72.67,0,26.81,0,53.61,0,80.42,0,.81,0,1.61,0,2.44,0,75.76.01,151.52.01,227.28,0,4.9,0,9.81,0,14.71,0,51.1,0,102.21,0,153.31,0,.73,0,1.47,0,2.22,0,3.39,0,6.78,0,10.17,0,247.48.03,494.96.05,742.44h1539q.09-373.66.14-747.32c0-2.9,0-5.8,0-8.7q0-1.09,0-2.2c0-51.29.01-102.59.02-153.88,0-4.91,0-9.82,0-14.73,0-75.89.02-151.77.04-227.66,0-.81,0-1.61,0-2.45,0-26.83.01-53.67.02-80.5,0-24.24.01-48.49.02-72.73,0-.8,0-1.59,0-2.41.01-49.91.02-99.82.03-149.73q0-1.16,0-2.34c0-33.88,0-67.76,0-101.64,0-13.63,0-27.26,0-40.89,0-2.26,0-4.52,0-6.78,0-34.54,0-69.09.02-103.63,0-.74,0-1.49,0-2.25,0-11.97,0-23.94.01-35.91.01-34.01.02-68.02.02-102.03v-2.09c0-15.09,0-30.18,0-45.26,0-6.02,0-12.04,0-18.06,0-1.31,0-2.62,0-3.98,0-20.73,0-41.46.02-62.2.01-20.41.01-40.82,0-61.24,0-11.95,0-23.9.01-35.85,0-7.96,0-15.92,0-23.88,0-4.5,0-8.99,0-13.49.12-47.17-1.35-98.29-20.38-142.17-.29-.68-.58-1.36-.88-2.06-6.95-16.19-16.37-29.87-28.12-42.94-.59-.66-1.18-1.33-1.79-2.01-23.46-24.85-60.02-38.68-93.62-40.14q-21.54-.84-42.59,3.15c-8.41.63-15-.09-21.69-5.56-6.56-6.28-8.69-12-9-21.06,0-6.75,1.74-11.73,4.83-17.65,2.46-4.71,4.2-9.37,5.67-14.48q.29-.99.59-2c.58-2.07,1.1-4.15,1.6-6.25.19-.78.38-1.57.57-2.38,1.62-7.68,1.77-15.29,1.75-23.1,0-2.19.02-4.38.05-6.57.04-10-1.21-19.19-3.36-28.96-.27-1.31-.54-2.62-.82-3.93-8.2-38.47-32.34-79.68-65.18-102.07-38.65-24.48-83.94-27.46-128-19-1.51.27-3.01.53-4.52.79-5.79,1.06-11.2,2.39-16.73,4.39-7.77,2.69-14.46,3.18-22.06-.25-7.61-4.3-11.12-9.66-13.69-17.94-1.01-4.06-1.87-8.16-2.75-12.25-3.94-17.61-9.49-33.95-18.25-49.75-.36-.65-.72-1.3-1.09-1.96-4.88-8.71-10.29-16.53-16.91-24.04q-1.19-1.39-2.4-2.8c-5.68-6.48-11.73-11.99-18.6-17.2-1.05-.8-2.1-1.6-3.18-2.43-25.3-18.94-55.29-29.72-84.86-40.03-39.19-13.67-73.76-30.51-105.22-58.06-1.29-1.09-2.61-2.15-3.95-3.19-8.71-6.84-16.41-14.63-24.2-22.48-2.35-2.37-4.72-4.74-7.08-7.1-1.52-1.53-3.04-3.06-4.57-4.58-.69-.7-1.39-1.39-2.11-2.11q-10.62-10.72-14.36-16.25c-.49-.58-.98-1.17-1.49-1.77q-2.98-.34-4.51,1.4Z"/>
  <path class="st10" d="M825,108c1.27,1.43,2.46,2.92,3.62,4.44,10.21,12.71,21.88,24.16,33.38,35.69.49.49.98.98,1.48,1.49,5.66,5.69,11.4,11.19,17.52,16.39.98.86,1.95,1.71,2.96,2.6,30.69,26.49,64.14,43.59,102.13,56.95,19.93,7.02,39.92,14.14,58.92,23.45.67.33,1.34.66,2.04,1,13.62,6.77,26.42,15.08,37.96,25,.95.82,1.91,1.64,2.89,2.48,29.3,25.73,45.13,61.53,52.67,99.2,1.71,8.11,3.62,13.68,10.66,18.4,6.08,3.11,13.14,2.6,19.46.55,5.05-1.57,10.12-2.95,15.25-4.21.8-.21,1.59-.42,2.42-.63,15.29-3.74,31.12-4.18,46.78-4.18,2.8,0,5.6-.04,8.4-.08,36.62-.23,71.81,13.27,98.47,38.45.74.67,1.48,1.35,2.24,2.04,23,21.77,39,55.6,46.76,85.96.18.69.36,1.39.54,2.1.56,2.21,1.11,4.43,1.65,6.65q.25,1.01.51,2.04c6.61,27.98,3.34,60.65-9.57,86.34-3.37,6.78-4.52,11.91-2.45,19.27,2.35,6.22,6.37,10.62,12.33,13.6,7.06.44,13.7.05,20.59-1.49,35.56-7.54,77.86,2.38,108.21,21.62,38.14,24.97,58.55,64.24,67.77,107.92,1.82,9.14,3.13,18.36,4.31,27.61.24,1.89.49,3.79.74,5.68,3.31,27.49,3.7,55.18,3.64,82.84,0,4.59,0,9.17,0,13.76,0,8.03,0,16.07,0,24.1-.01,12.03,0,24.05,0,36.08,0,20.51,0,41.01,0,61.52,0,20.76-.01,41.52-.01,62.29q0,1.97,0,3.98c0,5.35,0,10.71,0,16.06,0,15.08,0,30.17,0,45.25v2.09c0,34,0,68.01-.02,102.01,0,11.96,0,23.92,0,35.88,0,.74,0,1.49,0,2.25,0,34.49-.01,68.98-.01,103.46,0,2.26,0,4.52,0,6.77,0,13.61,0,27.23,0,40.84,0,33.84,0,67.68,0,101.51,0,.77,0,1.54,0,2.33,0,49.85,0,99.71-.02,149.56,0,.8,0,1.59,0,2.41,0,24.21,0,48.43-.01,72.64,0,26.8,0,53.59-.01,80.39,0,.81,0,1.61,0,2.44-.01,75.76-.02,151.53-.03,227.29,0,4.91,0,9.81,0,14.72,0,51.12,0,102.24-.01,153.36,0,.73,0,1.47,0,2.22,0,3.39,0,6.78,0,10.18-.02,247.47-.06,494.94-.1,742.41H48q-.08-538.74-.1-744.59c0-2.89,0-5.78,0-8.67q0-1.09,0-2.19c0-51.11,0-102.21-.01-153.32,0-4.89,0-9.78,0-14.67,0-75.61-.01-151.22-.03-226.82,0-.8,0-1.61,0-2.44,0-26.74,0-53.47-.01-80.21,0-24.16,0-48.31-.01-72.47,0-.79,0-1.59,0-2.4,0-49.73-.01-99.46-.02-149.18q0-1.15,0-2.33c0-33.75,0-67.51,0-101.26,0-13.58,0-27.16,0-40.74,0-2.25,0-4.5,0-6.76,0-34.42,0-68.83-.01-103.25,0-.74,0-1.48,0-2.25,0-11.93,0-23.85,0-35.78,0-33.89-.02-67.77-.02-101.66v-2.09c0-15.03,0-30.06,0-45.1,0-6,0-11.99,0-17.99,0-1.31,0-2.61,0-3.96,0-20.66,0-41.31-.01-61.97,0-20.34,0-40.67,0-61.01,0-11.91,0-23.81,0-35.72,0-7.93,0-15.86,0-23.79,0-4.48,0-8.96,0-13.44-.03-17.59.21-35.12,1.16-52.68.04-.74.08-1.49.12-2.25,3.07-56.11,12.88-114.96,55.22-155.59,21.44-18.8,46.73-31.13,74.76-36.42,1.11-.22,2.22-.45,3.37-.68,18.25-3.08,37.58-2.35,55.71,1,6.51,1.14,12.23,1.98,18.29-.94,5.74-5.19,9.05-9.53,9.82-17.4.22-6.11-1.25-10.31-3.95-15.73-.74-1.59-1.48-3.18-2.21-4.78-.35-.77-.71-1.54-1.07-2.33-14.44-32.22-9.68-72.91,2.04-105.15,2.36-6.15,5.1-12.09,8-18,.41-.85.83-1.69,1.25-2.57,17.96-36.34,43.74-66.69,82.85-80.46,14.67-4.91,29.22-8.12,44.74-8.14.93,0,1.85,0,2.81-.01,1.96,0,3.91,0,5.87,0,2.94,0,5.88-.02,8.82-.04,11.06-.03,21.72.46,32.66,2.22.99.16,1.99.31,3.01.47,2.59.43,5.17.9,7.74,1.4.89.17,1.78.34,2.7.51,4.9.97,9.54,2.16,14.24,3.86,6.83,2.45,12.95,3.11,19.69.06,5.78-3.33,8.45-8.15,10.62-14.31.7-2.96,1.18-5.94,1.69-8.94,8.08-43.11,31.09-81.9,67.07-107.24,25.65-17.45,54.46-28.3,83.56-38.44,25.46-8.88,50.32-17.95,72.68-33.39.73-.5,1.46-1,2.21-1.52,8.83-6.14,17.37-12.53,25.47-19.6,2.13-1.85,4.27-3.68,6.44-5.49,8.71-7.28,16.82-15.05,24.8-23.11,2.04-2.06,4.08-4.11,6.13-6.15,1.33-1.33,2.65-2.66,3.98-4,.6-.6,1.2-1.2,1.81-1.82,4.24-4.29,8.23-8.75,12.16-13.33,1.6-1.84,3.2-3.67,4.81-5.5.75-.86,1.5-1.71,2.27-2.59q1.92-1.91,3.92-1.91ZM820.49,118.4c-.53.65-1.07,1.3-1.62,1.98-.62.74-1.24,1.48-1.88,2.24-.66.79-1.31,1.57-1.99,2.38-5.41,6.16-10.98,12.18-16.56,18.19-.61.67-1.23,1.33-1.86,2.02-3.75,4.02-7.65,7.7-11.82,11.27-1.97,1.71-3.78,3.51-5.57,5.4-3.84,3.89-7.97,7.31-12.23,10.73-2.5,2.03-4.92,4.11-7.34,6.24-11.77,10.24-24.72,19.09-38.17,26.97-.67.4-1.34.79-2.03,1.2-14.12,8.05-28.97,14.22-44.31,19.51-4.6,1.59-9.18,3.21-13.77,4.83-.9.32-1.8.63-2.72.96-55.82,19.66-105.66,44.3-132.41,100.1-6.85,14.87-10.57,30.36-13.99,46.31-2.13,9.39-5.26,15.37-13.14,21.06-5.96,3.54-11.26,3.96-18.06,3.23-2.89-.82-5.66-1.83-8.48-2.86-20.2-6.57-42.47-8.41-63.58-8.46-1.26,0-2.52-.01-3.82-.02-12.24.09-24.26,1.52-36.12,4.58-.84.22-1.69.43-2.56.66-30.94,8.21-57.97,27.13-75.44,54.09-.39.59-.78,1.18-1.18,1.79-24.03,36.84-39.32,80.45-31.7,124.89,2.7,11.78,6.64,23.37,11.89,34.25,2.76,5.82,3.08,12.4,1.23,18.58-.97,2.25-2.04,4.36-3.25,6.49q-.93,1.64-1.88,3.31c-3.74,4.73-8.29,7.34-14.12,8.69-6.53.38-12.6-.31-19-1.5-37.58-6.18-79.07,1.47-110.34,23.84-38.49,28.44-56.27,70.59-63.5,116.89-2,13.53-3.24,27.12-4.16,40.76q-.13,1.74-.26,3.51c-1.08,16.24-.88,32.51-.87,48.77,0,4.57,0,9.15,0,13.72,0,8.04,0,16.07,0,24.11,0,12.03,0,24.06,0,36.09,0,20.5,0,41,0,61.51,0,20.77,0,41.55,0,62.32,0,1.31,0,2.63,0,3.98,0,5.35,0,10.69,0,16.04,0,15.07,0,30.13,0,45.2v2.09c0,34.01,0,68.03,0,102.04,0,11.97,0,23.94,0,35.91,0,.74,0,1.49,0,2.25,0,34.49,0,68.97,0,103.46,0,2.26,0,4.51,0,6.77,0,13.6,0,27.21,0,40.82,0,33.82,0,67.64,0,101.46,0,.77,0,1.54,0,2.33,0,49.85,0,99.71,0,149.56,0,.8,0,1.59,0,2.41,0,24.22,0,48.45,0,72.67,0,26.81,0,53.61,0,80.42,0,.81,0,1.61,0,2.44,0,75.76.01,151.52.01,227.28,0,4.9,0,9.81,0,14.71,0,51.1,0,102.21,0,153.31,0,.73,0,1.47,0,2.22,0,3.39,0,6.78,0,10.17,0,247.48.03,494.96.05,742.44h1539q.09-373.66.14-747.32c0-2.9,0-5.8,0-8.7q0-1.09,0-2.2c0-51.29.01-102.59.02-153.88,0-4.91,0-9.82,0-14.73,0-75.89.02-151.77.04-227.66,0-.81,0-1.61,0-2.45,0-26.83.01-53.67.02-80.5,0-24.24.01-48.49.02-72.73,0-.8,0-1.59,0-2.41.01-49.91.02-99.82.03-149.73q0-1.16,0-2.34c0-33.88,0-67.76,0-101.64,0-13.63,0-27.26,0-40.89,0-2.26,0-4.52,0-6.78,0-34.54,0-69.09.02-103.63,0-.74,0-1.49,0-2.25,0-11.97,0-23.94.01-35.91.01-34.01.02-68.02.02-102.03v-2.09c0-15.09,0-30.18,0-45.26,0-6.02,0-12.04,0-18.06,0-1.31,0-2.62,0-3.98,0-20.73,0-41.46.02-62.2.01-20.41.01-40.82,0-61.24,0-11.95,0-23.9.01-35.85,0-7.96,0-15.92,0-23.88,0-4.5,0-8.99,0-13.49.12-47.17-1.35-98.29-20.38-142.17-.29-.68-.58-1.36-.88-2.06-6.95-16.19-16.37-29.87-28.12-42.94-.59-.66-1.18-1.33-1.79-2.01-23.46-24.85-60.02-38.68-93.62-40.14q-21.54-.84-42.59,3.15c-8.41.63-15-.09-21.69-5.56-6.56-6.28-8.69-12-9-21.06,0-6.75,1.74-11.73,4.83-17.65,2.46-4.71,4.2-9.37,5.67-14.48q.29-.99.59-2c.58-2.07,1.1-4.15,1.6-6.25.19-.78.38-1.57.57-2.38,1.62-7.68,1.77-15.29,1.75-23.1,0-2.19.02-4.38.05-6.57.04-10-1.21-19.19-3.36-28.96-.27-1.31-.54-2.62-.82-3.93-8.2-38.47-32.34-79.68-65.18-102.07-38.65-24.48-83.94-27.46-128-19-1.51.27-3.01.53-4.52.79-5.79,1.06-11.2,2.39-16.73,4.39-7.77,2.69-14.46,3.18-22.06-.25-7.61-4.3-11.12-9.66-13.69-17.94-1.01-4.06-1.87-8.16-2.75-12.25-3.94-17.61-9.49-33.95-18.25-49.75-.36-.65-.72-1.3-1.09-1.96-4.88-8.71-10.29-16.53-16.91-24.04q-1.19-1.39-2.4-2.8c-5.68-6.48-11.73-11.99-18.6-17.2-1.05-.8-2.1-1.6-3.18-2.43-25.3-18.94-55.29-29.72-84.86-40.03-39.19-13.67-73.76-30.51-105.22-58.06-1.29-1.09-2.61-2.15-3.95-3.19-8.71-6.84-16.41-14.63-24.2-22.48-2.35-2.37-4.72-4.74-7.08-7.1-1.52-1.53-3.04-3.06-4.57-4.58-.69-.7-1.39-1.39-2.11-2.11q-10.62-10.72-14.36-16.25c-.49-.58-.98-1.17-1.49-1.77q-2.98-.34-4.51,1.4Z"/>
  <path class="st4" d="M13,734l1,4-1-4Z"/>
  <path class="st0" d="M14,727l1,4-1-4Z"/>
  <path class="st2" d="M16,716l1,4-1-4Z"/>
  <path class="st2" d="M0-1.31"/>
  <path class="st2" d="M0-1.31"/>
  <path class="st2" d="M0-1.31"/>
  <path class="st2" d="M0-1.31"/>
  <path class="st2" d="M0-1.31"/>
  <path class="st2" d="M0-1.31"/>
  <path class="st2" d="M0-1.31"/>
  <path class="st2" d="M0-1.31"/>
  <path class="st5" d="M0-1.31"/>
  <path class="st5" d="M0-1.31"/>
  <path class="st5" d="M0-1.31"/>
  <path class="st5" d="M0-1.31"/>
  <path class="st5" d="M0-1.31"/>
  <path class="st5" d="M0-1.31"/>
  <path class="st6" d="M0-1.31"/>
  <path class="st4" d="M0-1.31"/>
  <path class="st4" d="M0-1.31"/>
  <path class="st4" d="M0-1.31"/>
  <path class="st4" d="M0-1.31"/>
  <path class="st4" d="M0-1.31"/>
  <path class="st4" d="M0-1.31"/>
  <path class="st4" d="M0-1.31"/>
  <path class="st4" d="M0-1.31"/>
  <path class="st4" d="M0-1.31"/>
  <path class="st4" d="M0-1.31"/>
  <path class="st4" d="M0-1.31"/>
  <path class="st4" d="M0-1.31"/>
  <path class="st4" d="M0-1.31"/>
  <path class="st4" d="M0-1.31"/>
  <path class="st4" d="M0-1.31"/>
  <path class="st4" d="M0-1.31"/>
  <path class="st4" d="M0-1.31"/>
  <path class="st4" d="M0-1.31"/>
  <path class="st4" d="M0-1.31"/>
  <path class="st4" d="M0-1.31"/>
  <path class="st4" d="M0-1.31"/>
  <path class="st4" d="M0-1.31"/>
  <path class="st4" d="M0-1.31"/>
  <path class="st4" d="M0-1.31"/>
  <path class="st4" d="M0-1.31"/>
  <path class="st4" d="M0-1.31"/>
  <path class="st4" d="M0-1.31"/>
  <path class="st4" d="M0-1.31"/>
  <path class="st4" d="M0-1.31"/>
  <path class="st4" d="M0-1.31"/>
  <path class="st4" d="M0-1.31"/>
  <path class="st9" d="M0-1.31"/>
  <path class="st9" d="M0-1.31"/>
  <path class="st9" d="M0-1.31"/>
  <path class="st9" d="M0-1.31"/>
  <path class="st9" d="M0-1.31"/>
  <path class="st9" d="M0-1.31"/>
  <path class="st9" d="M0-1.31"/>
  <path class="st9" d="M0-1.31"/>
  <path class="st9" d="M0-1.31"/>
  <path class="st9" d="M0-1.31"/>
  <path class="st9" d="M0-1.31"/>
  <path class="st9" d="M0-1.31"/>
  <path class="st9" d="M0-1.31"/>
  <path class="st9" d="M0-1.31"/>
  <path class="st9" d="M0-1.31"/>
  <path class="st9" d="M0-1.31"/>
  <path class="st9" d="M0-1.31"/>
  <path class="st9" d="M0-1.31"/>
  <path class="st9" d="M0-1.31"/>
  <path class="st9" d="M0-1.31"/>
  <path class="st3" d="M0-1.31"/>
  <path class="st3" d="M0-1.31"/>
  <path class="st3" d="M0-1.31"/>
  <path class="st3" d="M0-1.31"/>
  <path class="st3" d="M0-1.31"/>
  <path class="st3" d="M0-1.31"/>
  <path class="st3" d="M0-1.31"/>
  <path class="st3" d="M0-1.31"/>
  <path class="st3" d="M0-1.31"/>
  <path class="st3" d="M0-1.31"/>
  <path class="st3" d="M0-1.31"/>
  <path class="st3" d="M0-1.31"/>
  <path class="st3" d="M0-1.31"/>
  <path class="st3" d="M0-1.31"/>
  <path class="st3" d="M0-1.31"/>
  <path class="st3" d="M0-1.31"/>
  <path class="st3" d="M0-1.31"/>
  <path class="st3" d="M0-1.31"/>
  <path class="st3" d="M0-1.31"/>
  <path class="st3" d="M0-1.31"/>
  <path class="st3" d="M0-1.31"/>
  <path class="st3" d="M0-1.31"/>
  <path class="st3" d="M0-1.31"/>
  <path class="st3" d="M0-1.31"/>
  <path class="st3" d="M0-1.31"/>
  <path class="st3" d="M0-1.31"/>
  <path class="st3" d="M0-1.31"/>
  <path class="st7" d="M0-1.31"/>
  <path class="st7" d="M0-1.31"/>
  <path class="st7" d="M0-1.31"/>
  <path class="st7" d="M0-1.31"/>
  <path class="st7" d="M0-1.31"/>
  <path class="st7" d="M0-1.31"/>
  <path class="st7" d="M0-1.31"/>
  <path class="st7" d="M0-1.31"/>
  <path class="st7" d="M0-1.31"/>
  <path class="st7" d="M0-1.31"/>
  <path class="st7" d="M0-1.31"/>
  <path class="st7" d="M0-1.31"/>
  <path class="st7" d="M0-1.31"/>
  <path class="st7" d="M0-1.31"/>
  <path class="st7" d="M0-1.31"/>
  <path class="st7" d="M0-1.31"/>
  <path class="st7" d="M0-1.31"/>
  <path class="st7" d="M0-1.31"/>
  <path class="st7" d="M0-1.31"/>
  <path class="st7" d="M0-1.31"/>
  <path class="st7" d="M0-1.31"/>
  <path class="st7" d="M0-1.31"/>
  <path class="st7" d="M0-1.31"/>
  <path class="st7" d="M0-1.31"/>
  <path class="st7" d="M0-1.31"/>
  <path class="st7" d="M0-1.31"/>
  <path class="st7" d="M0-1.31"/>
  <path class="st7" d="M0-1.31"/>
  <path class="st7" d="M0-1.31"/>
  <path class="st7" d="M0-1.31"/>
  <path class="st7" d="M0-1.31"/>
  <path class="st7" d="M0-1.31"/>
  <path class="st7" d="M0-1.31"/>
  <path class="st7" d="M0-1.31"/>
  <path class="st7" d="M0-1.31"/>
  <path class="st7" d="M0-1.31"/>
  <path class="st7" d="M0-1.31"/>
  <path class="st7" d="M0-1.31"/>
  <path class="st7" d="M0-1.31"/>
  <path class="st7" d="M0-1.31"/>
  <path class="st7" d="M0-1.31"/>
  <path class="st7" d="M0-1.31"/>
  <path class="st7" d="M0-1.31"/>
  <path class="st7" d="M0-1.31"/>
  <path class="st7" d="M0-1.31"/>
  <path class="st7" d="M0-1.31"/>
  <path class="st7" d="M0-1.31"/>
  <path class="st7" d="M0-1.31"/>
  <path class="st7" d="M0-1.31"/>
  <path class="st7" d="M0-1.31"/>
  <path class="st7" d="M0-1.31"/>
  <path class="st7" d="M0-1.31"/>
  <path class="st7" d="M0-1.31"/>
  <path class="st7" d="M0-1.31"/>
  <path class="st7" d="M0-1.31"/>
  <path class="st7" d="M0-1.31"/>
  <path class="st7" d="M0-1.31"/>
  <path class="st7" d="M0-1.31"/>
  <path class="st7" d="M0-1.31"/>
  <path class="st7" d="M0-1.31"/>
  <path class="st7" d="M0-1.31"/>
  <path class="st7" d="M0-1.31"/>
  <path class="st7" d="M0-1.31"/>
  <path class="st7" d="M0-1.31"/>
  <path class="st7" d="M0-1.31"/>
  <path class="st7" d="M0-1.31"/>
  <path class="st7" d="M0-1.31"/>
  <path class="st7" d="M0-1.31"/>
  <path class="st7" d="M0-1.31"/>
  <path class="st7" d="M0-1.31"/>
  <path class="st7" d="M0-1.31"/>
  <path class="st7" d="M0-1.31"/>
  <path class="st7" d="M0-1.31"/>
  <path class="st7" d="M0-1.31"/>
  <path class="st7" d="M0-1.31"/>
  <path class="st7" d="M0-1.31"/>
  <path class="st7" d="M0-1.31"/>
  <path class="st7" d="M0-1.31"/>
  <path class="st7" d="M0-1.31"/>
  <path class="st7" d="M0-1.31"/>
  <path class="st7" d="M0-1.31"/>
  <path class="st7" d="M0-1.31"/>
  <path class="st7" d="M0-1.31"/>
  <path class="st7" d="M0-1.31"/>
  <path class="st7" d="M0-1.31"/>
  <path class="st7" d="M0-1.31"/>
  <path class="st7" d="M0-1.31"/>
  <path class="st7" d="M0-1.31"/>
  <path class="st7" d="M0-1.31"/>
  <path class="st7" d="M0-1.31"/>
  <path class="st7" d="M0-1.31"/>
  <path class="st7" d="M0-1.31"/>
  <path class="st7" d="M0-1.31"/>
  <path class="st7" d="M0-1.31"/>
  <path class="st7" d="M0-1.31"/>
  <path class="st7" d="M0-1.31"/>
  <path class="st7" d="M0-1.31"/>
  <path class="st7" d="M0-1.31"/>
  <path class="st7" d="M0-1.31"/>
  <path class="st7" d="M0-1.31"/>
  <path class="st7" d="M0-1.31"/>
  <path class="st7" d="M0-1.31"/>
  <path class="st7" d="M0-1.31"/>
  <path class="st7" d="M0-1.31"/>
  <path class="st7" d="M0-1.31"/>
  <path class="st7" d="M0-1.31"/>
  <path class="st7" d="M0-1.31"/>
  <path class="st7" d="M0-1.31"/>
  <path class="st7" d="M0-1.31"/>
  <path class="st7" d="M0-1.31"/>
  <path class="st7" d="M0-1.31"/>
  <path class="st7" d="M0-1.31"/>
  <path class="st7" d="M0-1.31"/>
  <path class="st7" d="M0-1.31"/>
  <path class="st7" d="M0-1.31"/>
  <path class="st7" d="M0-1.31"/>
  <path class="st7" d="M0-1.31"/>
  <path class="st7" d="M0-1.31"/>
  <path class="st7" d="M0-1.31"/>
  <path class="st7" d="M0-1.31"/>
  <path class="st7" d="M0-1.31"/>
  <path class="st7" d="M0-1.31"/>
  <path class="st7" d="M0-1.31"/>
  <path class="st7" d="M0-1.31"/>
  <path class="st7" d="M0-1.31"/>
  <path class="st7" d="M0-1.31"/>
  <path class="st7" d="M0-1.31"/>
  <path class="st7" d="M0-1.31"/>
  <path class="st7" d="M0-1.31"/>
  <path class="st7" d="M0-1.31"/>
  <path class="st7" d="M0-1.31"/>
  <path class="st7" d="M0-1.31"/>
  <path class="st7" d="M0-1.31"/>
  <path class="st7" d="M0-1.31"/>
  <path class="st7" d="M0-1.31"/>
  <path class="st7" d="M0-1.31"/>
  <path class="st7" d="M0-1.31"/>
  <path class="st7" d="M0-1.31"/>
  <path class="st7" d="M0-1.31"/>
  <path class="st7" d="M0-1.31"/>
  <path class="st7" d="M0-1.31"/>
  <path class="st7" d="M0-1.31"/>
  <path class="st7" d="M0-1.31"/>
  <path class="st7" d="M0-1.31"/>
  <path class="st7" d="M0-1.31"/>
  <path class="st7" d="M0-1.31"/>
  <path class="st7" d="M0-1.31"/>
  <path class="st7" d="M0-1.31"/>
  <path class="st7" d="M0-1.31"/>
  <path class="st7" d="M0-1.31"/>
  <path class="st7" d="M0-1.31"/>
  <path class="st7" d="M0-1.31"/>
  <path class="st7" d="M0-1.31"/>
  <path class="st7" d="M0-1.31"/>
  <path class="st7" d="M0-1.31"/>
  <path class="st7" d="M0-1.31"/>
  <path class="st7" d="M0-1.31"/>
  <path class="st7" d="M0-1.31"/>
  <path class="st7" d="M0-1.31"/>
  <path class="st7" d="M0-1.31"/>
  <path class="st7" d="M0-1.31"/>
  <path class="st7" d="M0-1.31"/>
  <path class="st7" d="M0-1.31"/>
  <path class="st7" d="M0-1.31"/>
  <path class="st7" d="M0-1.31"/>
  <path class="st7" d="M0-1.31"/>
  <path class="st7" d="M0-1.31"/>
  <path class="st7" d="M0-1.31"/>
  <path class="st7" d="M0-1.31"/>
  <path class="st7" d="M0-1.31"/>
  <path class="st7" d="M0-1.31"/>
  <path class="st7" d="M0-1.31"/>
  <path class="st7" d="M0-1.31"/>
  <path class="st7" d="M0-1.31"/>
  <path class="st7" d="M0-1.31"/>
  <path class="st7" d="M0-1.31"/>
  <path class="st7" d="M0-1.31"/>
  <path class="st7" d="M0-1.31"/>
  <path class="st7" d="M0-1.31"/>
  <path class="st7" d="M0-1.31"/>
  <path class="st7" d="M0-1.31"/>
  <path class="st7" d="M0-1.31"/>
  <path class="st7" d="M0-1.31"/>
  <path class="st7" d="M0-1.31"/>
  <path class="st7" d="M0-1.31"/>
  <path class="st7" d="M0-1.31"/>
  <path class="st7" d="M0-1.31"/>
  <path class="st7" d="M0-1.31"/>
  <path class="st7" d="M0-1.31"/>
  <path class="st7" d="M0-1.31"/>
  <path class="st7" d="M0-1.31"/>
  <path class="st7" d="M0-1.31"/>
  <path class="st7" d="M0-1.31"/>
  <path class="st7" d="M0-1.31"/>
  <path class="st7" d="M0-1.31"/>
  <path class="st7" d="M0-1.31"/>
  <path class="st7" d="M0-1.31"/>
  <path class="st7" d="M0-1.31"/>
  <path class="st7" d="M0-1.31"/>
  <path class="st7" d="M0-1.31"/>
  <path class="st7" d="M0-1.31"/>
  <path class="st7" d="M0-1.31"/>
  <path class="st7" d="M0-1.31"/>
  <path class="st7" d="M0-1.31"/>
  <path class="st7" d="M0-1.31"/>
  <path class="st7" d="M0-1.31"/>
  <path class="st7" d="M0-1.31"/>
  <path class="st7" d="M0-1.31"/>
  <path class="st7" d="M0-1.31"/>
  <path class="st7" d="M0-1.31"/>
  <path class="st7" d="M0-1.31"/>
  <path class="st7" d="M0-1.31"/>
  <path class="st7" d="M0-1.31"/>
  <path class="st7" d="M0-1.31"/>
  <path class="st7" d="M0-1.31"/>
  <path class="st7" d="M0-1.31"/>
  <path class="st7" d="M0-1.31"/>
  <path class="st7" d="M0-1.31"/>
  <path class="st7" d="M0-1.31"/>
  <path class="st7" d="M0-1.31"/>
  <path class="st7" d="M0-1.31"/>
  <path class="st7" d="M0-1.31"/>
  <path class="st7" d="M0-1.31"/>
  <path class="st7" d="M0-1.31"/>
  <path class="st7" d="M0-1.31"/>
  <path class="st7" d="M0-1.31"/>
  <path class="st7" d="M0-1.31"/>
  <path class="st7" d="M0-1.31"/>
  <path class="st7" d="M0-1.31"/>
  <path class="st7" d="M0-1.31"/>
  <path class="st7" d="M0-1.31"/>
  <path class="st7" d="M0-1.31"/>
  <path class="st7" d="M0-1.31"/>
  <path class="st7" d="M0-1.31"/>
  <path class="st7" d="M0-1.31"/>
  <path class="st7" d="M0-1.31"/>
  <path class="st7" d="M0-1.31"/>
  <path class="st7" d="M0-1.31"/>
  <path class="st7" d="M0-1.31"/>
  <path class="st7" d="M0-1.31"/>
  <path class="st7" d="M0-1.31"/>
  <path class="st7" d="M0-1.31"/>
  <path class="st7" d="M0-1.31"/>
  <path class="st7" d="M0-1.31"/>
  <path class="st7" d="M0-1.31"/>
  <path class="st7" d="M0-1.31"/>
  <path class="st7" d="M0-1.31"/>
  <path class="st7" d="M0-1.31"/>
  <path class="st7" d="M0-1.31"/>
  <path class="st7" d="M0-1.31"/>
  <path class="st7" d="M0-1.31"/>
  <path class="st7" d="M0-1.31"/>
  <path class="st7" d="M0-1.31"/>
  <path class="st7" d="M0-1.31"/>
  <path class="st7" d="M0-1.31"/>
  <path class="st7" d="M0-1.31"/>
  <path class="st7" d="M0-1.31"/>
  <path class="st7" d="M0-1.31"/>
  <path class="st7" d="M0-1.31"/>
  <path class="st7" d="M0-1.31"/>
  <path class="st7" d="M0-1.31"/>
  <path class="st7" d="M0-1.31"/>
  <path class="st7" d="M0-1.31"/>
  <path class="st7" d="M0-1.31"/>
  <path class="st7" d="M0-1.31"/>
  <path class="st7" d="M0-1.31"/>
  <path class="st7" d="M0-1.31"/>
  <path class="st7" d="M0-1.31"/>
  <path class="st7" d="M0-1.31"/>
  <path class="st7" d="M0-1.31"/>
  <path class="st7" d="M0-1.31"/>
  <path class="st7" d="M0-1.31"/>
  <path class="st7" d="M0-1.31"/>
  <path class="st7" d="M0-1.31"/>
  <path class="st7" d="M0-1.31"/>
  <path class="st7" d="M0-1.31"/>
  <path class="st7" d="M0-1.31"/>
  <path class="st7" d="M0-1.31"/>
  <path class="st7" d="M0-1.31"/>
  <path class="st7" d="M0-1.31"/>
  <path class="st7" d="M0-1.31"/>
  <path class="st7" d="M0-1.31"/>
  <path class="st7" d="M0-1.31"/>
  <path class="st7" d="M0-1.31"/>
  <path class="st7" d="M0-1.31"/>
  <path class="st7" d="M0-1.31"/>
  <path class="st7" d="M0-1.31"/>
  <path class="st7" d="M0-1.31"/>
  <path class="st7" d="M0-1.31"/>
  <path class="st7" d="M0-1.31"/>
  <path class="st7" d="M0-1.31"/>
  <path class="st7" d="M0-1.31"/>
  <path class="st7" d="M0-1.31"/>
  <path class="st7" d="M0-1.31"/>
  <path class="st7" d="M0-1.31"/>
  <path class="st7" d="M0-1.31"/>
  <path class="st7" d="M0-1.31"/>
  <path class="st7" d="M0-1.31"/>
  <path class="st7" d="M0-1.31"/>
  <path class="st7" d="M0-1.31"/>
  <path class="st7" d="M0-1.31"/>
  <path class="st7" d="M0-1.31"/>
  <path class="st7" d="M0-1.31"/>
  <path class="st7" d="M0-1.31"/>
  <path class="st7" d="M0-1.31"/>
  <path class="st7" d="M0-1.31"/>
  <path class="st7" d="M0-1.31"/>
  <path class="st7" d="M0-1.31"/>
  <path class="st7" d="M0-1.31"/>
  <path class="st7" d="M0-1.31"/>
  <path class="st7" d="M0-1.31"/>
  <path class="st7" d="M0-1.31"/>
  <path class="st7" d="M0-1.31"/>
  <path class="st7" d="M0-1.31"/>
  <path class="st7" d="M0-1.31"/>
  <path class="st7" d="M0-1.31"/>
  <path class="st7" d="M0-1.31"/>
  <path class="st7" d="M0-1.31"/>
  <path class="st7" d="M0-1.31"/>
  <path class="st7" d="M0-1.31"/>
  <path class="st7" d="M0-1.31"/>
  <path class="st7" d="M0-1.31"/>
  <path class="st7" d="M0-1.31"/>
  <path class="st7" d="M0-1.31"/>
  <path class="st7" d="M0-1.31"/>
  <path class="st7" d="M0-1.31"/>
  <path class="st7" d="M0-1.31"/>
  <path class="st7" d="M0-1.31"/>
  <path class="st7" d="M0-1.31"/>
  <path class="st7" d="M0-1.31"/>
  <path class="st7" d="M0-1.31"/>
  <path class="st7" d="M0-1.31"/>
  <path class="st7" d="M0-1.31"/>
  <path class="st7" d="M0-1.31"/>
  <path class="st7" d="M0-1.31"/>
  <path class="st7" d="M0-1.31"/>
  <path class="st7" d="M0-1.31"/>
  <path class="st7" d="M0-1.31"/>
  <path class="st7" d="M0-1.31"/>
  <path class="st7" d="M0-1.31"/>
  <path class="st7" d="M0-1.31"/>
  <path class="st7" d="M0-1.31"/>
  <path class="st7" d="M0-1.31"/>
  <path class="st7" d="M0-1.31"/>
  <path class="st7" d="M0-1.31"/>
  <path class="st7" d="M0-1.31"/>
  <path class="st7" d="M0-1.31"/>
  <path class="st7" d="M0-1.31"/>
  <path class="st7" d="M0-1.31"/>
  <path class="st7" d="M0-1.31"/>
  <path class="st7" d="M0-1.31"/>
  <path class="st7" d="M0-1.31"/>
  <path class="st7" d="M0-1.31"/>
  <path class="st7" d="M0-1.31"/>
  <path class="st7" d="M0-1.31"/>
  <path class="st7" d="M0-1.31"/>
  <path class="st7" d="M0-1.31"/>
  <path class="st7" d="M0-1.31"/>
  <path class="st7" d="M0-1.31"/>
  <path class="st7" d="M0-1.31"/>
  <path class="st7" d="M0-1.31"/>
  <path class="st7" d="M0-1.31"/>
  <path class="st7" d="M0-1.31"/>
  <path class="st7" d="M0-1.31"/>
  <path class="st7" d="M0-1.31"/>
  <path class="st7" d="M0-1.31"/>
  <path class="st7" d="M0-1.31"/>
  <path class="st7" d="M0-1.31"/>
  <path class="st7" d="M0-1.31"/>
  <path class="st7" d="M0-1.31"/>
  <path class="st7" d="M0-1.31"/>
  <path class="st7" d="M0-1.31"/>
  <path class="st7" d="M0-1.31"/>
  <path class="st7" d="M0-1.31"/>
  <path class="st7" d="M0-1.31"/>
  <path class="st7" d="M0-1.31"/>
  <path class="st7" d="M0-1.31"/>
  <path class="st7" d="M0-1.31"/>
  <path class="st7" d="M0-1.31"/>
  <path class="st7" d="M0-1.31"/>
  <path class="st7" d="M0-1.31"/>
  <path class="st7" d="M0-1.31"/>
  <path class="st7" d="M0-1.31"/>
  <path class="st7" d="M0-1.31"/>
  <path class="st7" d="M0-1.31"/>
  <path class="st7" d="M0-1.31"/>
  <path class="st7" d="M0-1.31"/>
  <path class="st7" d="M0-1.31"/>
  <path class="st7" d="M0-1.31"/>
  <path class="st7" d="M0-1.31"/>
  <path class="st7" d="M0-1.31"/>
  <path class="st7" d="M0-1.31"/>
  <path class="st7" d="M0-1.31"/>
  <path class="st7" d="M0-1.31"/>
  <path class="st7" d="M0-1.31"/>
  <path class="st7" d="M0-1.31"/>
  <path class="st7" d="M0-1.31"/>
  <path class="st7" d="M0-1.31"/>
  <path class="st7" d="M0-1.31"/>
  <path class="st7" d="M0-1.31"/>
  <path class="st7" d="M0-1.31"/>
  <path class="st7" d="M0-1.31"/>
  <path class="st7" d="M0-1.31"/>
  <path class="st7" d="M0-1.31"/>
  <path class="st7" d="M0-1.31"/>
  <path class="st7" d="M0-1.31"/>
  <path class="st7" d="M0-1.31"/>
  <path class="st7" d="M0-1.31"/>
  <path class="st7" d="M0-1.31"/>
  <path class="st7" d="M0-1.31"/>
  <path class="st7" d="M0-1.31"/>
  <path class="st7" d="M0-1.31"/>
  <path class="st7" d="M0-1.31"/>
  <path class="st7" d="M0-1.31"/>
  <path class="st7" d="M0-1.31"/>
  <path class="st7" d="M0-1.31"/>
  <path class="st7" d="M0-1.31"/>
  <path class="st7" d="M0-1.31"/>
  <path class="st7" d="M0-1.31"/>
  <path class="st7" d="M0-1.31"/>
  <path class="st7" d="M0-1.31"/>
  <path class="st7" d="M0-1.31"/>
  <path class="st7" d="M0-1.31"/>
  <path class="st7" d="M0-1.31"/>
  <path class="st7" d="M0-1.31"/>
  <path class="st7" d="M0-1.31"/>
  <path class="st7" d="M0-1.31"/>
  <path class="st7" d="M0-1.31"/>
  <path class="st7" d="M0-1.31"/>
  <path class="st7" d="M0-1.31"/>
  <path class="st7" d="M0-1.31"/>
  <path class="st7" d="M0-1.31"/>
  <path class="st7" d="M0-1.31"/>
  <path class="st7" d="M0-1.31"/>
  <path class="st7" d="M0-1.31"/>
  <path class="st7" d="M0-1.31"/>
  <path class="st7" d="M0-1.31"/>
  <path class="st7" d="M0-1.31"/>
  <path class="st7" d="M0-1.31"/>
  <path class="st7" d="M0-1.31"/>
  <path class="st7" d="M0-1.31"/>
  <path class="st7" d="M0-1.31"/>
  <path class="st7" d="M0-1.31"/>
  <path class="st7" d="M0-1.31"/>
  <path class="st7" d="M0-1.31"/>
  <path class="st7" d="M0-1.31"/>
  <path class="st7" d="M0-1.31"/>
  <path class="st7" d="M0-1.31"/>
  <path class="st7" d="M0-1.31"/>
  <path class="st7" d="M0-1.31"/>
  <path class="st7" d="M0-1.31"/>
  <path class="st7" d="M0-1.31"/>
  <path class="st7" d="M0-1.31"/>
  <path class="st7" d="M0-1.31"/>
  <path class="st7" d="M0-1.31"/>
  <path class="st7" d="M0-1.31"/>
  <path class="st7" d="M0-1.31"/>
  <path class="st7" d="M0-1.31"/>
  <path class="st7" d="M0-1.31"/>
  <path class="st7" d="M0-1.31"/>
  <path class="st7" d="M0-1.31"/>
  <path class="st7" d="M0-1.31"/>
  <path class="st7" d="M0-1.31"/>
  <path class="st7" d="M0-1.31"/>
  <path class="st7" d="M0-1.31"/>
  <path class="st7" d="M0-1.31"/>
  <path class="st7" d="M0-1.31"/>
  <path class="st7" d="M0-1.31"/>
  <path class="st7" d="M0-1.31"/>
  <path class="st7" d="M0-1.31"/>
  <path class="st7" d="M0-1.31"/>
  <path class="st7" d="M0-1.31"/>
  <path class="st7" d="M0-1.31"/>
  <path class="st7" d="M0-1.31"/>
  <path class="st7" d="M0-1.31"/>
  <path class="st7" d="M0-1.31"/>
  <path class="st7" d="M0-1.31"/>
  <path class="st7" d="M0-1.31"/>
  <path class="st7" d="M0-1.31"/>
  <path class="st7" d="M0-1.31"/>
  <path class="st7" d="M0-1.31"/>
  <path class="st7" d="M0-1.31"/>
  <path class="st7" d="M0-1.31"/>
  <path class="st7" d="M0-1.31"/>
  <path class="st7" d="M0-1.31"/>
  <path class="st7" d="M0-1.31"/>
  <path class="st7" d="M0-1.31"/>
  <path class="st7" d="M0-1.31"/>
  <path class="st7" d="M0-1.31"/>
  <path class="st7" d="M0-1.31"/>
  <path class="st7" d="M0-1.31"/>
  <path class="st7" d="M0-1.31"/>
  <path class="st7" d="M0-1.31"/>
  <path class="st7" d="M0-1.31"/>
  <path class="st7" d="M0-1.31"/>
  <path class="st7" d="M0-1.31"/>
  <path class="st7" d="M0-1.31"/>
  <path class="st7" d="M0-1.31"/>
  <path class="st7" d="M0-1.31"/>
  <path class="st7" d="M0-1.31"/>
  <path class="st7" d="M0-1.31"/>
  <path class="st7" d="M0-1.31"/>
  <path class="st7" d="M0-1.31"/>
  <path class="st7" d="M0-1.31"/>
  <path class="st7" d="M0-1.31"/>
  <path class="st7" d="M0-1.31"/>
  <path class="st7" d="M0-1.31"/>
  <path class="st7" d="M0-1.31"/>
  <path class="st7" d="M0-1.31"/>
  <path class="st7" d="M0-1.31"/>
  <path class="st7" d="M0-1.31"/>
  <path class="st7" d="M0-1.31"/>
  <path class="st7" d="M0-1.31"/>
  <path class="st7" d="M0-1.31"/>
  <path class="st7" d="M0-1.31"/>
  <path class="st7" d="M0-1.31"/>
  <path class="st7" d="M0-1.31"/>
  <path class="st7" d="M0-1.31"/>
  <path class="st7" d="M0-1.31"/>
  <path class="st7" d="M0-1.31"/>
  <path class="st7" d="M0-1.31"/>
  <path class="st7" d="M0-1.31"/>
  <path class="st7" d="M0-1.31"/>
  <path class="st7" d="M0-1.31"/>
  <path class="st7" d="M0-1.31"/>
  <path class="st7" d="M0-1.31"/>
  <path class="st7" d="M0-1.31"/>
  <path class="st7" d="M0-1.31"/>
  <path class="st7" d="M0-1.31"/>
  <path class="st7" d="M0-1.31"/>
  <path class="st7" d="M0-1.31"/>
  <path class="st7" d="M0-1.31"/>
  <path class="st7" d="M0-1.31"/>
  <path class="st7" d="M0-1.31"/>
  <path class="st7" d="M0-1.31"/>
  <path class="st7" d="M0-1.31"/>
  <path class="st7" d="M0-1.31"/>
  <path class="st7" d="M0-1.31"/>
  <path class="st7" d="M0-1.31"/>
  <path class="st7" d="M0-1.31"/>
  <path class="st7" d="M0-1.31"/>
  <path class="st7" d="M0-1.31"/>
  <path class="st7" d="M0-1.31"/>
  <path class="st7" d="M0-1.31"/>
  <path class="st7" d="M0-1.31"/>
  <path class="st7" d="M0-1.31"/>
  <path class="st7" d="M0-1.31"/>
  <path class="st7" d="M0-1.31"/>
  <path class="st7" d="M0-1.31"/>
  <path class="st7" d="M0-1.31"/>
  <path class="st7" d="M0-1.31"/>
  <path class="st7" d="M0-1.31"/>
  <path class="st7" d="M0-1.31"/>
  <path class="st7" d="M0-1.31"/>
  <path class="st7" d="M0-1.31"/>
  <path class="st7" d="M0-1.31"/>
  <path class="st7" d="M0-1.31"/>
  <path class="st7" d="M0-1.31"/>
  <path class="st7" d="M0-1.31"/>
  <path class="st7" d="M0-1.31"/>
  <path class="st7" d="M0-1.31"/>
  <path class="st7" d="M0-1.31"/>
  <path class="st7" d="M0-1.31"/>
  <path class="st7" d="M0-1.31"/>
  <path class="st7" d="M0-1.31"/>
  <path class="st7" d="M0-1.31"/>
  <path class="st7" d="M0-1.31"/>
  <path class="st7" d="M0-1.31"/>
  <path class="st7" d="M0-1.31"/>
  <path class="st7" d="M0-1.31"/>
  <path class="st7" d="M0-1.31"/>
  <path class="st7" d="M0-1.31"/>
  <path class="st7" d="M0-1.31"/>
  <path class="st7" d="M0-1.31"/>
  <path class="st7" d="M0-1.31"/>
  <path class="st7" d="M0-1.31"/>
  <path class="st7" d="M0-1.31"/>
  <path class="st7" d="M0-1.31"/>
  <path class="st7" d="M0-1.31"/>
  <path class="st7" d="M0-1.31"/>
  <path class="st7" d="M0-1.31"/>
  <path class="st7" d="M0-1.31"/>
  <path class="st7" d="M0-1.31"/>
  <path class="st7" d="M0-1.31"/>
  <path class="st7" d="M0-1.31"/>
  <path class="st7" d="M0-1.31"/>
  <path class="st7" d="M0-1.31"/>
  <path class="st7" d="M0-1.31"/>
  <path class="st7" d="M0-1.31"/>
  <path class="st7" d="M0-1.31"/>
  <path class="st7" d="M0-1.31"/>
  <path class="st7" d="M0-1.31"/>
  <path class="st7" d="M0-1.31"/>
  <path class="st7" d="M0-1.31"/>
  <path class="st7" d="M0-1.31"/>
  <path class="st7" d="M0-1.31"/>
  <path class="st7" d="M0-1.31"/>
  <path class="st7" d="M0-1.31"/>
  <path class="st7" d="M0-1.31"/>
  <path class="st7" d="M0-1.31"/>
  <path class="st7" d="M0-1.31"/>
  <path class="st7" d="M0-1.31"/>
  <path class="st7" d="M0-1.31"/>
  <path class="st7" d="M0-1.31"/>
  <path class="st7" d="M0-1.31"/>
  <path class="st7" d="M0-1.31"/>
  <path class="st7" d="M0-1.31"/>
  <path class="st7" d="M0-1.31"/>
  <path class="st7" d="M0-1.31"/>
  <path class="st7" d="M0-1.31"/>
  <path class="st7" d="M0-1.31"/>
  <path class="st7" d="M0-1.31"/>
  <path class="st7" d="M0-1.31"/>
  <path class="st7" d="M0-1.31"/>
  <path class="st7" d="M0-1.31"/>
  <path class="st7" d="M0-1.31"/>
  <path class="st7" d="M0-1.31"/>
  <path class="st7" d="M0-1.31"/>
  <path class="st7" d="M0-1.31"/>
  <path class="st7" d="M0-1.31"/>
  <path class="st7" d="M0-1.31"/>
  <path class="st7" d="M0-1.31"/>
  <path class="st7" d="M0-1.31"/>
  <path class="st7" d="M0-1.31"/>
  <path class="st7" d="M0-1.31"/>
</svg>