<svg version="1.1" id="Layer_1" xmlns="http://www.w3.org/2000/svg" xmlns:xlink="http://www.w3.org/1999/xlink" x="0px" y="0px"
	 width="100%" viewBox="0 0 1647 3055" enable-background="new 0 0 1647 3055" xml:space="preserve">
<path fill="#FFFFFF" opacity="1.000000" stroke="none" 
	d="
M2.000000,822.000000 
	C2.000000,548.736938 2.000000,275.473907 2.000000,2.105425 
	C551.121765,2.105425 1100.243530,2.105425 1650.000000,2.105425 
	C1650.000000,274.717987 1650.000000,547.436462 1649.429932,820.469727 
	C1648.076538,805.721558 1647.293335,790.658630 1646.577637,776.893616 
	C1644.774292,773.458862 1642.627441,770.929321 1642.086548,768.093384 
	C1637.705200,745.122314 1630.941895,722.791382 1620.637939,701.928894 
	C1608.674072,677.705078 1593.076782,656.052002 1571.916626,638.372314 
	C1544.649536,615.590271 1513.984985,601.187317 1478.977173,595.893860 
	C1467.925537,594.222900 1456.801636,593.030151 1445.044678,591.533752 
	C1445.964111,585.317810 1447.031128,579.829285 1447.533447,574.289551 
	C1448.233887,566.566589 1451.250122,559.097351 1449.942871,551.151550 
	C1449.194458,546.602539 1448.730225,542.007568 1448.077759,537.441895 
	C1446.868042,528.975525 1445.838623,520.474731 1444.316162,512.063965 
	C1442.735962,503.335907 1440.660278,494.697510 1438.726685,485.671844 
	C1438.657227,485.679565 1437.562988,485.800995 1435.934937,485.981689 
	C1435.934937,483.952606 1435.934937,481.987000 1436.655762,479.882416 
	C1442.988525,475.284668 1437.642578,471.601288 1435.985840,467.613922 
	C1435.985840,471.763947 1435.985840,475.914001 1435.348511,479.753845 
	C1433.766724,477.732849 1432.643188,476.095825 1431.904541,474.300415 
	C1418.623291,442.014557 1401.141602,412.553131 1375.557495,388.261444 
	C1348.392944,362.469055 1316.096069,347.570038 1279.337158,341.981049 
	C1269.862793,340.540497 1260.250610,339.964081 1250.687256,339.165894 
	C1244.423828,338.643158 1238.074219,337.712189 1231.868408,338.229126 
	C1216.435669,339.514709 1201.063110,341.524475 1185.437866,343.268982 
	C1181.011719,331.832947 1176.543945,320.444153 1172.244873,308.992035 
	C1171.688110,307.508911 1172.002808,305.698608 1172.609741,303.936646 
	C1173.950439,302.860657 1175.347412,301.655609 1175.129272,300.949402 
	C1170.539673,286.090363 1165.808716,271.274231 1160.944702,256.502594 
	C1160.600342,255.456863 1159.013794,254.820145 1157.975098,253.392059 
	C1157.291870,251.865707 1156.638672,250.940567 1155.958618,249.412003 
	C1155.283081,247.877502 1154.634155,246.946442 1153.963623,245.411148 
	C1153.326416,243.840744 1152.710693,242.874557 1152.065674,241.309158 
	C1151.377319,239.781952 1150.718384,238.853958 1149.839233,237.487152 
	C1149.234253,236.469604 1148.701050,236.112625 1147.917847,235.679779 
	C1147.629883,235.278412 1147.443481,235.174622 1147.257202,235.070862 
	C1147.498291,235.385788 1147.739380,235.700699 1148.177002,236.464844 
	C1148.748901,237.485031 1149.263672,237.869110 1149.935669,238.667862 
	C1150.608765,240.199661 1151.264282,241.129913 1151.978638,242.650787 
	C1152.696289,244.157837 1153.354858,245.074265 1154.047607,246.588348 
	C1154.725586,248.120926 1155.369507,249.055832 1156.045166,250.588806 
	C1156.716431,252.125900 1157.355713,253.064972 1157.984863,254.774170 
	C1158.666260,257.740509 1159.313354,259.951874 1160.056519,262.130524 
	C1164.755005,275.908234 1170.965332,289.255341 1171.335938,303.807312 
	C1166.335083,296.494354 1162.108887,289.360596 1157.562866,282.436890 
	C1137.032837,251.169907 1109.650635,227.575500 1076.661011,210.211365 
	C1051.548950,196.993561 1025.073853,187.085526 998.185852,178.383835 
	C965.580994,167.832001 937.315491,150.228409 912.454895,127.112381 
	C885.384644,101.941833 860.227356,74.975502 839.085938,44.471874 
	C835.606445,39.451607 831.355042,34.966370 827.074829,29.765337 
	C824.920532,32.241581 823.557678,33.667648 822.351746,35.215992 
	C809.303284,51.970039 797.053162,69.425758 783.031433,85.319313 
	C769.008118,101.214867 753.797668,116.194321 738.043640,130.394989 
	C722.250549,144.630875 705.258484,157.779755 685.469666,166.133759 
	C666.205933,174.266083 646.435303,181.203094 626.853210,188.574524 
	C599.399963,198.909012 572.866455,210.864899 548.736389,227.972977 
	C521.005005,247.634399 501.014374,273.683746 483.965698,302.486877 
	C481.971558,305.855927 479.016968,308.656555 476.693115,311.494232 
	C477.198181,312.209381 479.378784,314.040924 479.046692,315.021332 
	C475.780792,324.662933 472.097107,334.163055 468.820435,342.931458 
	C450.022461,341.227417 432.258911,339.338318 414.448303,338.161072 
	C408.592072,337.773956 402.604492,339.151001 396.693695,339.860931 
	C385.523468,341.202545 374.208038,341.891785 363.231018,344.183899 
	C326.734192,351.804840 295.693481,369.311432 270.078644,396.600037 
	C252.566559,415.256500 240.130630,437.135132 228.349411,459.518829 
	C227.297729,461.516968 226.410004,464.841858 224.940948,465.151154 
	C220.215866,466.145996 221.071548,469.532684 220.610840,472.564789 
	C220.164490,475.502594 219.972122,478.567993 218.959473,481.316223 
	C212.544281,498.726440 207.795349,516.510010 206.330917,535.066650 
	C205.657730,543.596863 204.300369,552.186157 204.770615,560.664490 
	C205.331863,570.783508 207.519058,580.812378 209.058426,591.264038 
	C203.470261,592.205200 198.640305,593.569885 193.767120,593.747314 
	C167.767975,594.693909 143.390839,601.906555 120.203751,613.107056 
	C95.628914,624.977966 74.627136,641.813354 58.002880,663.396851 
	C48.941242,675.161743 40.748852,687.907776 34.173180,701.204712 
	C23.672756,722.437988 15.101041,744.584656 11.030385,768.161133 
	C10.299094,772.396667 9.118842,776.588745 8.778006,780.851440 
	C7.689267,794.467712 3.662591,807.891174 5.310597,821.812927 
	C3.765822,821.925659 2.882910,821.962830 2.000000,822.000000 
M1141.650146,225.013641 
	C1141.246094,224.453140 1140.704468,224.108414 1140.024658,222.651764 
	C1139.361328,221.293167 1138.697998,219.934586 1138.034790,218.576004 
	C1137.467041,218.950333 1136.899292,219.324661 1136.331665,219.698990 
	C1137.548584,221.140274 1138.765625,222.581543 1140.368042,224.918579 
	C1140.750000,225.475342 1141.260498,225.863220 1142.275146,226.986542 
	C1142.649170,227.550552 1143.153931,227.948715 1143.876587,229.209610 
	C1144.369873,229.632385 1144.863037,230.055145 1145.356201,230.477936 
	C1144.956177,229.590439 1144.556030,228.702942 1143.689087,226.956696 
	C1143.298706,226.386765 1142.765381,226.031082 1141.650146,225.013641 
M1593.808105,619.366760 
	C1593.612427,619.268066 1593.416748,619.169312 1593.221069,619.070557 
	C1593.470947,619.388245 1593.720825,619.705933 1594.318726,620.949890 
	C1594.702026,621.524902 1595.226562,621.904724 1596.167969,622.748657 
	C1596.403320,622.840881 1596.638794,622.933167 1596.874146,623.025391 
	C1596.615845,622.643860 1596.357544,622.262390 1595.688477,620.977539 
	C1595.277954,620.403259 1594.723267,620.066833 1593.808105,619.366760 
M1413.932373,398.809570 
	C1413.286621,397.873840 1412.640869,396.938110 1412.025757,394.671478 
	C1411.371460,393.374176 1410.717285,392.076843 1410.063110,390.779449 
	C1409.616211,391.112244 1408.736816,391.604584 1408.791382,391.752472 
	C1409.207886,392.881744 1409.715576,394.005402 1410.388184,395.000153 
	C1410.711182,395.478180 1411.452759,395.673187 1412.072998,397.191650 
	C1412.720947,398.124023 1413.368896,399.056396 1414.087891,401.183258 
	C1414.731567,402.117920 1415.375366,403.052612 1416.088501,405.182220 
	C1416.730225,406.118408 1417.371826,407.054565 1418.076050,409.186737 
	C1418.714111,410.126556 1419.352173,411.066376 1419.967529,413.538696 
	C1422.631104,420.360168 1425.294556,427.181641 1427.993042,435.579376 
	C1430.458984,444.801270 1432.925049,454.023193 1435.391113,463.245117 
	C1436.175537,452.879608 1433.912231,443.260406 1429.795532,432.532684 
	C1427.096313,425.416931 1425.927734,417.572083 1419.947876,410.787842 
	C1419.293701,409.863708 1418.639526,408.939575 1417.928833,406.810272 
	C1417.278809,405.880707 1416.628784,404.951141 1415.924194,402.814972 
	C1415.276611,401.882935 1414.629150,400.950928 1413.932373,398.809570 
M234.878265,423.455200 
	C234.939789,422.744934 235.001328,422.034668 235.062836,421.324402 
	C234.706604,422.214722 234.350388,423.105072 233.067307,424.358307 
	C232.498184,424.767395 232.149155,425.316406 231.433334,427.357697 
	C227.771286,438.135895 222.996201,448.635712 224.049316,460.661285 
	C227.362244,449.108154 230.675186,437.555054 234.029007,425.004303 
	C234.029007,425.004303 234.005493,424.006104 234.878265,423.455200 
M40.976643,657.325439 
	C41.311588,656.210632 41.646530,655.095825 42.976273,653.328003 
	C43.315449,652.216431 43.654621,651.104858 45.149239,649.438538 
	C46.119274,647.639709 47.089314,645.840820 49.021259,643.368835 
	C49.389343,642.285950 49.757427,641.203064 51.053993,639.403625 
	C51.427155,638.317505 51.800320,637.231323 53.035755,635.685974 
	C53.572426,635.258911 53.902985,634.708130 55.209705,633.436035 
	C57.483040,630.297974 59.756374,627.159912 63.110001,623.511414 
	C63.858974,622.212585 64.607948,620.913696 65.356926,619.614868 
	C64.857826,619.391602 64.358734,619.168335 63.859634,618.945068 
	C63.227814,620.618164 62.595989,622.291199 60.577915,624.100891 
	C56.048538,625.833069 54.583782,629.618774 53.040348,634.302673 
	C52.482639,634.690186 52.092701,635.204834 50.878590,636.518127 
	C50.542004,637.645386 50.205418,638.772644 48.833546,640.511108 
	C48.530758,641.649658 48.227966,642.788269 46.537239,644.117981 
	C45.693531,646.080017 44.849823,648.042053 42.977840,650.624451 
	C42.657875,651.753662 42.337910,652.882874 40.992954,654.634338 
	C40.667004,655.759644 40.341053,656.885010 38.984180,658.622864 
	C38.654716,659.746948 38.325249,660.871033 36.710972,662.601868 
	C28.265146,677.654846 24.214891,694.081787 21.531927,710.987366 
	C22.924271,710.007751 23.629259,708.762207 24.043304,707.426453 
	C27.375784,696.675476 30.650631,685.906677 33.949242,675.145203 
	C35.292847,670.761841 36.651726,666.383240 38.993252,661.337097 
	C39.323677,660.219482 39.654106,659.101868 40.976643,657.325439 
M1625.977539,675.003418 
	C1625.990845,675.336914 1626.004028,675.670410 1626.153320,677.516052 
	C1631.100952,695.756653 1636.048584,713.997253 1640.996216,732.237854 
	C1639.383057,712.835938 1635.434082,694.004761 1627.617798,675.077759 
	C1627.236450,674.481384 1626.697266,674.122131 1625.977783,672.954529 
	C1625.799561,672.422302 1625.621216,671.890076 1625.442993,671.357788 
	C1625.120117,671.604370 1624.797363,671.850952 1624.474487,672.097534 
	C1624.983032,672.732483 1625.491455,673.367493 1625.977539,675.003418 
M559.108704,183.949951 
	C559.908264,183.325958 560.707764,182.701965 561.507263,182.077988 
	C561.185303,181.731979 560.863281,181.385986 560.541260,181.039993 
	C559.686646,182.019409 558.832031,182.998825 556.877258,184.077118 
	C556.143188,184.555084 555.409180,185.033051 554.675110,185.511032 
	C554.964355,185.884247 555.253662,186.257462 555.542908,186.630676 
	C556.367004,185.760498 557.191040,184.890320 559.108704,183.949951 
M1391.985962,365.300476 
	C1392.631226,366.219574 1393.276489,367.138672 1394.061401,369.326324 
	C1395.368530,370.891541 1396.675659,372.456757 1398.214966,374.648407 
	C1398.422607,374.746094 1398.630371,374.843781 1398.838013,374.941406 
	C1398.567017,374.620911 1398.296021,374.300446 1398.011841,372.574463 
	C1396.708008,371.017059 1395.404175,369.459656 1394.012207,366.723450 
	C1393.382080,365.784882 1392.751953,364.846283 1391.983765,362.805481 
	C1391.430786,362.095276 1390.877808,361.385071 1390.324951,360.674835 
	C1389.953979,360.980286 1389.583008,361.285706 1389.212158,361.591187 
	C1390.092529,362.441315 1390.973022,363.291412 1391.985962,365.300476 
M252.976135,387.364777 
	C253.041946,386.272095 253.107742,385.179413 253.173553,384.086731 
	C252.854126,384.080322 252.534698,384.073883 252.215271,384.067474 
	C252.130630,385.368042 252.045990,386.668640 251.057663,388.338440 
	C250.521225,388.743134 250.139938,389.261871 248.678375,390.521515 
	C247.794693,393.021301 246.911011,395.521057 245.477890,398.213196 
	C245.645111,398.133118 245.812317,398.053070 247.198456,397.364929 
	C248.171341,394.941498 249.144241,392.518036 250.976791,389.642395 
	C251.503815,389.221680 251.853760,388.685364 252.976135,387.364777 
M549.175598,191.887253 
	C549.806641,191.037384 550.446167,190.193176 551.037231,189.316376 
	C551.060181,189.282318 550.619507,188.935684 550.394836,188.734680 
	C549.592468,189.819687 548.790100,190.904694 547.411438,192.199646 
	C547.610901,192.137253 547.810425,192.074860 549.175598,191.887253 
M1601.927002,628.865234 
	C1601.473022,628.113281 1601.019165,627.361328 1600.565308,626.609253 
	C1600.171021,626.897827 1599.776733,627.186401 1599.382568,627.475037 
	C1600.250488,628.319763 1601.118286,629.164429 1602.359497,631.186951 
	C1603.563843,632.797729 1604.768188,634.408569 1606.104004,637.324890 
	C1608.038330,639.579285 1609.972534,641.833679 1611.895264,645.440735 
	C1612.086670,648.376099 1612.930542,650.740967 1617.261108,650.090881 
	C1615.532837,648.040649 1613.804443,645.990417 1611.916870,642.563538 
	C1610.746704,639.659363 1610.151489,636.242676 1606.019775,634.556763 
	C1605.958374,631.917114 1605.053467,630.016479 1601.927002,628.865234 
M1406.205933,386.652802 
	C1406.411621,386.760651 1406.617188,386.868469 1406.822876,386.976288 
	C1406.548584,386.650757 1406.274292,386.325226 1405.985474,384.584167 
	C1406.036133,381.885468 1405.052734,380.058533 1401.819458,379.350372 
	C1401.627563,379.254150 1401.435791,379.157959 1401.243896,379.061768 
	C1401.474976,379.391266 1401.706055,379.720764 1402.063843,381.320374 
	C1403.375854,382.880676 1404.687988,384.440948 1406.205933,386.652802 
M750.647583,84.207047 
	C745.705383,86.393494 742.399719,90.346237 739.233948,94.465302 
	C744.268372,91.876709 750.598938,90.846863 753.243896,83.872711 
	C755.236206,82.947144 758.348022,82.803589 756.383972,78.504913 
	C754.746338,80.581154 753.384888,82.307274 750.647583,84.207047 
M690.469299,124.042938 
	C682.319702,127.372658 674.170105,130.702377 664.412170,134.006866 
	C650.686707,138.847412 636.957581,143.677536 623.250366,148.569168 
	C622.736572,148.752518 622.435974,149.533569 620.594910,149.999756 
	C617.735779,151.342041 614.876709,152.684326 610.491943,154.036896 
	C598.976257,157.454803 588.302979,162.529663 578.569946,169.454056 
	C578.900879,170.106537 579.231750,170.759003 579.562683,171.411469 
	C590.365479,165.597992 601.168335,159.784515 613.402100,154.011581 
	C616.261841,152.664261 619.121521,151.316940 623.533081,149.987961 
	C636.662048,145.463425 649.802002,140.970291 662.900818,136.360046 
	C664.059326,135.952286 664.948975,134.780457 667.528198,133.999619 
	C676.048401,131.566406 684.906067,129.955246 693.425476,123.961922 
	C697.101746,123.450859 700.589966,122.627533 703.523621,117.977486 
	C697.822083,118.595306 694.200562,119.941429 690.469299,124.042938 
M1130.071411,211.196411 
	C1130.976929,212.393478 1131.882568,213.590546 1132.788086,214.787613 
	C1133.195068,214.386047 1133.602173,213.984497 1134.009155,213.582932 
	C1132.663940,212.395035 1131.318604,211.207138 1129.794189,208.647690 
	C1123.964966,199.651306 1120.485229,196.641281 1112.422119,195.170532 
	C1119.285522,200.933289 1122.193970,208.077286 1130.071411,211.196411 
M542.619995,198.197479 
	C542.851562,197.227829 543.083130,196.258163 543.792419,193.287888 
	C538.159119,199.031219 533.318115,202.557449 530.299927,207.681183 
	C530.785522,208.163864 531.271057,208.646545 531.756653,209.129227 
	C535.089905,205.806717 538.423096,202.484207 542.619995,198.197479 
M569.152954,174.279190 
	C567.629822,175.555557 566.106689,176.831924 564.583557,178.108276 
	C565.047852,178.707718 565.512085,179.307159 565.976318,179.906586 
	C568.914429,177.880203 571.852478,175.853821 574.790588,173.827438 
	C574.462463,173.321701 574.134338,172.815948 573.806213,172.310196 
	C572.649353,172.811325 571.492432,173.312439 569.152954,174.279190 
M860.220642,41.125088 
	C862.452637,42.958538 863.883057,46.056740 867.752319,46.566822 
	C864.587891,43.048698 861.957214,40.124020 857.960938,35.681080 
	C858.879639,38.556713 859.143677,39.383202 860.220642,41.125088 
M723.207520,104.449059 
	C721.805176,105.857719 720.402893,107.266388 719.000549,108.675049 
	C722.885864,108.281891 726.358521,107.710861 727.662903,103.026512 
	C726.026306,103.454201 725.170471,103.677856 723.207520,104.449059 
M1371.354492,340.291138 
	C1370.578857,339.965942 1369.803223,339.640747 1369.027466,339.315552 
	C1368.675537,339.729797 1368.323608,340.144043 1367.971802,340.558289 
	C1370.450195,343.034729 1372.928589,345.511200 1375.406982,347.987640 
	C1375.904297,347.555237 1376.401611,347.122803 1376.898926,346.690369 
	C1375.343872,344.845520 1373.788818,343.000641 1371.354492,340.291138 
M372.582672,305.277557 
	C374.574188,304.547791 376.565735,303.818054 378.557281,303.088287 
	C378.464569,302.687561 378.371857,302.286835 378.279144,301.886078 
	C375.131683,302.150818 371.984253,302.415527 368.836823,302.680237 
	C368.853485,303.196960 368.870178,303.713684 368.886871,304.230377 
	C369.672089,304.644012 370.457336,305.057617 372.582672,305.277557 
M1583.304199,610.145813 
	C1585.092041,611.746948 1586.880005,613.348145 1588.667969,614.949341 
	C1588.427856,610.918945 1586.688477,608.337830 1583.042480,607.415833 
	C1582.911865,607.990723 1582.781250,608.565613 1583.304199,610.145813 
M715.131714,112.693970 
	C714.730774,112.010345 714.329834,111.326721 713.928894,110.643097 
	C712.290100,111.895050 710.651367,113.147003 709.012573,114.398956 
	C709.346252,114.866425 709.679993,115.333893 710.013672,115.801361 
	C711.447815,115.064598 712.882019,114.327835 715.131714,112.693970 
M1381.261597,350.677216 
	C1380.943481,350.628265 1380.610596,350.498932 1380.311523,350.553772 
	C1380.034058,350.604706 1379.549438,350.901764 1379.570801,351.006073 
	C1380.229370,354.243866 1382.465088,355.571777 1385.967773,355.462250 
	C1384.720215,354.083740 1383.472534,352.705200 1381.261597,350.677216 
M1621.155884,661.263428 
	C1619.286499,663.979431 1620.462524,665.541931 1624.420898,667.692627 
	C1623.375610,664.770081 1622.819702,663.216187 1621.155884,661.263428 
M239.593887,414.464874 
	C239.493881,413.395416 239.393875,412.325928 239.280106,411.109222 
	C238.398727,411.415131 237.883774,411.463104 237.842850,411.628387 
	C237.445984,413.231354 237.128601,414.853973 236.788513,416.471008 
	C237.536331,416.157593 238.284164,415.844147 239.593887,414.464874 
M1061.670776,160.925430 
	C1063.748169,161.991394 1065.825684,163.057358 1067.903076,164.123322 
	C1068.145508,163.487549 1068.387817,162.851791 1068.630249,162.216034 
	C1066.596680,161.530960 1064.562988,160.845871 1061.670776,160.925430 
M732.372986,100.675812 
	C733.378784,99.809471 734.384583,98.943123 735.390381,98.076775 
	C734.854370,97.660774 734.318420,97.244766 733.782410,96.828758 
	C732.962952,98.207687 732.143494,99.586609 732.372986,100.675812 
z"/>
<path fill="#E3D6BB" opacity="1.000000" stroke="none" 
	d="
M5.972462,821.737366 
	C3.662591,807.891174 7.689267,794.467712 8.778006,780.851440 
	C9.118842,776.588745 10.299094,772.396667 11.030385,768.161133 
	C15.101041,744.584656 23.672756,722.437988 34.173180,701.204712 
	C40.748852,687.907776 48.941242,675.161743 58.002880,663.396851 
	C74.627136,641.813354 95.628914,624.977966 120.203751,613.107056 
	C143.390839,601.906555 167.767975,594.693909 193.767120,593.747314 
	C198.640305,593.569885 203.470261,592.205200 209.058426,591.264038 
	C207.519058,580.812378 205.331863,570.783508 204.770615,560.664490 
	C204.300369,552.186157 205.657730,543.596863 206.330917,535.066650 
	C207.795349,516.510010 212.544281,498.726440 218.959473,481.316223 
	C219.972122,478.567993 220.164490,475.502594 220.610840,472.564789 
	C221.071548,469.532684 220.215866,466.145996 224.940948,465.151154 
	C226.410004,464.841858 227.297729,461.516968 228.349411,459.518829 
	C240.130630,437.135132 252.566559,415.256500 270.078644,396.600037 
	C295.693481,369.311432 326.734192,351.804840 363.231018,344.183899 
	C374.208038,341.891785 385.523468,341.202545 396.693695,339.860931 
	C402.604492,339.151001 408.592072,337.773956 414.448303,338.161072 
	C432.258911,339.338318 450.022461,341.227417 468.820435,342.931458 
	C472.097107,334.163055 475.780792,324.662933 479.046692,315.021332 
	C479.378784,314.040924 477.198181,312.209381 476.693115,311.494232 
	C479.016968,308.656555 481.971558,305.855927 483.965698,302.486877 
	C501.014374,273.683746 521.005005,247.634399 548.736389,227.972977 
	C572.866455,210.864899 599.399963,198.909012 626.853210,188.574524 
	C646.435303,181.203094 666.205933,174.266083 685.469666,166.133759 
	C705.258484,157.779755 722.250549,144.630875 738.043640,130.394989 
	C753.797668,116.194321 769.008118,101.214867 783.031433,85.319313 
	C797.053162,69.425758 809.303284,51.970039 822.351746,35.215992 
	C823.557678,33.667648 824.920532,32.241581 827.074829,29.765337 
	C831.355042,34.966370 835.606445,39.451607 839.085938,44.471874 
	C860.227356,74.975502 885.384644,101.941833 912.454895,127.112381 
	C937.315491,150.228409 965.580994,167.832001 998.185852,178.383835 
	C1025.073853,187.085526 1051.548950,196.993561 1076.661011,210.211365 
	C1109.650635,227.575500 1137.032837,251.169907 1157.562866,282.436890 
	C1162.108887,289.360596 1166.335083,296.494354 1171.353394,303.762817 
	C1171.998291,303.994293 1171.913696,304.039886 1171.913818,304.039886 
	C1172.002808,305.698608 1171.688110,307.508911 1172.244873,308.992035 
	C1176.543945,320.444153 1181.011719,331.832947 1185.437866,343.268982 
	C1201.063110,341.524475 1216.435669,339.514709 1231.868408,338.229126 
	C1238.074219,337.712189 1244.423828,338.643158 1250.687256,339.165894 
	C1260.250610,339.964081 1269.862793,340.540497 1279.337158,341.981049 
	C1316.096069,347.570038 1348.392944,362.469055 1375.557495,388.261444 
	C1401.141602,412.553131 1418.623291,442.014557 1431.904541,474.300415 
	C1432.643188,476.095825 1433.766724,477.732849 1435.356689,479.719055 
	C1436.002197,479.994476 1435.934937,480.021393 1435.934937,480.021393 
	C1435.934937,481.987000 1435.934937,483.952606 1435.934937,485.981689 
	C1437.562988,485.800995 1438.657227,485.679565 1438.726685,485.671844 
	C1440.660278,494.697510 1442.735962,503.335907 1444.316162,512.063965 
	C1445.838623,520.474731 1446.868042,528.975525 1448.077759,537.441895 
	C1448.730225,542.007568 1449.194458,546.602539 1449.942871,551.151550 
	C1451.250122,559.097351 1448.233887,566.566589 1447.533447,574.289551 
	C1447.031128,579.829285 1445.964111,585.317810 1445.044678,591.533752 
	C1456.801636,593.030151 1467.925537,594.222900 1478.977173,595.893860 
	C1513.984985,601.187317 1544.649536,615.590271 1571.916626,638.372314 
	C1593.076782,656.052002 1608.674072,677.705078 1620.637939,701.928894 
	C1630.941895,722.791382 1637.705200,745.122314 1642.086548,768.093384 
	C1642.627441,770.929321 1644.774292,773.458862 1646.577637,776.893616 
	C1647.293335,790.658630 1648.076538,805.721558 1649.429932,821.392212 
	C1650.000000,824.133362 1650.000000,826.266663 1649.604980,829.707275 
	C1649.473267,833.343079 1649.736694,835.671509 1650.000000,838.000000 
	C1650.000000,1577.893311 1650.000000,2317.786621 1650.000000,3057.839844 
	C1100.852661,3057.839844 551.705139,3057.839844 2.000000,3057.839844 
	C2.000000,2327.291748 2.000000,1596.583130 2.760655,864.702820 
	C4.285346,860.848694 5.639098,858.182068 5.710568,855.481384 
	C6.008095,844.238953 5.919446,832.986267 5.972462,821.737366 
M928.933960,176.079788 
	C919.994446,169.188904 910.813232,162.587067 902.162292,155.351212 
	C879.133057,136.089142 858.511353,114.432968 839.498413,91.218262 
	C835.639893,86.507034 831.539246,81.994179 827.196777,76.981926 
	C825.356445,78.962227 824.444580,79.860367 823.626221,80.836891 
	C815.946777,90.000519 808.718689,99.589615 800.515625,108.256348 
	C787.461243,122.048729 774.379639,135.932312 760.152710,148.464081 
	C746.743896,160.275146 732.204834,170.914474 717.502136,181.116959 
	C699.297241,193.749680 678.353333,200.739655 657.570618,207.902344 
	C633.023254,216.362503 608.748901,225.535080 585.927856,238.076019 
	C560.178772,252.226028 538.260620,270.815491 521.856018,295.368958 
	C506.706390,318.044128 497.270355,343.113464 491.889099,369.785461 
	C491.332886,372.542358 490.041382,375.150848 488.967865,378.175446 
	C486.083588,377.370453 484.231720,376.723358 482.326569,376.342682 
	C468.365173,373.553467 454.470459,369.079498 440.407104,368.453644 
	C416.586334,367.393585 392.571838,365.962311 368.906555,371.895844 
	C342.630188,378.484100 318.907806,389.501862 298.809967,408.055511 
	C277.579498,427.654724 263.098511,451.802490 251.368011,477.711670 
	C240.300140,502.157257 234.174713,527.942932 234.110764,554.893433 
	C234.059937,576.319824 237.787415,597.103271 246.327896,616.898682 
	C247.073120,618.625977 247.301849,620.576111 247.729477,622.261230 
	C246.714767,622.919250 246.210495,623.459351 245.620239,623.580505 
	C244.659744,623.777649 243.625824,623.839600 242.652649,623.718750 
	C227.917221,621.889343 213.371048,620.052612 198.264893,621.556519 
	C181.928925,623.182922 166.170609,626.066528 150.702576,631.441528 
	C104.410065,647.527832 73.166466,679.534851 54.522266,723.911621 
	C38.374378,762.346497 33.875206,803.310486 32.122368,844.574707 
	C31.585285,857.218384 31.956581,869.901855 31.956505,882.567078 
	C31.952217,1592.824219 31.952732,2303.081543 31.952785,3013.338623 
	C31.952785,3016.004883 31.841095,3018.677490 31.987259,3021.335938 
	C32.127480,3023.885742 32.535755,3026.420410 32.859558,3029.253418 
	C562.608032,3029.253418 1091.694458,3029.253418 1622.060425,3029.253418 
	C1622.060425,3024.721680 1622.060425,3020.829102 1622.060425,3016.936279 
	C1622.058716,2301.346436 1622.051880,1585.756348 1622.077637,870.166443 
	C1622.078369,847.230469 1621.294678,824.423401 1618.352417,801.585083 
	C1614.941406,775.108093 1609.910522,749.168335 1599.771118,724.446411 
	C1584.447632,687.084961 1559.288818,658.403137 1523.236938,639.706787 
	C1505.355957,630.433777 1486.157471,625.130188 1466.343262,622.253601 
	C1457.191895,620.925110 1447.824463,620.249756 1438.593384,620.531982 
	C1428.715454,620.833862 1418.885986,622.645447 1409.022705,623.676086 
	C1408.294189,623.752197 1407.462769,622.842957 1406.299438,622.173218 
	C1407.324463,619.188660 1408.174683,616.353760 1409.259155,613.611450 
	C1420.820923,584.373413 1422.656738,554.343811 1416.866699,523.623352 
	C1410.724976,491.036621 1397.216919,461.681732 1378.339844,434.617157 
	C1367.189087,418.630249 1353.942383,404.604034 1337.605469,394.013458 
	C1309.547852,375.824738 1278.673706,367.014160 1245.065552,367.817810 
	C1227.469971,368.238525 1209.844727,367.291443 1192.528076,371.770935 
	C1183.625122,374.073914 1174.515137,375.575531 1164.682373,377.608063 
	C1163.075195,371.445679 1161.426758,365.423096 1159.936646,359.361572 
	C1152.598633,329.512360 1139.832031,302.310974 1119.694458,278.953674 
	C1104.995239,261.904266 1087.237061,248.471649 1067.453857,237.772278 
	C1043.082764,224.591721 1017.354248,214.655609 991.089172,205.991058 
	C969.541016,198.882553 948.712830,190.193512 928.933960,176.079788 
z"/>
<path fill="#B6AB97" opacity="1.000000" stroke="none" 
	d="
M5.310597,821.812927 
	C5.919446,832.986267 6.008095,844.238953 5.710568,855.481384 
	C5.639098,858.182068 4.285346,860.848694 2.760655,863.765503 
	C2.000000,853.290161 2.000000,842.580261 2.561227,830.642273 
	C2.748304,827.609436 2.374155,825.804688 2.000002,824.000000 
	C2.000000,824.000000 2.000000,823.000000 2.000000,822.500000 
	C2.882910,821.962830 3.765822,821.925659 5.310597,821.812927 
z"/>
<path fill="#B6AB97" opacity="1.000000" stroke="none" 
	d="
M1650.000000,837.200012 
	C1649.736694,835.671509 1649.473267,833.343079 1649.604980,830.507324 
	C1650.000000,832.133362 1650.000000,834.266663 1650.000000,837.200012 
z"/>
<path fill="#E3D6BB" opacity="1.000000" stroke="none" 
	d="
M2.000002,824.750000 
	C2.374155,825.804688 2.748304,827.609436 2.561227,829.707031 
	C2.000000,828.500000 2.000000,827.000000 2.000002,824.750000 
z"/>
<path fill="#E0E2E4" opacity="1.000000" stroke="none" 
	d="
M38.003647,662.002441 
	C36.651726,666.383240 35.292847,670.761841 33.949242,675.145203 
	C30.650631,685.906677 27.375784,696.675476 24.043304,707.426453 
	C23.629259,708.762207 22.924271,710.007751 21.531927,710.987366 
	C24.214891,694.081787 28.265146,677.654846 37.355484,662.300903 
	C37.999992,662.000000 38.003651,662.002441 38.003647,662.002441 
z"/>
<path fill="#E0E2E4" opacity="1.000000" stroke="none" 
	d="
M1158.004883,253.993256 
	C1159.013794,254.820145 1160.600342,255.456863 1160.944702,256.502594 
	C1165.808716,271.274231 1170.539673,286.090363 1175.129272,300.949402 
	C1175.347412,301.655609 1173.950439,302.860657 1172.609619,303.936646 
	C1171.913696,304.039886 1171.998291,303.994293 1171.980835,304.038757 
	C1170.965332,289.255341 1164.755005,275.908234 1160.056519,262.130524 
	C1159.313354,259.951874 1158.666260,257.740509 1157.987305,254.772141 
	C1158.000000,254.000000 1158.004883,253.993271 1158.004883,253.993256 
z"/>
<path fill="#D9DCDE" opacity="1.000000" stroke="none" 
	d="
M1627.978394,676.005859 
	C1635.434082,694.004761 1639.383057,712.835938 1640.996216,732.237854 
	C1636.048584,713.997253 1631.100952,695.756653 1626.575439,676.755493 
	C1626.997681,675.994934 1627.978394,676.005859 1627.978394,676.005859 
z"/>
<path fill="#D9DCDE" opacity="1.000000" stroke="none" 
	d="
M622.036072,150.036087 
	C622.435974,149.533569 622.736572,148.752518 623.250366,148.569168 
	C636.957581,143.677536 650.686707,138.847412 665.204102,134.001450 
	C665.996033,133.996033 665.963501,133.963501 665.963501,133.963501 
	C664.948975,134.780457 664.059326,135.952286 662.900818,136.360046 
	C649.802002,140.970291 636.662048,145.463425 622.768738,149.996216 
	C622.004395,150.004486 622.036072,150.036087 622.036072,150.036087 
z"/>
<path fill="#D9DCDE" opacity="1.000000" stroke="none" 
	d="
M611.971191,153.971054 
	C601.168335,159.784515 590.365479,165.597992 579.562683,171.411469 
	C579.231750,170.759003 578.900879,170.106537 578.569946,169.454056 
	C588.302979,162.529663 598.976257,157.454803 611.244873,154.017227 
	C611.997742,153.997559 611.971191,153.971069 611.971191,153.971054 
z"/>
<path fill="#D9DCDE" opacity="1.000000" stroke="none" 
	d="
M233.988129,426.001953 
	C230.675186,437.555054 227.362244,449.108154 224.049316,460.661285 
	C222.996201,448.635712 227.771286,438.135895 232.218658,426.675842 
	C233.003967,425.993988 233.988129,426.001953 233.988129,426.001953 
z"/>
<path fill="#D9DCDE" opacity="1.000000" stroke="none" 
	d="
M1429.957275,434.011749 
	C1433.912231,443.260406 1436.175537,452.879608 1435.391113,463.245117 
	C1432.925049,454.023193 1430.458984,444.801270 1428.475586,434.789368 
	C1428.958008,433.999329 1429.957275,434.011749 1429.957275,434.011749 
z"/>
<path fill="#E0E2E4" opacity="1.000000" stroke="none" 
	d="
M1130.027832,209.971222 
	C1122.193970,208.077286 1119.285522,200.933289 1112.422119,195.170532 
	C1120.485229,196.641281 1123.964966,199.651306 1129.898193,209.322937 
	C1130.002197,209.998184 1130.027832,209.971222 1130.027832,209.971222 
z"/>
<path fill="#D9DCDE" opacity="1.000000" stroke="none" 
	d="
M666.008301,134.014069 
	C674.170105,130.702377 682.319702,127.372658 691.233521,124.020432 
	C691.997742,123.997932 691.967407,123.967926 691.967407,123.967926 
	C684.906067,129.955246 676.048401,131.566406 666.745850,133.981567 
	C665.963501,133.963501 665.996033,133.996033 666.008301,134.014069 
z"/>
<path fill="#E0E2E4" opacity="1.000000" stroke="none" 
	d="
M1429.876465,433.272217 
	C1429.957275,434.011749 1428.958008,433.999329 1428.458008,434.001221 
	C1425.294556,427.181641 1422.631104,420.360168 1419.983765,412.769348 
	C1420.000000,411.999969 1420.009766,411.989624 1420.009766,411.989624 
	C1425.927734,417.572083 1427.096313,425.416931 1429.876465,433.272217 
z"/>
<path fill="#D9DCDE" opacity="1.000000" stroke="none" 
	d="
M751.963196,83.965454 
	C750.598938,90.846863 744.268372,91.876709 739.233948,94.465302 
	C742.399719,90.346237 745.705383,86.393494 751.322266,84.102127 
	C751.996887,83.997200 751.963196,83.965454 751.963196,83.965454 
z"/>
<path fill="#D9DCDE" opacity="1.000000" stroke="none" 
	d="
M542.188171,198.679596 
	C538.423096,202.484207 535.089905,205.806717 531.756653,209.129227 
	C531.271057,208.646545 530.785522,208.163864 530.299927,207.681183 
	C533.318115,202.557449 538.159119,199.031219 543.792419,193.287888 
	C543.083130,196.258163 542.851562,197.227829 542.188171,198.679596 
z"/>
<path fill="#D9DCDE" opacity="1.000000" stroke="none" 
	d="
M1435.994019,480.029266 
	C1435.985840,475.914001 1435.985840,471.763947 1435.985840,467.613922 
	C1437.642578,471.601288 1442.988525,475.284668 1436.655762,479.882416 
	C1435.934937,480.021393 1436.002197,479.994476 1435.994019,480.029266 
z"/>
<path fill="#D9DCDE" opacity="1.000000" stroke="none" 
	d="
M569.744263,174.046387 
	C571.492432,173.312439 572.649353,172.811325 573.806213,172.310196 
	C574.134338,172.815948 574.462463,173.321701 574.790588,173.827438 
	C571.852478,175.853821 568.914429,177.880203 565.976318,179.906586 
	C565.512085,179.307159 565.047852,178.707718 564.583557,178.108276 
	C566.106689,176.831924 567.629822,175.555557 569.744263,174.046387 
z"/>
<path fill="#D9DCDE" opacity="1.000000" stroke="none" 
	d="
M692.010010,124.014442 
	C694.200562,119.941429 697.822083,118.595306 703.523621,117.977486 
	C700.589966,122.627533 697.101746,123.450859 692.696411,123.964920 
	C691.967407,123.967926 691.997742,123.997932 692.010010,124.014442 
z"/>
<path fill="#E0E2E4" opacity="1.000000" stroke="none" 
	d="
M53.964233,633.970825 
	C54.583782,629.618774 56.048538,625.833069 61.287033,624.048584 
	C61.996151,623.996338 62.029705,624.021851 62.029709,624.021851 
	C59.756374,627.159912 57.483040,630.297974 54.604233,633.717407 
	C53.998760,633.998840 53.964233,633.970825 53.964233,633.970825 
z"/>
<path fill="#D9DCDE" opacity="1.000000" stroke="none" 
	d="
M859.814209,40.667389 
	C859.143677,39.383202 858.879639,38.556713 857.960938,35.681080 
	C861.957214,40.124020 864.587891,43.048698 867.752319,46.566822 
	C863.883057,46.056740 862.452637,42.958538 859.814209,40.667389 
z"/>
<path fill="#D9DCDE" opacity="1.000000" stroke="none" 
	d="
M723.761108,104.175285 
	C725.170471,103.677856 726.026306,103.454201 727.662903,103.026512 
	C726.358521,107.710861 722.885864,108.281891 719.000549,108.675049 
	C720.402893,107.266388 721.805176,105.857719 723.761108,104.175285 
z"/>
<path fill="#E0E2E4" opacity="1.000000" stroke="none" 
	d="
M1371.794189,340.723450 
	C1373.788818,343.000641 1375.343872,344.845520 1376.898926,346.690369 
	C1376.401611,347.122803 1375.904297,347.555237 1375.406982,347.987640 
	C1372.928589,345.511200 1370.450195,343.034729 1367.971802,340.558289 
	C1368.323608,340.144043 1368.675537,339.729797 1369.027466,339.315552 
	C1369.803223,339.640747 1370.578857,339.965942 1371.794189,340.723450 
z"/>
<path fill="#D4D0C8" opacity="1.000000" stroke="none" 
	d="
M371.912598,305.374390 
	C370.457336,305.057617 369.672089,304.644012 368.886871,304.230377 
	C368.870178,303.713684 368.853485,303.196960 368.836823,302.680237 
	C371.984253,302.415527 375.131683,302.150818 378.279144,301.886078 
	C378.371857,302.286835 378.464569,302.687561 378.557281,303.088287 
	C376.565735,303.818054 374.574188,304.547791 371.912598,305.374390 
z"/>
<path fill="#D9DCDE" opacity="1.000000" stroke="none" 
	d="
M1582.977539,609.643188 
	C1582.781250,608.565613 1582.911865,607.990723 1583.042480,607.415833 
	C1586.688477,608.337830 1588.427856,610.918945 1588.667969,614.949341 
	C1586.880005,613.348145 1585.092041,611.746948 1582.977539,609.643188 
z"/>
<path fill="#D9DCDE" opacity="1.000000" stroke="none" 
	d="
M714.723938,113.142517 
	C712.882019,114.327835 711.447815,115.064598 710.013672,115.801361 
	C709.679993,115.333893 709.346252,114.866425 709.012573,114.398956 
	C710.651367,113.147003 712.290100,111.895050 713.928894,110.643097 
	C714.329834,111.326721 714.730774,112.010345 714.723938,113.142517 
z"/>
<path fill="#D9DCDE" opacity="1.000000" stroke="none" 
	d="
M1606.034668,635.965576 
	C1610.151489,636.242676 1610.746704,639.659363 1611.953247,643.287842 
	C1611.989624,644.012085 1611.906860,644.088074 1611.906860,644.088074 
	C1609.972534,641.833679 1608.038330,639.579285 1606.054199,636.660400 
	C1606.004272,635.995972 1606.034668,635.965576 1606.034668,635.965576 
z"/>
<path fill="#D9DCDE" opacity="1.000000" stroke="none" 
	d="
M1612.032837,643.976135 
	C1613.804443,645.990417 1615.532837,648.040649 1617.261108,650.090881 
	C1612.930542,650.740967 1612.086670,648.376099 1611.901123,644.764404 
	C1611.906860,644.088074 1611.989624,644.012085 1612.032837,643.976135 
z"/>
<path fill="#E0E2E4" opacity="1.000000" stroke="none" 
	d="
M1381.743286,351.001953 
	C1383.472534,352.705200 1384.720215,354.083740 1385.967773,355.462250 
	C1382.465088,355.571777 1380.229370,354.243866 1379.570801,351.006073 
	C1379.549438,350.901764 1380.034058,350.604706 1380.311523,350.553772 
	C1380.610596,350.498932 1380.943481,350.628265 1381.743286,351.001953 
z"/>
<path fill="#E0E2E4" opacity="1.000000" stroke="none" 
	d="
M246.027313,398.020844 
	C246.911011,395.521057 247.794693,393.021301 249.344498,390.261810 
	C250.010620,390.002106 250.117126,390.094604 250.117126,390.094604 
	C249.144241,392.518036 248.171341,394.941498 246.599350,397.682465 
	C246.000244,398.000000 246.027328,398.020844 246.027313,398.020844 
z"/>
<path fill="#E0E2E4" opacity="1.000000" stroke="none" 
	d="
M1621.709961,661.462830 
	C1622.819702,663.216187 1623.375610,664.770081 1624.420898,667.692627 
	C1620.462524,665.541931 1619.286499,663.979431 1621.709961,661.462830 
z"/>
<path fill="#E0E2E4" opacity="1.000000" stroke="none" 
	d="
M239.312927,414.997803 
	C238.284164,415.844147 237.536331,416.157593 236.788513,416.471008 
	C237.128601,414.853973 237.445984,413.231354 237.842850,411.628387 
	C237.883774,411.463104 238.398727,411.415131 239.280106,411.109222 
	C239.393875,412.325928 239.493881,413.395416 239.312927,414.997803 
z"/>
<path fill="#D4D0C8" opacity="1.000000" stroke="none" 
	d="
M1062.100098,160.543106 
	C1064.562988,160.845871 1066.596680,161.530960 1068.630249,162.216034 
	C1068.387817,162.851791 1068.145508,163.487549 1067.903076,164.123322 
	C1065.825684,163.057358 1063.748169,161.991394 1062.100098,160.543106 
z"/>
<path fill="#D9DCDE" opacity="1.000000" stroke="none" 
	d="
M621.992798,149.987061 
	C619.121521,151.316940 616.261841,152.664261 612.686646,153.991333 
	C611.971191,153.971069 611.997742,153.997559 612.007690,154.012085 
	C614.876709,152.684326 617.735779,151.342041 621.315491,150.017914 
	C622.036072,150.036087 622.004395,150.004486 621.992798,149.987061 
z"/>
<path fill="#D9DCDE" opacity="1.000000" stroke="none" 
	d="
M752.010132,84.015297 
	C753.384888,82.307274 754.746338,80.581154 756.383972,78.504913 
	C758.348022,82.803589 755.236206,82.947144 752.603516,83.919083 
	C751.963196,83.965454 751.996887,83.997200 752.010132,84.015297 
z"/>
<path fill="#E0E2E4" opacity="1.000000" stroke="none" 
	d="
M44.006115,650.004089 
	C44.849823,648.042053 45.693531,646.080017 47.263229,644.053101 
	C47.989216,643.988220 48.059357,644.041992 48.059353,644.041992 
	C47.089314,645.840820 46.119274,647.639709 44.574600,649.719238 
	C43.999962,650.000000 44.006115,650.004089 44.006115,650.004089 
z"/>
<path fill="#E0E2E4" opacity="1.000000" stroke="none" 
	d="
M1397.982788,374.021973 
	C1396.675659,372.456757 1395.368530,370.891541 1394.038330,368.654602 
	C1394.015137,367.982849 1394.100342,367.902313 1394.100342,367.902283 
	C1395.404175,369.459656 1396.708008,371.017059 1398.006348,373.286865 
	C1398.000732,373.999298 1397.982788,374.021973 1397.982788,374.021973 
z"/>
<path fill="#E0E2E4" opacity="1.000000" stroke="none" 
	d="
M1402.058838,379.926514 
	C1405.052734,380.058533 1406.036133,381.885468 1405.992676,385.292084 
	C1406.000000,386.000000 1406.000000,386.001221 1406.000000,386.001221 
	C1404.687988,384.440948 1403.375854,382.880676 1402.033325,380.656799 
	C1402.002808,379.993256 1402.058838,379.926514 1402.058838,379.926514 
z"/>
<path fill="#E0E2E4" opacity="1.000000" stroke="none" 
	d="
M1412.004883,395.996338 
	C1411.452759,395.673187 1410.711182,395.478180 1410.388184,395.000153 
	C1409.715576,394.005402 1409.207886,392.881744 1408.791382,391.752472 
	C1408.736816,391.604584 1409.616211,391.112244 1410.063110,390.779480 
	C1410.717285,392.076843 1411.371460,393.374176 1412.012939,395.335754 
	C1412.000000,396.000000 1412.004883,395.996338 1412.004883,395.996338 
z"/>
<path fill="#E0E2E4" opacity="1.000000" stroke="none" 
	d="
M1139.982544,224.022827 
	C1138.765625,222.581543 1137.548584,221.140274 1136.331665,219.698990 
	C1136.899292,219.324661 1137.467041,218.950333 1138.034790,218.576004 
	C1138.697998,219.934586 1139.361328,221.293167 1140.012695,223.325531 
	C1140.000732,223.999283 1139.982544,224.022827 1139.982544,224.022827 
z"/>
<path fill="#D9DCDE" opacity="1.000000" stroke="none" 
	d="
M731.848511,100.820679 
	C732.143494,99.586609 732.962952,98.207687 733.782410,96.828758 
	C734.318420,97.244766 734.854370,97.660774 735.390381,98.076775 
	C734.384583,98.943123 733.378784,99.809471 731.848511,100.820679 
z"/>
<path fill="#E0E2E4" opacity="1.000000" stroke="none" 
	d="
M61.980156,623.980347 
	C62.595989,622.291199 63.227814,620.618164 63.859634,618.945068 
	C64.358734,619.168335 64.857826,619.391602 65.356926,619.614868 
	C64.607948,620.913696 63.858974,622.212585 62.569855,623.766602 
	C62.029705,624.021851 61.996151,623.996338 61.980156,623.980347 
z"/>
<path fill="#E0E2E4" opacity="1.000000" stroke="none" 
	d="
M1129.987793,210.008713 
	C1131.318604,211.207138 1132.663940,212.395035 1134.009155,213.582932 
	C1133.602173,213.984497 1133.195068,214.386047 1132.788086,214.787613 
	C1131.882568,213.590546 1130.976929,212.393478 1130.049561,210.583817 
	C1130.027832,209.971222 1130.002197,209.998184 1129.987793,210.008713 
z"/>
<path fill="#D9DCDE" opacity="1.000000" stroke="none" 
	d="
M1602.014648,629.985596 
	C1605.053467,630.016479 1605.958374,631.917114 1606.027222,635.261169 
	C1606.034668,635.965576 1606.004272,635.995972 1605.988403,636.007690 
	C1604.768188,634.408569 1603.563843,632.797729 1602.179688,630.593323 
	C1602.000000,629.999695 1602.014648,629.985596 1602.014648,629.985596 
z"/>
<path fill="#D9DCDE" opacity="1.000000" stroke="none" 
	d="
M547.987793,191.989685 
	C548.790100,190.904694 549.592468,189.819687 550.394836,188.734680 
	C550.619507,188.935684 551.060181,189.282318 551.037231,189.316376 
	C550.446167,190.193176 549.806641,191.037384 548.587769,191.943634 
	C548.000000,192.000000 547.987793,191.989700 547.987793,191.989685 
z"/>
<path fill="#E0E2E4" opacity="1.000000" stroke="none" 
	d="
M251.961365,387.969208 
	C252.045990,386.668640 252.130630,385.368042 252.215271,384.067474 
	C252.534698,384.073883 252.854126,384.080322 253.173553,384.086731 
	C253.107742,385.179413 253.041946,386.272095 252.487015,387.681610 
	C251.997894,387.998444 251.961365,387.969208 251.961365,387.969208 
z"/>
<path fill="#D9DCDE" opacity="1.000000" stroke="none" 
	d="
M1601.993164,630.004395 
	C1601.118286,629.164429 1600.250488,628.319763 1599.382568,627.474976 
	C1599.776733,627.186401 1600.171021,626.897827 1600.565308,626.609253 
	C1601.019165,627.361328 1601.473022,628.113281 1601.970825,629.425415 
	C1602.014648,629.985596 1602.000000,629.999695 1601.993164,630.004395 
z"/>
<path fill="#E0E2E4" opacity="1.000000" stroke="none" 
	d="
M1391.853394,364.141510 
	C1390.973022,363.291412 1390.092529,362.441315 1389.212158,361.591187 
	C1389.583008,361.285706 1389.953979,360.980286 1390.324951,360.674866 
	C1390.877808,361.385071 1391.430786,362.095276 1391.983765,363.412903 
	C1391.983765,364.020325 1391.853394,364.141510 1391.853394,364.141510 
z"/>
<path fill="#D9DCDE" opacity="1.000000" stroke="none" 
	d="
M557.977478,183.978241 
	C558.832031,182.998825 559.686646,182.019409 560.541260,181.039993 
	C560.863281,181.385986 561.185303,181.731979 561.507263,182.077988 
	C560.707764,182.701965 559.908264,183.325958 558.553833,183.974426 
	C557.998962,183.998901 557.977478,183.978256 557.977478,183.978241 
z"/>
<path fill="#D9DCDE" opacity="1.000000" stroke="none" 
	d="
M558.007080,184.009521 
	C557.191040,184.890320 556.367004,185.760498 555.542908,186.630676 
	C555.253662,186.257462 554.964355,185.884247 554.675110,185.511032 
	C555.409180,185.033051 556.143188,184.555084 557.427368,184.027679 
	C557.977478,183.978256 557.998962,183.998901 558.007080,184.009521 
z"/>
<path fill="#E0E2E4" opacity="1.000000" stroke="none" 
	d="
M42.017944,654.012085 
	C42.337910,652.882874 42.657875,651.753662 43.491978,650.314270 
	C44.006115,650.004089 43.999962,650.000000 43.996880,649.996643 
	C43.654621,651.104858 43.315449,652.216431 42.487808,653.663696 
	C41.999348,653.999390 42.017944,654.012085 42.017944,654.012085 
z"/>
<path fill="#E0E2E4" opacity="1.000000" stroke="none" 
	d="
M49.868843,639.899902 
	C50.205418,638.772644 50.542004,637.645386 51.446724,636.260620 
	C52.014854,636.003174 52.173473,636.145203 52.173477,636.145203 
	C51.800320,637.231323 51.427155,638.317505 50.526424,639.703979 
	C49.998856,640.004395 49.868847,639.899902 49.868843,639.899902 
z"/>
<path fill="#E0E2E4" opacity="1.000000" stroke="none" 
	d="
M47.957195,643.957520 
	C48.227966,642.788269 48.530758,641.649658 49.351196,640.205505 
	C49.868847,639.899902 49.998856,640.004395 50.062183,640.062256 
	C49.757427,641.203064 49.389343,642.285950 48.540306,643.705444 
	C48.059357,644.041992 47.989216,643.988220 47.957195,643.957520 
z"/>
<path fill="#E0E2E4" opacity="1.000000" stroke="none" 
	d="
M1626.000000,674.002441 
	C1625.491455,673.367493 1624.983032,672.732483 1624.474487,672.097534 
	C1624.797363,671.850952 1625.120117,671.604370 1625.442871,671.357788 
	C1625.621216,671.890076 1625.799561,672.422302 1625.988892,673.477295 
	C1626.000000,674.000000 1626.000000,674.002441 1626.000000,674.002441 
z"/>
<path fill="#E0E2E4" opacity="1.000000" stroke="none" 
	d="
M40.015099,658.010315 
	C40.341053,656.885010 40.667004,655.759644 41.505447,654.323242 
	C42.017944,654.012085 41.999348,653.999390 41.990410,653.990234 
	C41.646530,655.095825 41.311588,656.210632 40.488125,657.662598 
	C39.999607,657.999817 40.015102,658.010315 40.015099,658.010315 
z"/>
<path fill="#E0E2E4" opacity="1.000000" stroke="none" 
	d="
M233.994171,423.995422 
	C234.350388,423.105072 234.706604,422.214722 235.062851,421.324402 
	C235.001328,422.034668 234.939789,422.744934 234.439133,423.727600 
	C234.000000,424.000000 233.994186,423.995422 233.994171,423.995422 
z"/>
<path fill="#E0E2E4" opacity="1.000000" stroke="none" 
	d="
M1417.985352,408.015442 
	C1418.639526,408.939575 1419.293701,409.863708 1419.978760,411.388733 
	C1420.009766,411.989624 1420.000000,411.999969 1419.995117,412.003052 
	C1419.352173,411.066376 1418.714111,410.126556 1418.038086,408.593597 
	C1418.000000,408.000458 1417.985352,408.015411 1417.985352,408.015442 
z"/>
<path fill="#E0E2E4" opacity="1.000000" stroke="none" 
	d="
M1418.006714,407.995605 
	C1417.371826,407.054565 1416.730225,406.118408 1416.043579,404.591797 
	C1415.998657,404.001343 1415.978760,404.021576 1415.978760,404.021606 
	C1416.628784,404.951141 1417.278809,405.880707 1417.957031,407.412842 
	C1417.985352,408.015411 1418.000000,408.000458 1418.006714,407.995605 
z"/>
<path fill="#E0E2E4" opacity="1.000000" stroke="none" 
	d="
M1413.981689,400.018860 
	C1414.629150,400.950928 1415.276611,401.882935 1415.951416,403.418274 
	C1415.978760,404.021576 1415.998657,404.001343 1416.008911,403.994324 
	C1415.375366,403.052612 1414.731567,402.117920 1414.043457,400.592102 
	C1413.998901,400.000946 1413.981689,400.018860 1413.981689,400.018860 
z"/>
<path fill="#E0E2E4" opacity="1.000000" stroke="none" 
	d="
M37.997887,661.997559 
	C38.325249,660.871033 38.654716,659.746948 39.499641,658.316589 
	C40.015102,658.010315 39.999607,657.999817 39.992073,657.992065 
	C39.654106,659.101868 39.323677,660.219482 38.498451,661.669800 
	C38.003651,662.002441 37.999992,662.000000 37.997887,661.997559 
z"/>
<path fill="#E0E2E4" opacity="1.000000" stroke="none" 
	d="
M1411.997559,396.001190 
	C1412.640869,396.938110 1413.286621,397.873840 1413.957031,399.414215 
	C1413.981689,400.018860 1413.998901,400.000946 1414.007812,399.994843 
	C1413.368896,399.056396 1412.720947,398.124023 1412.038940,396.593994 
	C1412.004883,395.996338 1412.000000,396.000000 1411.997559,396.001190 
z"/>
<path fill="#E0E2E4" opacity="1.000000" stroke="none" 
	d="
M1392.052734,363.964020 
	C1392.751953,364.846283 1393.382080,365.784882 1394.056274,367.312866 
	C1394.100342,367.902313 1394.015137,367.982849 1393.968506,368.020294 
	C1393.276489,367.138672 1392.631226,366.219574 1391.919678,364.721008 
	C1391.853394,364.141510 1391.983765,364.020325 1392.052734,363.964020 
z"/>
<path fill="#E0E2E4" opacity="1.000000" stroke="none" 
	d="
M1157.997559,254.002014 
	C1157.355713,253.064972 1156.716431,252.125900 1156.038574,250.593658 
	C1156.000000,250.000473 1155.985352,250.015427 1155.985352,250.015442 
	C1156.638672,250.940567 1157.291870,251.865707 1157.975098,253.392059 
	C1158.004883,253.993271 1158.000000,254.000000 1157.997559,254.002014 
z"/>
<path fill="#E0E2E4" opacity="1.000000" stroke="none" 
	d="
M1156.006714,249.995605 
	C1155.369507,249.055832 1154.725586,248.120926 1154.040771,246.593231 
	C1154.000000,246.000473 1153.985352,246.015381 1153.985352,246.015381 
	C1154.634155,246.946442 1155.283081,247.877502 1155.958618,249.411987 
	C1155.985352,250.015427 1156.000000,250.000473 1156.006714,249.995605 
z"/>
<path fill="#E0E2E4" opacity="1.000000" stroke="none" 
	d="
M1154.006714,245.995575 
	C1153.354858,245.074265 1152.696289,244.157837 1152.023926,242.614487 
	C1152.010132,241.987564 1152.095093,241.908371 1152.095093,241.908371 
	C1152.710693,242.874557 1153.326416,243.840744 1153.963623,245.411148 
	C1153.985352,246.015381 1154.000000,246.000473 1154.006714,245.995575 
z"/>
<path fill="#E0E2E4" opacity="1.000000" stroke="none" 
	d="
M1151.964844,242.023865 
	C1151.264282,241.129913 1150.608765,240.199661 1149.974121,238.634857 
	C1149.994995,238.000305 1150.059570,237.925980 1150.059570,237.925980 
	C1150.718384,238.853958 1151.377319,239.781952 1152.065674,241.309158 
	C1152.095093,241.908371 1152.010132,241.987564 1151.964844,242.023865 
z"/>
<path fill="#E0E2E4" opacity="1.000000" stroke="none" 
	d="
M1144.155884,227.815460 
	C1144.556030,228.702942 1144.956177,229.590439 1145.356201,230.477921 
	C1144.863037,230.055145 1144.369873,229.632385 1143.928467,228.607880 
	C1143.980469,228.006149 1144.155884,227.815475 1144.155884,227.815460 
z"/>
<path fill="#E0E2E4" opacity="1.000000" stroke="none" 
	d="
M1627.798096,675.541809 
	C1627.978394,676.005859 1626.997681,675.994934 1626.507568,675.999451 
	C1626.004028,675.670410 1625.990845,675.336914 1625.988770,674.502930 
	C1626.000000,674.002441 1626.000000,674.000000 1626.000000,674.000000 
	C1626.697266,674.122131 1627.236450,674.481384 1627.798096,675.541809 
z"/>
<path fill="#E0E2E4" opacity="1.000000" stroke="none" 
	d="
M51.942696,635.924927 
	C52.092701,635.204834 52.482639,634.690186 53.502289,634.136719 
	C53.964233,633.970825 53.998760,633.998840 54.013092,634.016174 
	C53.902985,634.708130 53.572426,635.258911 52.604614,635.915588 
	C52.173473,636.145203 52.014854,636.003174 51.942696,635.924927 
z"/>
<path fill="#D9DCDE" opacity="1.000000" stroke="none" 
	d="
M1596.099243,621.880859 
	C1596.357544,622.262390 1596.615845,622.643860 1596.874146,623.025391 
	C1596.638794,622.933167 1596.403320,622.840881 1596.084717,622.369690 
	C1596.001465,621.990723 1596.099243,621.880859 1596.099243,621.880859 
z"/>
<path fill="#D9DCDE" opacity="1.000000" stroke="none" 
	d="
M1595.947021,622.040039 
	C1595.226562,621.904724 1594.702026,621.524902 1594.159424,620.474548 
	C1594.000122,619.999207 1594.024414,619.968140 1594.024414,619.968140 
	C1594.723267,620.066833 1595.277954,620.403259 1595.893799,621.429199 
	C1596.099243,621.880859 1596.001465,621.990723 1595.947021,622.040039 
z"/>
<path fill="#D9DCDE" opacity="1.000000" stroke="none" 
	d="
M1593.985352,620.011414 
	C1593.720825,619.705933 1593.470947,619.388245 1593.221069,619.070557 
	C1593.416748,619.169312 1593.612427,619.268066 1593.916260,619.667480 
	C1594.024414,619.968140 1594.000122,619.999207 1593.985352,620.011414 
z"/>
<path fill="#E0E2E4" opacity="1.000000" stroke="none" 
	d="
M234.008575,425.503113 
	C233.988129,426.001953 233.003967,425.993988 232.512100,425.999664 
	C232.149155,425.316406 232.498184,424.767395 233.530746,424.176880 
	C233.994186,423.995422 234.000000,424.000000 234.002747,424.003052 
	C234.005493,424.006104 234.029007,425.004303 234.008575,425.503113 
z"/>
<path fill="#E0E2E4" opacity="1.000000" stroke="none" 
	d="
M245.989899,397.986511 
	C245.812317,398.053070 245.645111,398.133118 245.752609,398.117004 
	C246.027328,398.020844 246.000244,398.000000 245.989899,397.986511 
z"/>
<path fill="#E0E2E4" opacity="1.000000" stroke="none" 
	d="
M252.012268,388.015961 
	C251.853760,388.685364 251.503815,389.221680 250.546967,389.868500 
	C250.117126,390.094604 250.010620,390.002106 249.962219,389.948364 
	C250.139938,389.261871 250.521225,388.743134 251.509521,388.153809 
	C251.961365,387.969208 251.997894,387.998444 252.012268,388.015961 
z"/>
<path fill="#E0E2E4" opacity="1.000000" stroke="none" 
	d="
M1406.000000,385.999847 
	C1406.274292,386.325226 1406.548584,386.650757 1406.822876,386.976318 
	C1406.617188,386.868469 1406.411621,386.760651 1406.103027,386.327026 
	C1406.000000,386.001221 1406.000000,386.000000 1406.000000,385.999847 
z"/>
<path fill="#E0E2E4" opacity="1.000000" stroke="none" 
	d="
M1401.969971,380.021759 
	C1401.706055,379.720764 1401.474976,379.391266 1401.243896,379.061768 
	C1401.435791,379.157959 1401.627563,379.254150 1401.939209,379.638428 
	C1402.058838,379.926514 1402.002808,379.993256 1401.969971,380.021759 
z"/>
<path fill="#E0E2E4" opacity="1.000000" stroke="none" 
	d="
M1398.012817,373.989624 
	C1398.296021,374.300446 1398.567017,374.620911 1398.838013,374.941437 
	C1398.630371,374.843781 1398.422607,374.746094 1398.098877,374.335205 
	C1397.982788,374.021973 1398.000732,373.999298 1398.012817,373.989624 
z"/>
<path fill="#E0E2E4" opacity="1.000000" stroke="none" 
	d="
M1148.019531,235.977371 
	C1148.701050,236.112625 1149.234253,236.469604 1149.839233,237.487152 
	C1150.059570,237.925980 1149.994995,238.000305 1149.956543,238.033310 
	C1149.263672,237.869110 1148.748901,237.485031 1148.187012,236.456558 
	C1148.000732,235.999039 1148.019531,235.977371 1148.019531,235.977371 
z"/>
<path fill="#E0E2E4" opacity="1.000000" stroke="none" 
	d="
M1147.990601,236.007324 
	C1147.739380,235.700699 1147.498291,235.385788 1147.257202,235.070862 
	C1147.443481,235.174622 1147.629883,235.278412 1147.917847,235.679779 
	C1148.019531,235.977371 1148.000732,235.999039 1147.990601,236.007324 
z"/>
<path fill="#E0E2E4" opacity="1.000000" stroke="none" 
	d="
M1143.885010,228.093597 
	C1143.153931,227.948715 1142.649170,227.550552 1142.138184,226.488556 
	C1142.001343,225.990555 1142.089233,225.889618 1142.089233,225.889618 
	C1142.765381,226.031082 1143.298706,226.386765 1143.922485,227.386078 
	C1144.155884,227.815475 1143.980469,228.006149 1143.885010,228.093597 
z"/>
<path fill="#E0E2E4" opacity="1.000000" stroke="none" 
	d="
M1140.013184,223.989365 
	C1140.704468,224.108414 1141.246094,224.453140 1141.869629,225.451630 
	C1142.089233,225.889618 1142.001343,225.990555 1141.950317,226.036377 
	C1141.260498,225.863220 1140.750000,225.475342 1140.175293,224.470703 
	C1139.982544,224.022827 1140.000732,223.999283 1140.013184,223.989365 
z"/>
<path fill="#D9DCDE" opacity="1.000000" stroke="none" 
	d="
M548.004944,192.006226 
	C547.810425,192.074860 547.610901,192.137253 547.699585,192.094666 
	C547.987793,191.989700 548.000000,192.000000 548.004944,192.006226 
z"/>
<path fill="#A3C9D6" opacity="1.000000" stroke="none" 
	d="
M929.475098,176.559875 
	C948.712830,190.193512 969.541016,198.882553 991.089172,205.991058 
	C1017.354248,214.655609 1043.082764,224.591721 1067.453857,237.772278 
	C1087.237061,248.471649 1104.995239,261.904266 1119.694458,278.953674 
	C1139.832031,302.310974 1152.598633,329.512360 1159.936646,359.361572 
	C1161.426758,365.423096 1163.075195,371.445679 1164.682373,377.608063 
	C1174.515137,375.575531 1183.625122,374.073914 1192.528076,371.770935 
	C1209.844727,367.291443 1227.469971,368.238525 1245.065552,367.817810 
	C1278.673706,367.014160 1309.547852,375.824738 1337.605469,394.013458 
	C1353.942383,404.604034 1367.189087,418.630249 1378.339844,434.617157 
	C1397.216919,461.681732 1410.724976,491.036621 1416.866699,523.623352 
	C1422.656738,554.343811 1420.820923,584.373413 1409.259155,613.611450 
	C1408.174683,616.353760 1407.324463,619.188660 1406.299438,622.173218 
	C1407.462769,622.842957 1408.294189,623.752197 1409.022705,623.676086 
	C1418.885986,622.645447 1428.715454,620.833862 1438.593384,620.531982 
	C1447.824463,620.249756 1457.191895,620.925110 1466.343262,622.253601 
	C1486.157471,625.130188 1505.355957,630.433777 1523.236938,639.706787 
	C1559.288818,658.403137 1584.447632,687.084961 1599.771118,724.446411 
	C1609.910522,749.168335 1614.941406,775.108093 1618.352417,801.585083 
	C1621.294678,824.423401 1622.078369,847.230469 1622.077637,870.166443 
	C1622.051880,1585.756348 1622.058716,2301.346436 1622.060425,3016.936279 
	C1622.060425,3020.829102 1622.060425,3024.721680 1622.060425,3029.253418 
	C1091.694458,3029.253418 562.608032,3029.253418 32.859558,3029.253418 
	C32.535755,3026.420410 32.127480,3023.885742 31.987259,3021.335938 
	C31.841095,3018.677490 31.952785,3016.004883 31.952785,3013.338623 
	C31.952732,2303.081543 31.952217,1592.824219 31.956505,882.567078 
	C31.956581,869.901855 31.585285,857.218384 32.122368,844.574707 
	C33.875206,803.310486 38.374378,762.346497 54.522266,723.911621 
	C73.166466,679.534851 104.410065,647.527832 150.702576,631.441528 
	C166.170609,626.066528 181.928925,623.182922 198.264893,621.556519 
	C213.371048,620.052612 227.917221,621.889343 242.652649,623.718750 
	C243.625824,623.839600 244.659744,623.777649 245.620239,623.580505 
	C246.210495,623.459351 246.714767,622.919250 247.729477,622.261230 
	C247.301849,620.576111 247.073120,618.625977 246.327896,616.898682 
	C237.787415,597.103271 234.059937,576.319824 234.110764,554.893433 
	C234.174713,527.942932 240.300140,502.157257 251.368011,477.711670 
	C263.098511,451.802490 277.579498,427.654724 298.809967,408.055511 
	C318.907806,389.501862 342.630188,378.484100 368.906555,371.895844 
	C392.571838,365.962311 416.586334,367.393585 440.407104,368.453644 
	C454.470459,369.079498 468.365173,373.553467 482.326569,376.342682 
	C484.231720,376.723358 486.083588,377.370453 488.967865,378.175446 
	C490.041382,375.150848 491.332886,372.542358 491.889099,369.785461 
	C497.270355,343.113464 506.706390,318.044128 521.856018,295.368958 
	C538.260620,270.815491 560.178772,252.226028 585.927856,238.076019 
	C608.748901,225.535080 633.023254,216.362503 657.570618,207.902344 
	C678.353333,200.739655 699.297241,193.749680 717.502136,181.116959 
	C732.204834,170.914474 746.743896,160.275146 760.152710,148.464081 
	C774.379639,135.932312 787.461243,122.048729 800.515625,108.256348 
	C808.718689,99.589615 815.946777,90.000519 823.626221,80.836891 
	C824.444580,79.860367 825.356445,78.962227 827.196777,76.981926 
	C831.539246,81.994179 835.639893,86.507034 839.498413,91.218262 
	C858.511353,114.432968 879.133057,136.089142 902.162292,155.351212 
	C910.813232,162.587067 919.994446,169.188904 929.475098,176.559875 
M52.433109,3006.874512 
	C52.813068,3007.431152 53.336800,3007.755615 55.877293,3007.908936 
	C57.543507,3007.923096 59.209721,3007.949463 60.875931,3007.949463 
	C570.490845,3007.951172 1080.105713,3007.951172 1589.720581,3007.950928 
	C1591.387085,3007.950928 1593.068237,3008.085938 1594.716553,3007.911621 
	C1596.927856,3007.677490 1599.113892,3007.202881 1602.045044,3006.707275 
	C1602.045044,3001.611816 1602.044922,2996.992920 1602.044922,2992.374023 
	C1602.044922,2293.445068 1602.063965,1594.516113 1601.962036,895.587158 
	C1601.958740,872.327942 1600.554565,849.072144 1600.122192,825.808777 
	C1599.687866,802.436829 1595.793945,779.571594 1589.727905,757.141663 
	C1582.700317,731.155701 1571.237305,707.261169 1552.406738,687.515198 
	C1523.201416,656.890259 1486.260986,644.061829 1445.026367,642.316040 
	C1434.237427,641.859253 1423.244019,643.881287 1412.485596,645.632629 
	C1397.798096,648.023621 1389.578369,644.367126 1385.139893,632.132080 
	C1382.845337,625.806824 1384.060547,619.908691 1386.895386,613.872559 
	C1400.340820,585.243713 1403.098145,555.499084 1396.535522,524.550415 
	C1391.136719,499.090698 1380.231445,476.120789 1366.813843,454.159912 
	C1357.506958,438.927124 1345.187500,426.317566 1331.076538,415.568359 
	C1304.821167,395.567871 1273.958618,389.183777 1242.055420,388.393280 
	C1217.824585,387.792847 1193.913696,392.455505 1170.441040,398.833160 
	C1157.536499,402.339447 1147.026489,394.874451 1143.894775,381.727905 
	C1140.523315,367.574829 1137.089844,353.302917 1131.984619,339.721405 
	C1116.427246,298.334259 1086.648193,270.344879 1047.288330,251.344193 
	C1024.429321,240.309174 1000.540344,232.207458 976.683350,223.891327 
	C956.487854,216.851517 937.333374,207.699905 919.552368,195.763977 
	C889.778137,175.777267 864.697937,150.514679 840.042419,124.798546 
	C835.720093,120.290375 831.936218,115.265961 826.257507,108.526138 
	C823.413330,112.395882 821.412964,115.442932 819.092590,118.222786 
	C800.480896,140.519836 779.553650,160.554520 757.263733,179.036758 
	C729.557312,202.010223 697.984253,217.901947 663.535278,228.606064 
	C639.392090,236.107956 616.006531,245.828445 593.761963,258.074341 
	C574.550598,268.650482 557.921753,282.453522 544.432434,299.574585 
	C525.715515,323.330780 515.899170,351.187927 510.103912,380.545654 
	C506.962158,396.461273 497.954468,402.590546 482.162445,398.350372 
	C462.237579,393.000488 441.952515,389.198486 421.449219,388.494873 
	C407.000732,387.999084 392.258301,389.731049 377.970215,392.279724 
	C351.932220,396.924286 328.986755,408.030060 309.702576,426.896606 
	C291.700073,444.509216 279.520020,465.638641 269.118713,488.061768 
	C260.364471,506.934204 255.700806,527.079590 254.310257,547.656982 
	C252.744781,570.822815 257.123444,593.237244 267.253998,614.389709 
	C275.548004,631.707336 264.997009,647.241577 245.986206,645.969910 
	C244.012939,645.837891 242.073257,645.263672 240.101578,645.037964 
	C231.221207,644.021362 222.306473,642.063477 213.457733,642.316833 
	C201.587265,642.656677 189.633896,644.011597 177.950806,646.189575 
	C151.904572,651.045044 128.724518,662.396362 109.056046,680.178528 
	C88.551094,698.717102 75.453491,722.176086 67.079704,748.207153 
	C56.740646,780.347473 54.097725,813.781067 52.153400,847.223755 
	C51.458073,859.183594 51.971447,871.215027 51.971386,883.213745 
	C51.967728,1586.142334 51.967911,2289.070801 51.972572,2991.999512 
	C51.972603,2996.665283 52.039650,3001.330811 52.433109,3006.874512 
z"/>
<path fill="#DED5BD" opacity="1.000000" stroke="none" 
	d="
M52.075409,3005.996582 
	C52.039650,3001.330811 51.972603,2996.665283 51.972572,2991.999512 
	C51.967911,2289.070801 51.967728,1586.142334 51.971386,883.213745 
	C51.971447,871.215027 51.458073,859.183594 52.153400,847.223755 
	C54.097725,813.781067 56.740646,780.347473 67.079704,748.207153 
	C75.453491,722.176086 88.551094,698.717102 109.056046,680.178528 
	C128.724518,662.396362 151.904572,651.045044 177.950806,646.189575 
	C189.633896,644.011597 201.587265,642.656677 213.457733,642.316833 
	C222.306473,642.063477 231.221207,644.021362 240.101578,645.037964 
	C242.073257,645.263672 244.012939,645.837891 245.986206,645.969910 
	C264.997009,647.241577 275.548004,631.707336 267.253998,614.389709 
	C257.123444,593.237244 252.744781,570.822815 254.310257,547.656982 
	C255.700806,527.079590 260.364471,506.934204 269.118713,488.061768 
	C279.520020,465.638641 291.700073,444.509216 309.702576,426.896606 
	C328.986755,408.030060 351.932220,396.924286 377.970215,392.279724 
	C392.258301,389.731049 407.000732,387.999084 421.449219,388.494873 
	C441.952515,389.198486 462.237579,393.000488 482.162445,398.350372 
	C497.954468,402.590546 506.962158,396.461273 510.103912,380.545654 
	C515.899170,351.187927 525.715515,323.330780 544.432434,299.574585 
	C557.921753,282.453522 574.550598,268.650482 593.761963,258.074341 
	C616.006531,245.828445 639.392090,236.107956 663.535278,228.606064 
	C697.984253,217.901947 729.557312,202.010223 757.263733,179.036758 
	C779.553650,160.554520 800.480896,140.519836 819.092590,118.222786 
	C821.412964,115.442932 823.413330,112.395882 826.257507,108.526138 
	C831.936218,115.265961 835.720093,120.290375 840.042419,124.798546 
	C864.697937,150.514679 889.778137,175.777267 919.552368,195.763977 
	C937.333374,207.699905 956.487854,216.851517 976.683350,223.891327 
	C1000.540344,232.207458 1024.429321,240.309174 1047.288330,251.344193 
	C1086.648193,270.344879 1116.427246,298.334259 1131.984619,339.721405 
	C1137.089844,353.302917 1140.523315,367.574829 1143.894775,381.727905 
	C1147.026489,394.874451 1157.536499,402.339447 1170.441040,398.833160 
	C1193.913696,392.455505 1217.824585,387.792847 1242.055420,388.393280 
	C1273.958618,389.183777 1304.821167,395.567871 1331.076538,415.568359 
	C1345.187500,426.317566 1357.506958,438.927124 1366.813843,454.159912 
	C1380.231445,476.120789 1391.136719,499.090698 1396.535522,524.550415 
	C1403.098145,555.499084 1400.340820,585.243713 1386.895386,613.872559 
	C1384.060547,619.908691 1382.845337,625.806824 1385.139893,632.132080 
	C1389.578369,644.367126 1397.798096,648.023621 1412.485596,645.632629 
	C1423.244019,643.881287 1434.237427,641.859253 1445.026367,642.316040 
	C1486.260986,644.061829 1523.201416,656.890259 1552.406738,687.515198 
	C1571.237305,707.261169 1582.700317,731.155701 1589.727905,757.141663 
	C1595.793945,779.571594 1599.687866,802.436829 1600.122192,825.808777 
	C1600.554565,849.072144 1601.958740,872.327942 1601.962036,895.587158 
	C1602.063965,1594.516113 1602.044922,2293.445068 1602.044922,2992.374023 
	C1602.044922,2996.992920 1602.045044,3001.611816 1602.045044,3006.707275 
	C1599.113892,3007.202881 1596.927856,3007.677490 1594.716553,3007.911621 
	C1593.068237,3008.085938 1591.387085,3007.950928 1589.720581,3007.950928 
	C1080.105713,3007.951172 570.490845,3007.951172 60.875931,3007.949463 
	C59.209721,3007.949463 57.543507,3007.923096 54.720901,3007.476074 
	C53.173813,3006.543701 52.677444,3006.195068 52.075409,3005.996582 
M1596.035522,1497.000000 
	C1596.035156,1291.010620 1595.997925,1085.021118 1596.084229,879.031738 
	C1596.094238,855.086060 1594.971313,831.271606 1592.296387,807.450989 
	C1589.579712,783.257202 1585.097412,759.640259 1576.087891,736.927673 
	C1563.270874,704.616638 1541.576416,680.098145 1510.707031,664.519897 
	C1480.502319,649.276978 1448.205322,646.005005 1414.846680,651.204407 
	C1405.435425,652.671265 1395.664551,654.323914 1387.473633,646.512207 
	C1377.290771,636.800781 1374.555908,622.938477 1381.471924,610.024780 
	C1390.002441,594.096436 1393.318726,576.770752 1393.582153,559.225281 
	C1393.778809,546.123596 1391.610596,532.759888 1388.787964,519.887268 
	C1383.232300,494.550812 1371.115112,472.094147 1356.606812,450.678955 
	C1333.856567,417.098450 1301.186035,400.190643 1262.202026,396.437286 
	C1232.450562,393.572815 1202.498047,395.305542 1173.437378,404.883301 
	C1156.129883,410.587463 1141.936401,400.398193 1137.782715,382.755219 
	C1133.989868,366.645294 1129.662109,350.436035 1123.348755,335.190521 
	C1109.134277,300.865662 1083.602173,276.866852 1050.723633,260.156921 
	C1028.108154,248.663010 1004.385864,240.028061 980.473572,231.813995 
	C958.057434,224.113876 936.417236,214.839813 916.785278,201.300858 
	C901.994263,191.100418 887.443604,180.639771 874.750183,167.803650 
	C862.617981,155.534958 850.356506,143.394165 838.160461,131.188507 
	C834.507263,127.532486 830.883240,123.847328 826.718506,119.643257 
	C819.864075,127.402336 814.295044,134.458115 807.949951,140.728653 
	C795.647888,152.886353 783.393433,165.174316 770.209473,176.333527 
	C758.079651,186.600616 745.091736,195.958191 731.878540,204.816589 
	C712.107300,218.071609 689.876221,226.181778 667.494568,233.899658 
	C644.537964,241.815796 621.774963,250.249084 600.279175,261.757751 
	C577.030701,274.204773 557.337830,290.646210 542.731323,312.746948 
	C528.950500,333.598450 520.829590,356.905701 516.409119,381.196869 
	C512.728638,401.421875 497.136627,410.299225 477.382996,404.133667 
	C445.403534,394.152161 412.547028,392.872101 379.783905,398.301575 
	C353.730774,402.619080 329.850433,413.261230 311.819427,433.348938 
	C284.330658,463.973145 266.705383,499.270935 261.608124,540.776611 
	C259.103058,561.174988 261.709412,580.383362 268.103912,599.439392 
	C270.002045,605.096008 273.119812,610.356018 274.874664,616.045776 
	C280.834229,635.367981 266.846497,654.982544 247.735504,652.066406 
	C244.465073,651.567383 241.167358,651.232361 237.874496,650.897766 
	C228.648300,649.960388 219.396317,648.166565 210.195160,648.389404 
	C199.989258,648.636597 189.678345,650.033447 179.673767,652.157288 
	C136.881622,661.241638 104.527954,684.577820 84.067368,723.666870 
	C68.338615,753.716003 63.330872,786.545288 60.240826,819.633118 
	C58.359039,839.782959 58.066154,860.136475 58.063190,880.398560 
	C57.960411,1582.699951 57.977425,2285.001465 57.977478,2987.302734 
	C57.977478,2989.302734 57.874432,2991.309326 58.005371,2993.300781 
	C58.173477,2995.857178 58.530075,2998.401367 58.840961,3001.279297 
	C571.250000,3001.279297 1083.026489,3001.279297 1596.035522,3001.279297 
	C1596.035522,2500.077393 1596.035522,1999.538696 1596.035522,1497.000000 
z"/>
<path fill="#D4D0C8" opacity="1.000000" stroke="none" 
	d="
M52.254257,3006.435547 
	C52.677444,3006.195068 53.173813,3006.543701 53.784409,3007.445557 
	C53.336800,3007.755615 52.813068,3007.431152 52.254257,3006.435547 
z"/>
<path fill="#A1C9D7" opacity="1.000000" stroke="none" 
	d="
M1596.035522,1498.000000 
	C1596.035522,1999.538696 1596.035522,2500.077393 1596.035522,3001.279297 
	C1083.026489,3001.279297 571.250000,3001.279297 58.840961,3001.279297 
	C58.530075,2998.401367 58.173477,2995.857178 58.005371,2993.300781 
	C57.874432,2991.309326 57.977478,2989.302734 57.977478,2987.302734 
	C57.977425,2285.001465 57.960411,1582.699951 58.063190,880.398560 
	C58.066154,860.136475 58.359039,839.782959 60.240826,819.633118 
	C63.330872,786.545288 68.338615,753.716003 84.067368,723.666870 
	C104.527954,684.577820 136.881622,661.241638 179.673767,652.157288 
	C189.678345,650.033447 199.989258,648.636597 210.195160,648.389404 
	C219.396317,648.166565 228.648300,649.960388 237.874496,650.897766 
	C241.167358,651.232361 244.465073,651.567383 247.735504,652.066406 
	C266.846497,654.982544 280.834229,635.367981 274.874664,616.045776 
	C273.119812,610.356018 270.002045,605.096008 268.103912,599.439392 
	C261.709412,580.383362 259.103058,561.174988 261.608124,540.776611 
	C266.705383,499.270935 284.330658,463.973145 311.819427,433.348938 
	C329.850433,413.261230 353.730774,402.619080 379.783905,398.301575 
	C412.547028,392.872101 445.403534,394.152161 477.382996,404.133667 
	C497.136627,410.299225 512.728638,401.421875 516.409119,381.196869 
	C520.829590,356.905701 528.950500,333.598450 542.731323,312.746948 
	C557.337830,290.646210 577.030701,274.204773 600.279175,261.757751 
	C621.774963,250.249084 644.537964,241.815796 667.494568,233.899658 
	C689.876221,226.181778 712.107300,218.071609 731.878540,204.816589 
	C745.091736,195.958191 758.079651,186.600616 770.209473,176.333527 
	C783.393433,165.174316 795.647888,152.886353 807.949951,140.728653 
	C814.295044,134.458115 819.864075,127.402336 826.718506,119.643257 
	C830.883240,123.847328 834.507263,127.532486 838.160461,131.188507 
	C850.356506,143.394165 862.617981,155.534958 874.750183,167.803650 
	C887.443604,180.639771 901.994263,191.100418 916.785278,201.300858 
	C936.417236,214.839813 958.057434,224.113876 980.473572,231.813995 
	C1004.385864,240.028061 1028.108154,248.663010 1050.723633,260.156921 
	C1083.602173,276.866852 1109.134277,300.865662 1123.348755,335.190521 
	C1129.662109,350.436035 1133.989868,366.645294 1137.782715,382.755219 
	C1141.936401,400.398193 1156.129883,410.587463 1173.437378,404.883301 
	C1202.498047,395.305542 1232.450562,393.572815 1262.202026,396.437286 
	C1301.186035,400.190643 1333.856567,417.098450 1356.606812,450.678955 
	C1371.115112,472.094147 1383.232300,494.550812 1388.787964,519.887268 
	C1391.610596,532.759888 1393.778809,546.123596 1393.582153,559.225281 
	C1393.318726,576.770752 1390.002441,594.096436 1381.471924,610.024780 
	C1374.555908,622.938477 1377.290771,636.800781 1387.473633,646.512207 
	C1395.664551,654.323914 1405.435425,652.671265 1414.846680,651.204407 
	C1448.205322,646.005005 1480.502319,649.276978 1510.707031,664.519897 
	C1541.576416,680.098145 1563.270874,704.616638 1576.087891,736.927673 
	C1585.097412,759.640259 1589.579712,783.257202 1592.296387,807.450989 
	C1594.971313,831.271606 1596.094238,855.086060 1596.084229,879.031738 
	C1595.997925,1085.021118 1596.035156,1291.010620 1596.035522,1498.000000 
z"/>
</svg>