
<svg xmlns="http://www.w3.org/2000/svg" xmlns:xlink="http://www.w3.org/1999/xlink" preserveAspectRatio="xMidYMid meet" version="1.0" viewBox="-11.6 -34.7 429.8 451.3" zoomAndPan="magnify" style="fill: rgb(0, 0, 0);" original_string_length="12929" width="74.04962560378944px" height="77.72384366809956px"><g><g id="__id3_s8m2fvmu3n"><path d="M398.51,193.28C394.22,174.3,400,143,379,128.45c-6.63-11.95,9.3-33.81-4.9-49.75-2.85-9-14.69-5.43-13.68-16.1C343.83,17,277.77,70.43,281.62,44.22c15.18-78.9-169.09-31.46-161,21.06C71.28,24.83,2.72,96.4,44.85,140.37,12.51,141.93.44,159.08,9.19,189.45-11.55,220.77,30.27,234,44,247.64,28.55,280.24,56.44,337.75,96,326.91c-34.12,55.58,61.65,89.37,89,43.34,23.34,8.38,105.61,11.82,115.65-16.53,41,23.48,96.47-34,76.46-75.21,12-8.46,34.14-18.07,31.13-38.69C401.62,226.81,418.22,204.17,398.51,193.28Z" style="fill: rgb(255, 210, 0);"/></g><g id="__id4_s8m2fvmu3n"><path d="M101.43,160.46c-21-19-45.64-17.32-69.85-4.62v0c-22.35,13.78-5,24.75,13.13,29.92C9.6,186,11.14,224.5,53.55,234.92,54,171.79,138.85,173.1,101.43,160.46ZM30.78,194.65c-3,7.88,2.11,16.19,4.35,23.3C30.63,212.72,26.08,199.44,30.78,194.65ZM31.53,156c-1.16,18.9-6.91,17,0,0Zm136-31.73c27-11.88,23.45,8.72,24.58-28.84-1.39-43.6-52-8.22-35.28,26.88-22.38-21.77-44-59.6-81.15-44.21,18.47-9,40.52-3.24,53,12.84-8.21-26.86-43.19-30.08-66-19.41C47.58,79.5,74.46,97,56.64,92.76,41.3,95,42.87,123.32,51.39,132.24,113.07,35.73,113,125.83,167.55,124.23Zm14.92-20.11c-2.55,4.79-18.78-7-15.73,17.23C160.26,110,172.84,90.07,182.47,104.12ZM71.33,94.38c.89,6.93-10.74,11.33-9.88,19.14C57.86,106.07,69.9,101.55,71.33,94.38ZM251.6,281.94c3.76,23.7-21.63,30.31-34,11.58C200.46,416.6,367.21,338.22,251.6,281.94Zm-28.85,27.61c2.2,13.11,11.31,44.19,28,37.57C235.73,357.94,220.76,320.75,222.75,309.55Zm16.5,22.75c6,4.75,12.17,8.4,20.19,6.06C252.79,342.88,242.29,337.83,239.25,332.3Zm86.08-125c58.58.92,39.48-98.76-29.55-51-42.08,22.1-19,5.87,1.47,29.41,6.29,6.87,19.64,6.79,21.85,16.53C320,208.49,320.08,207.26,325.33,207.32Zm11-8.46c16.42-9.55,13.14-39.9-1.44-48.19C351.25,155.79,354.33,192.56,336.34,198.86Zm25.46,63.05c-1.06-22.39-43-59.82-56.11-31.2,27.5,12,9.81,72.57-19.59,68.36C314.89,322.74,348.84,285.28,361.8,261.91Zm-25.43-21.28c17.79,19.83-10.21,50.73-28.94,55C327.15,287,350.31,262.63,336.37,240.63ZM103.74,324.57c-14.47,23.94,8.55,66.39,31.64,35.6-3.75,41.32,57.84,9.87,43-18.06C181.5,294.08,149.35,377.2,103.74,324.57Zm2.41,25.88c-1.65-5.93-3.57-14.65-2-20.06C104.52,336.91,106.64,344.39,106.15,350.45Zm47.36-217.13C87.29,55,53.48,116.89,100.22,154,122.21,172,124.88,131.23,153.51,133.32ZM96.74,117.79c.34,4.07.68,8.13,1,12.36C95.1,127.23,95.66,117,96.74,117.79Zm-1.18-14.54c-9.09,17.84-3,31.28,12.47,42.16C94.29,143.88,83.35,111.27,95.56,103.25ZM303,236.64c-25.18,20.5-41-6.32-54.41,2C243.94,324.49,347.35,292.9,303,236.64Zm-24.32,32.85c-1.55,1-8.11-1.36-9.06-2.93Zm8.69,7.68c-19.61,3.49-33.17-14.23-34.75-31.57C257.39,263.32,267.35,277.84,287.35,277.17Zm94.59-47.49c29.62-5.66,7.54-36.87-16.89-42.11-2.29,19.75-26.8,26-43.64,24,21.24,8.81,44.36,31.72,50.64,53.82C389.68,258.91,408.05,239.63,381.94,229.68Zm5.18-16a45,45,0,0,0-13.34-12C377.66,202,385.93,209.22,387.12,213.73ZM346.62,84.89c11.85-45.4-81.84-55.25,2.47,54.5C369.21,121.74,378.22,82.69,346.62,84.89Zm8.47,10c2.11.16.58,7.91-.64,9.32C354.93,100.77,354.78,98,355.09,94.9Zm-25.92-9.19c0,.13.06.25.09.38a133.48,133.48,0,0,0-11-15.33A16.86,16.86,0,0,1,329.17,85.71Zm16.39,26.69c-3.17-4.71-6.94-11.09-10.95-17.68C339.55,99.79,345.87,104.2,345.56,112.4ZM360.74,278c-18.1,10.8-28.89,40.61-55.87,33.41-16-5.75-.78,8.22-3.53,17.47-11.29,36,66.76,12.74,43.34-16.78C365.6,339.25,380.67,279.85,360.74,278Zm-49.42,60.5a118.94,118.94,0,0,0,19.18-7.93C327.76,334.1,313.85,339.65,311.32,338.52Zm-152-59.28c-.28-14.36,27.08-16.89,19.42-30.21-6.86-9.86-15.53,4.6-24.65,1.35-17.62-13.12-41.21-.61-44.83,21.2C107.7,298.6,150.76,304.54,159.35,279.24ZM132.72,247.4c-12.54,11.65-20.4,31.09-2.94,42C110.34,281.46,118.71,256.62,132.72,247.4ZM258.05,101.22c19.77-37.12-76.19-79.79-60.62,21.58C208.83,97.75,235.05,98.68,258.05,101.22ZM220.58,63.33c-10.13,13.46-13.17,28.76-15.2,44.82C202.84,97.94,213.1,66.94,220.58,63.33Zm-75.67,266.1c23.86-5.39,48.61-34.33,12.62-36.4-15.12,27.36-41.89,5.78-53-12.77C85.33,303,121.25,334.93,144.91,329.43Zm9.42-11.69c-2.92,3-22.32,5.41-27.06,3.09C136.81,321.84,145.6,319.78,154.33,317.74ZM192.42,75.17c31.57-41,35.08-23.55,74.32,1.32C279.82,11.81,180.71,15.78,192.42,75.17ZM246,47.26c2.38.14,9.34,7,10,10.22ZM223.09,34.47c18.31-.66,36.28,4.57,39.59,25.31C257.22,40.18,240.52,35.75,223.09,34.47Zm-75.56,70.76C145.68,89,156.24,77,169.43,70.85c3.37-11.78-.12-26.41,9.79-35.46C138.11,21.06,110,79.37,147.53,105.23ZM148,76.17c-1.41-1.12.5-10.91,2.52-12.65Zm15.12-36.26c-17,13.39-21.61,31.4-15.13,50.77C138.89,71.61,145,51,163.09,39.91ZM72.61,208.5c-28.92,11.12,1.75,111.85,47.68,37.83C103.15,249.57,96,235,84.38,230.55,72.19,226.28,79.44,208.88,72.61,208.5Zm10.56,51.62C73.91,250,62.88,234.8,68.29,220.43,65.22,235.33,76,248.44,83.17,260.12ZM291.58,143.37c15.22,5.61,28.88-11.23,45.37-7.21-19.93-62.37-37.05-23.4-73.75-3.08C265.42,141.45,284.24,136.78,291.58,143.37Zm17.33-32.29c-11.61,5.89-11.83,22-25.64,25.44C295.23,131.9,296.66,114.59,308.91,111.08Zm-39.36,12.43C284.07,108.33,320.72,97,307,71.42,274.82,40.23,260.53,103,269.55,123.51ZM302.86,79.4c-4.94-10.31-15.63-5.54-24-4.5C285.77,70.84,302.24,69.34,302.86,79.4ZM275.8,85.24c5.87,7.72-6.79,18.68-.53,24.05C266.3,106.88,279.61,93,275.8,85.24Zm0,153.2c11.36,5.76,47.55-32.27,32.08-39.47-14.38,15.89-34,4.65-51.7,9.16C235.21,232.5,253.44,228.13,275.8,238.44ZM294,228.38c-10.92,7.28-25.59,1.74-35.82-4.37C268.65,227.92,281.94,234.2,294,228.38Zm-174.92-17.3c7-1.84-5.88-6.38-1.38-9.48,3.48-19.68,9.41-11.93,16.88-24.15C79.43,162.25,48.92,245,119.07,211.08Zm-14-23.67c-11.58.85-15.18,12.81-15.35,22.65C86,201.37,93.69,185.83,105,187.41Zm-8.79,92.15c7.88-6.07.27-3.38-4.26-.86C69.43,291.46,66.67,253.49,56.15,252c-6.85,18.13-8.61,37.46,12.92,45.34-.66,16.21,10,23.56,26.92,19.79C99.11,308.64,82.86,291.56,96.23,279.56ZM55.17,263.39c.26,14.45,10,20,19.91,28C65.17,286.36,51.86,276,55.17,263.39Zm169,99c-41.86,1.05-48.41-17.33-39.71-56.57C205.77,319.13,217.46,336.73,224.19,362.4ZM206.41,128.29c27.29,14.16,9.74,25.73,30.77-.21,20-5.92,15.06,29.91,26.51-10.28C256.29,99.39,197.19,104.13,206.41,128.29Zm34.11-10.51,5-1.83C245.71,116.81,240.66,118.88,240.52,117.78Zm-19,8.16c2.61-10.56,14.7-16.75,25.12-14C234.69,110.66,227.21,116.68,221.55,125.94Zm-44.46,97.73c-9.33,18-58.51,9.16-25.08-3.84C93,192.79,140.31,170.91,177.09,223.67ZM381,154.89c-.41,27,18.8,51-20.75,21.05,3.9-11.18,4.48-21.24-4.19-30.45C359.73,124.9,381.84,138.05,381,154.89Zm-169,130c-.52-21.16-.23-15.22-18.3-19.94C173.71,294.68,211.45,338,212,284.9Zm-5.66,6.82c-.28,2.12-.57,4.24-.85,6.36C204.73,297.23,205.38,292.42,206.29,291.72Zm-81.13-75.07c15.27,1.11,4.9,12,13.13,20.2C102.72,255.81,73.27,214.75,125.16,216.65Zm31.67-69.28c-5.83,8.66-10.62,28-24,23.3C97.13,169.23,154.84,120.64,156.83,147.37Zm63.74-125.3c-22.49-.57-32.37,25.23-33.7,44C149,92.62,202.24-12.68,220.57,22.07Zm20.89,229c2.89-8.68-11-24.07-1.7-35.66C210.41,211.71,202.39,260.41,241.46,251Zm-14.25-25.13c-2.67,6.63-4.6,13.19-4,20.54C220.88,240.19,223.35,231.26,227.21,225.89ZM225.5,18.57c24.65-23.13,65.77,22.14,48.57,45.05C264.82,8.27,253.86,37.33,225.5,18.57Zm8,278.66c15.63.31,11.79-21.09,11.86-31.38C221.16,266.62,203.71,283.16,233.46,297.23Zm-.24-5c-2.82.08-10.08-9.25-9.7-12.75A47.5,47.5,0,0,0,233.22,292.26ZM162.59,167.15c-6.31,12.39,5.08,19.23,10,27.92C174.07,224.46,111.85,168.39,162.59,167.15Zm109.7-19.79c-5.73,7.59-.82,33.6-15.66,26.7-7.1-1.51-9.94-1.67-9.38-9.53C243.6,151.52,265.18,134.42,272.29,147.36Zm-3.38,53c-14.71,3.32-8.83-3.37-16.64-14.15C258.32,168.05,295.76,186.41,268.91,200.38Zm-103,88.69c-11.21-14.85,18.56-28.51,28.81-34.85C184.06,264.43,186.05,291,165.94,289.07ZM195,138.45c.87-13.17,13.36-7.14,19.88-1.38C230.89,152.45,190.66,165,195,138.45Zm47.66,20.7c-19.79-2-9.65-44.05,7.14-25.43C255.83,142.32,240.94,149.29,242.66,159.15Zm-67.61-31.44c10.25,11.36-.11,45.38-13.91,26.1C164.92,144.67,167.74,134.57,175.05,127.71ZM69.82,139.86c15.24,3.13-.76-11.1,1.44-18.33C63.38,108.67,40.8,151.3,69.82,139.86Zm-9.31-5.4c-1.23-1.17-.41-5.74.9-6.45C61.1,130.26,60.8,132.36,60.51,134.46Zm218.14,44c16.74,8.83,34.35,22.93,2.52,22.31C274.62,197.15,285.54,183.37,278.65,178.46ZM175.66,204c8.8-15.91,15.81,15.2,9.94,22.31C177.57,226.48,177.3,210.12,175.66,204Zm8.77-57.1c-5.47-2.87-3.5-14.31-6.36-20.46C191.77,124.42,201.19,146.78,184.43,146.88ZM277.37,145c21.44.25,16.93,11.71-1.18,15.24C268.94,160.35,278.23,149.51,277.37,145Zm-68.09,89.53c8.63,6.45-13.67,15.89-20.25,15.8C171.44,247.29,205.26,238.44,209.28,234.55Zm-7.89-.52c-.48,5.1-11,7.28-15.38,8.58C163.83,231.79,191.51,228.72,201.39,234Zm13.83,22.45c7.89-2.59,17.33,2.28,26.12.81C237.91,266.75,208.39,268.18,215.22,256.48Zm-38.93-23c-3.92,9-24.07,18.29-30.27,6.48C156.8,241.35,167.44,235.6,176.29,233.44Zm11-75.26c-7.24.5-15.35,17.32-20.93,9.87C169.64,163.68,202,138.53,187.26,158.18Zm21.55,97.7c-4.27-.84-10.09,9.47-12.32,3.57C204.63,239.16,230.63,251.89,208.81,255.88Zm31.44-92.37c1.55-4.53,6.72,9.39,1.65,10-5.27,2.15-8-.76-10.11,4.9C229,171.56,230.48,162.89,240.25,163.51Zm-49,21.31c-5.51,7.33-10.81-4.67-2.56-5.31C195.52,183.82,204.88,197.68,191.28,184.82Zm20.86,27.47c-2.06,10.35-4.42-5.32-.13-7C220,201,220.53,214.89,212.14,212.29ZM227,193.8c-1.31,12.61,4.45,12.32-7.87,1.51C217.91,192,226.65,188.65,227,193.8ZM201.64,202c-2.27-.08-13.18.23-9.86-5.84C197.77,190.13,198.56,198.55,201.64,202Zm37.85-7.12c-1.29-9.08,14.63-5.14,4.85.61C249.81,200.2,240.09,198.29,239.49,194.91Zm-25.25-32.45c5-6.37,11.62,3.92,4.42,5.84C216.92,171.79,213.21,164.34,214.24,162.46ZM204.32,229c-2.66-4.08-7.71-7.48-.11-10.36C209.65,219.75,207,227.25,204.32,229Zm-25.13-55.64c.77-6.47,9.45-4.39,7.79,1.81C185.93,178.52,178.56,177,179.19,173.32Zm41.56,10.61c1.89,5.54-2.38.55-4-1C212.1,173.83,230.09,176.37,220.75,183.93Zm-26.39,27.8c-.61-4.94,7-7.13,7.87-1.52C202,214.82,195.52,216.36,194.36,211.73Zm37.55-30.23c5.71-1.42,5.62,6.22,1,7.71C228.8,188.39,226.06,182.25,231.91,181.5Zm-21.49-2.37c-.54,6.75-9.32,4.3-6.81-1.73C206.16,175.2,209.54,175.43,210.42,179.13Zm-3.87-7.7c-2.82.87-11.05-6.64-4.6-8.39C208.58,160.24,203.87,169,206.55,171.43ZM234.29,204c-.66-3.43,3.51-.61,3.08-3.09C247.41,203.19,233.27,215.37,234.29,204Zm-55.41-20.71c4.12,5.67-6.55,8.2-6.46,1.84C171.91,182.42,178,181,178.88,183.24Zm-15.77-22c-2.91,2.77-6.74,4.22-10,3.79C154.37,159.85,158.61,157.08,163.11,161.29Zm40.31,29.51c.14-3.36,2-1.84,3.82-3.32C214.06,187.46,206.73,199.32,203.42,190.8Zm22.27-35.93c2.82-6.12,5.85,5.09.16,4C222.8,159.11,222.79,152,225.69,154.87Zm-43.82,38.78c4.35-5.81,5.28,7.79-.93,3.7C178.94,196.42,179.16,191.52,181.87,193.65ZM246,203.28c2.54-1.1,6.39-2,5.34,1.9C249.25,209.08,245.09,207.07,246,203.28Zm-53.9,2.95c-.83,2.63-3.44,3.19-4.49.34C188,202.8,191.78,202.64,192.06,206.23Zm1-40.87a2.24,2.24,0,0,1-2.49,2.27C184.83,167,192.49,159.81,193.09,165.36Zm-1.32,56.84c.16-2.25,4.69-2.22,4.4,1C195.83,226.74,192.68,223.94,191.77,222.2Zm16.54-21.13c-3.2.05-3.5-4.08-.05-4C210.56,197,211.1,201.44,208.31,201.07ZM228,207.4c5.17,4.28-5.7,6.73-3.56.59C226.26,209.8,226.88,209.52,228,207.4Zm-62.09-31.32c.44-2.4,3.79-3.38,4.37-.67C170.17,178,167.11,178.31,165.94,176.08Zm65.84,21.67c-2.32-1.11-.59-4,1.53-3.93C236.18,194.74,234.57,198.16,231.78,197.75Zm-31.3-23.58c.25,2-4,3.65-4.52,1.3C195.25,172.34,198.65,173.41,200.48,174.17ZM204,206.32c2.9-1.27,4.53,3.17,1.67,3.55C204.21,209.92,204,209.52,204,206.32Zm8.29,12.31c1.14-2,2.71-.51,3.67.84C215.63,222.61,211.59,221.81,212.28,218.63ZM244,213c.32-2.29,3.3-1.6,3.4.52C247.59,215.79,243.38,215.51,244,213Zm5.62-14.72c-2.14-.88-.67-3.4,1.4-3.32C253.18,195.81,252.29,198.47,249.61,198.27ZM223,171.94c-.73,2.79-3.74,2.42-3.8.15C220.27,170.27,221.65,171.43,223,171.94Zm10.06-13.57c1.7.71,1.95,1.82,0,3.32C231.36,160.12,230.73,159,233.08,158.37Zm12.14,22.89c.34-2.24,2.39-2.08,3.61-.19C247.49,182.39,245.41,183.93,245.22,181.26Zm-23.16-25.08c-1.67,1.84-2.94,1.6-3.76-.18C218.6,153.93,220.81,154.62,222.06,156.18Zm-9.38,17.08c-2.62-1.28-.24-3.44,1.87-3.16C214.41,172.47,213.79,173.47,212.68,173.26Zm-1.22-12.82c-1.43,1.44-3.31,2.4-3.76,0C208.14,158.31,210,158.86,211.46,160.44Zm3.23,27.63c1.3.93,1,3.1-.85,2.89C211.64,190.34,212.3,188.08,214.69,188.07Zm14.48-21.76c-1.78,1.46-3,1.31-3.52-.62C226.18,163.75,228.13,164.37,229.17,166.31ZM228,147.49c1.61.85.44,1.94-.58,3.16C224.92,149.07,225.68,147.61,228,147.49Zm-1.2,30.82c-1.65-1.58-1.87-2,.41-3.62C228.34,176.58,228.56,177.18,226.78,178.31Zm-7.31,21.1c2,.72.53,1.81-.36,3.29C217.18,201.17,217.1,199.35,219.47,199.41Zm19.94-14.73c1.62-1.61,2-1,3.31.83C240.93,187.21,240.63,185.82,239.41,184.68Zm-1.91-7c1.06-.21,2.13-1.53,2.88.17C240.7,180.18,238.19,180.64,237.5,177.71ZM199,159.29c-2.38-1.46-2.18-1.92.09-2.86C200.75,157,200.07,158.08,199,159.29Zm22.18-10.52c-.23,1.18.72,2.49-.77,3.11C217.72,151.66,218.58,148.68,221.22,148.77Zm.58,68.06c-1.54-1.63-1.25-2,.55-2.66C223.55,214.94,222.89,215.76,221.8,216.83Z" style="fill: rgb(249, 132, 16);"/></g></g></svg>