
<svg xmlns="http://www.w3.org/2000/svg" xmlns:xlink="http://www.w3.org/1999/xlink" preserveAspectRatio="xMidYMid meet" version="1.0" viewBox="-0.9 -2.5 295.4 482.2" zoomAndPan="magnify" style="fill: rgb(118, 62, 21);" original_string_length="29093" width="42.1700541486969px" height="68.82353050974272px"><g id="__id0_s6z68j91vq"><path d="M21.5,126c3,2.2,5.7,4.9,8.2,7.8c2.5,2.9,4.7,6.1,6.9,9.3c1.1,1.6,2.1,3.3,3.1,4.9c1,1.6,2,3.5,3.2,5.1 c2.4,3.3,5.3,6.2,8.7,8.4c1.7,1.1,3.5,2.1,5.4,2.8c1.9,0.8,3.8,1.3,5.9,1.6c4,0.5,8.2-0.1,11.8-2c3.6-1.8,6.6-4.5,8.9-7.7 c-1.2,1.5-2.7,2.8-4.2,4c-1.6,1.2-3.2,2.2-5,2.9c-3.5,1.5-7.5,1.9-11.2,1.2c-1.9-0.3-3.6-1-5.4-1.8c-1.7-0.8-3.4-1.7-4.9-2.8 c-3.1-2.2-5.7-5-7.8-8.1c-1.1-1.6-1.9-3.2-2.9-5c-1-1.7-2-3.4-3-5.1c-2.1-3.4-4.4-6.6-6.9-9.7c-2.5-3.1-5.3-6-8.6-8.5 c-1.6-1.2-3.4-2.3-5.4-3.2c-0.5-0.2-1-0.4-1.5-0.6c0.4-0.3,0.7-0.5,1.1-0.8c0.5-0.4,1-0.8,1.6-1.3c2-1.8,3.7-3.8,5.3-5.9 c3.1-4.3,5.4-9.1,7-14c0.4-1.2,0.9-2.5,1.2-3.7l1-3.6c0.7-2.3,1.6-4.6,2.6-6.9c2.1-4.5,4.7-8.7,8-12.3c3.2-3.6,7.2-6.6,11.7-8.4 c0.6-0.2,1.1-0.4,1.7-0.6c0.6-0.2,1.2-0.3,1.7-0.5c1.1-0.3,2.3-0.4,3.5-0.5c2.4-0.1,4.9,0.2,7.2,0.8C75.1,63,79.3,66,82.1,70 c1.5,2,2.7,4.2,3.6,6.5c1,2.3,1.7,4.7,2.3,7.2c-0.4-2.5-1-5-1.8-7.4c-0.8-2.4-1.9-4.8-3.3-7C80.3,65,76,61.4,71,59.8 c-2.5-0.8-5.2-1.2-7.8-1.2c-1.3,0-2.6,0.1-4,0.4c-0.6,0.2-1.3,0.3-1.9,0.5c-0.6,0.2-1.3,0.4-1.9,0.6c-5,1.8-9.4,5-13,8.8 c-3.6,3.8-6.5,8.3-8.8,13c-1.1,2.4-2.1,4.7-2.9,7.3l-1,3.7c-0.3,1.2-0.7,2.4-1.1,3.5c-1.6,4.7-3.8,9.1-6.6,13 c-1.4,1.9-3,3.8-4.8,5.4c-0.4,0.4-0.9,0.8-1.4,1.1c-0.5,0.4-0.9,0.7-1.4,1c-0.5,0.3-1,0.6-1.5,0.9c-0.3,0.1-0.5,0.3-0.8,0.4 c-0.1,0.1-0.3,0.1-0.4,0.2l-0.3,0.1l-7.1,2.9l7.5,0.5C15.1,122.2,18.5,123.9,21.5,126z" style="fill: inherit;"/><path d="M100.1,169.7c0.2-3.5-0.5-7-1.5-10.3c-1-3.3-2.4-6.5-4-9.6c-1.4-3-2.6-6.2-3.6-9.4c-2.1-6.4-3.4-13-3.8-19.7 c-0.4-6.6,0.1-13.3,1.8-19.7c1.7-6.3,4.6-12.3,8.5-17.6c1.9-2.6,4.2-5.1,6.6-7.3c1.2-1.1,2.4-2.2,3.7-3.2c1.1-0.9,2.5-1.7,3.9-2.3 c2.8-1.4,5.9-2.3,9-2.7c3.1-0.4,6.3-0.3,9.4,0.2c3.1,0.6,6.2,1.6,9.1,3c2.9,1.4,5.7,3.1,8.3,5l1.1,0.8l1.3-0.5 c0.6-0.2,1.4-0.5,2.1-0.7c0.7-0.2,1.5-0.4,2.2-0.6c1.5-0.3,3-0.6,4.5-0.8c3-0.4,6-0.6,9-0.3c2.9,0.3,5.8,0.9,8.4,2.2 c2.6,1.2,4.8,3,6.6,5.2c1.8,2.2,3.1,4.9,3.9,7.7c0.9,3,1.6,6,2.2,9.1c1.2,6.1,1.9,12.4,1.9,18.6c0.1,6.2-0.5,12.5-1.8,18.6 c-1.3,6.1-3.4,12-6.4,17.5c-3,5.6-6.2,11.1-9.6,16.4c-0.9,1.3-1.7,2.6-2.7,3.9c-1,1.3-1.7,2.8-2.2,4.4c-1,3.1-1.1,6.5-0.1,9.5 c-0.7-3.1-0.4-6.4,0.8-9.3c0.6-1.4,1.4-2.8,2.4-4c1-1.2,2-2.5,3-3.8c1.9-2.6,3.7-5.2,5.5-7.9c1.8-2.7,3.5-5.4,5.1-8.1 c1.9-3.1,3.5-6.4,4.8-9.8c0.5,0.5,1.1,0.9,1.8,1.3c1.1,0.6,2.4,0.8,3.7,0.7c1.3-0.2,2.5-0.8,3.5-1.5c0.5-0.4,1-0.8,1.5-1.2l0.9-0.9 c1.4,0.4,2.7,0.6,4.2,0.6c1.6,0,3.4-0.4,4.8-1.7c0.7-0.6,1.2-1.4,1.6-2.2c0.3-0.8,0.6-1.6,0.6-2.5c0.2-1.3,0.1-2.5-0.1-3.7 c0.4-0.2,0.8-0.4,1.2-0.6c0.7-0.4,1.4-0.9,2-1.4c1.3-1.1,2.4-2.5,2.8-4.4c0.2-0.9,0.2-1.9,0-2.8c-0.2-0.9-0.5-1.7-0.9-2.5 c-0.6-1.2-1.4-2.1-2.3-3c0.2-0.5,0.5-0.9,0.7-1.4c0.3-0.8,0.6-1.7,0.9-2.6c0.4-1.8,0.6-3.7,0.1-5.6c-0.2-1-0.7-1.9-1.2-2.7 c-0.6-0.8-1.3-1.5-2.1-2c-1.3-0.9-2.8-1.5-4.3-1.9c-0.1-0.5-0.2-1-0.3-1.5c-0.2-0.8-0.5-1.5-0.8-2.2c-0.7-1.4-1.9-2.7-3.4-3.4 c-0.7-0.3-1.6-0.5-2.3-0.6c-0.8-0.1-1.6,0-2.3,0.1c-1.5,0.3-2.8,0.8-4.1,1.4c-0.5-0.1-0.9-0.1-1.3-0.1c-0.5,0-1,0.1-1.4,0.3 c-0.5-2.8-1.1-5.7-1.9-8.5l-0.3-1.2l-0.1-0.3l-0.1-0.2l-0.1-0.2l-0.2-0.6c-0.3-0.8-0.7-1.6-1-2.4c-0.8-1.6-1.7-3.1-2.8-4.5 c-2.2-2.8-5-5.1-8.2-6.7c-3.2-1.5-6.6-2.4-10-2.7c-3.4-0.3-6.8-0.2-10.1,0.3c-1.7,0.2-3.3,0.5-4.9,0.9c-0.8,0.2-1.6,0.4-2.4,0.6 c-0.4,0.1-0.8,0.2-1.2,0.3c-2.5-1.8-5.2-3.5-8.1-4.8c-3.3-1.5-6.8-2.7-10.4-3.3c-3.6-0.6-7.3-0.7-11-0.2c-3.6,0.5-7.2,1.6-10.5,3.2 c-0.8,0.4-1.6,0.8-2.4,1.3c-0.4,0.2-0.8,0.5-1.2,0.8c-0.2,0.1-0.4,0.3-0.6,0.4c-0.1,0.1-0.1,0.1-0.2,0.1l-0.1,0.1l-0.3,0.2 c-1.4,1.2-2.7,2.3-3.9,3.6c-2.5,2.5-4.9,5.2-6.9,8c-2.3,3.1-4.2,6.5-5.7,10c0,0,0,0,0,0c-0.4-0.2-0.9-0.4-1.4-0.5 c-0.5-0.1-0.9,0-1.4,0c-1.2-0.7-2.6-1.3-4-1.7c-0.7-0.2-1.5-0.3-2.3-0.3c-0.8,0-1.6,0.1-2.3,0.4c-1.5,0.6-2.7,1.8-3.5,3.1 c-0.7,1.2-1.1,2.4-1.4,3.7c-1.5,0.3-3.1,0.7-4.5,1.6c-0.8,0.5-1.5,1.1-2.1,1.8c-0.6,0.7-1.1,1.6-1.4,2.5c-0.6,1.8-0.6,3.7-0.3,5.4 c0.3,1.5,0.7,2.9,1.3,4.3c-1,0.8-1.9,1.8-2.6,2.9c-0.9,1.4-1.5,3.1-1.3,4.9c0.2,1.8,1.2,3.3,2.4,4.4c0.6,0.6,1.2,1.1,1.8,1.5 c0.4,0.3,0.9,0.6,1.4,0.8c-0.3,1.2-0.5,2.5-0.4,3.9c0,0.8,0.2,1.6,0.4,2.4c0.3,0.8,0.7,1.6,1.3,2.2c1.2,1.3,2.9,1.8,4.4,2 c1.4,0.1,2.8,0,4.2-0.3l0.9,1.1c0.4,0.4,0.9,0.9,1.3,1.3c1,0.8,2.1,1.4,3.3,1.8c1.2,0.3,2.5,0.1,3.7-0.3c0.7-0.3,1.3-0.7,1.9-1.1 c0.3,0.8,0.6,1.7,0.9,2.5c1.2,3.3,2.6,6.4,4.3,9.5c1.7,2.9,3.2,5.9,4.4,9.1c1.2,3.1,2,6.4,2.1,9.8c0,1.7-0.1,3.4-0.6,5 c-0.4,1.6-1.1,3.2-2.3,4.5c1.2-1.2,2.1-2.8,2.6-4.4C99.7,173.2,100,171.5,100.1,169.7z M192.9,96.8c0.4-0.1,0.9-0.2,1.3-0.1 c0.4,0,0.9,0.1,1.3,0.3l0.1,0l0.2-0.1c1.3-0.5,2.7-0.8,4.1-0.9c1.4-0.1,2.7,0.1,3.8,0.7c1.1,0.6,1.8,1.6,2.3,2.8 c0.5,1.2,0.8,2.6,0.8,3.8l0,0.8l0.8,0.2c1.5,0.4,2.9,1.1,4.1,1.9c0.6,0.4,1.1,0.9,1.4,1.5c0.4,0.6,0.6,1.2,0.8,1.9 c0.3,1.3,0.2,2.8-0.2,4.3c-0.2,0.7-0.4,1.5-0.8,2.2c-0.3,0.7-0.7,1.4-1,2l-0.6,1l0.8,0.8c1,1,1.9,2,2.5,3.1 c0.6,1.1,0.9,2.2,0.7,3.3c-0.2,1.1-0.9,2.1-1.9,2.9c-0.9,0.8-2.2,1.6-3.3,2.1l-1,0.4l0.2,1c0.3,1.4,0.5,2.7,0.3,4 c0,0.6-0.2,1.2-0.4,1.8c-0.2,0.6-0.5,1-0.9,1.4c-0.8,0.8-2,1.2-3.3,1.3c-1.3,0.1-2.8,0-4.1-0.3l-0.6-0.1l-0.3,0.4l-1.1,1.3 c-0.4,0.4-0.8,0.8-1.2,1.2c-0.9,0.7-1.8,1.3-2.9,1.6c-1.1,0.3-2.2,0.2-3.3-0.2c-0.7-0.2-1.3-0.6-1.9-1c1-2.6,1.9-5.2,2.6-7.9 c0-0.1,0-0.2,0.1-0.3c2,0.2,4,0,5.9-0.5c2.3-0.7,4.6-1.8,6.5-3.4c1.9-1.6,3.5-3.6,4.6-5.8c1.1-2.3,1.7-4.7,1.8-7.2 c0.1-2.5-0.4-5-1.4-7.3c-1-2.3-2.4-4.4-4.2-6.1c-1.8-1.7-4-3-6.3-3.8c-0.6-0.2-1.2-0.3-1.8-0.5c-0.6-0.1-1.2-0.2-1.8-0.3l-1.8-0.1 l-0.1,0c-0.2-1.1-0.3-2.3-0.5-3.4C193,97.2,192.9,97,192.9,96.8C192.9,96.8,192.9,96.8,192.9,96.8z M194.1,106.4 c2.6,0.7,4.9,2.2,6.5,4.1c1.9,2.3,3,5.3,2.9,8.2c-0.1,3-1.3,5.9-3.4,8c-1.8,1.9-4.2,3.2-6.9,3.7c0.8-4.5,1.2-9.1,1.3-13.7 C194.6,113.4,194.4,109.9,194.1,106.4z M193.2,130.9c2.9,0.1,5.9-0.9,8.2-2.9c2.6-2.2,4.3-5.7,4.4-9.2c0-1.8-0.3-3.5-0.9-5.2 c-0.7-1.6-1.6-3.1-2.9-4.3c-2.1-2.1-5-3.3-7.8-3.4c-0.1-1.6-0.3-3.2-0.5-4.8l0,0l1.7,0.4l1.7,0.5c0.5,0.2,1.1,0.4,1.6,0.7 c2.1,1,3.9,2.3,5.5,4c3.1,3.3,4.8,7.7,4.6,12.2c-0.1,4.4-2,8.8-5.3,11.9c-1.6,1.5-3.5,2.8-5.7,3.7c-1.7,0.7-3.6,1.1-5.6,1.3 C192.5,134.1,192.9,132.5,193.2,130.9z M85,100.1c0,0.1,0,0.1,0,0.2c-2.5,0.1-5.1,1.1-7.1,2.7c-1.3,1.1-2.4,2.5-3.2,4.1 c-0.8,1.6-1.2,3.3-1.3,5.1c-0.2,3.5,1.2,7.1,3.6,9.5c2,2,4.6,3.2,7.3,3.5c0.3,1.6,0.6,3.3,0.9,4.9c-1.8-0.3-3.5-0.9-5.1-1.7 c-2.1-1-3.9-2.4-5.4-4.1c-3-3.4-4.6-7.8-4.3-12.3c0.2-4.4,2.3-8.7,5.6-11.8c1.7-1.5,3.6-2.7,5.8-3.5c0.5-0.2,1.1-0.4,1.6-0.5 l1.7-0.4l1.2-0.2C85.8,97.1,85.4,98.6,85,100.1z M83.7,121.1c0.1,1.2,0.3,2.3,0.5,3.5c-2.4-0.8-4.4-2.2-5.9-4.1 c-1.9-2.3-2.9-5.3-2.7-8.3c0.1-3,1.4-5.8,3.5-8c1.6-1.6,3.6-2.7,5.8-3.4C83.4,107.6,83.1,114.4,83.7,121.1z M85.6,139.6 c-1.1,0.3-2.3,0.3-3.4,0c-1.1-0.4-2-1-2.8-1.8c-0.4-0.4-0.8-0.9-1.1-1.3l-1-1.4l-0.2-0.3l-0.4,0.1c-1.3,0.2-2.8,0.3-4.1,0.1 c-1.3-0.2-2.6-0.7-3.4-1.6c-0.8-0.9-1.1-2.2-1.1-3.5c0-1.3,0.3-2.7,0.7-4.1l0.2-0.8l-0.8-0.4c-1.2-0.6-2.3-1.5-3.3-2.4 c-0.9-1-1.6-2.1-1.8-3.2c-0.2-1.2,0.2-2.4,1-3.5c0.7-1.1,1.7-2.1,2.8-3l0.7-0.5l-0.4-0.8c-0.7-1.3-1.2-2.9-1.5-4.4 c-0.3-1.5-0.3-3.1,0.2-4.4c0.2-0.7,0.6-1.3,1-1.9c0.4-0.6,1-1,1.6-1.4c1.3-0.8,2.8-1.3,4.3-1.6l0.6-0.1l0.1-0.6 c0.1-1.3,0.5-2.6,1.1-3.8c0.6-1.2,1.5-2.2,2.7-2.7c0.6-0.3,1.2-0.4,1.9-0.5c0.7,0,1.3,0,2,0.1c1.4,0.2,2.7,0.7,4,1.3l0.1,0.1l0.1,0 c0.4-0.1,0.9-0.2,1.3-0.2c0.4,0,0.9,0.1,1.3,0.3c0,0,0,0,0,0c-0.6,1.3-1.1,2.6-1.6,4l-1.4,0c-0.6,0-1.2,0.1-1.8,0.1 c-0.6,0.1-1.2,0.2-1.8,0.3c-2.4,0.6-4.6,1.7-6.5,3.3c-1.9,1.5-3.5,3.5-4.7,5.7c-1.1,2.2-1.8,4.7-1.9,7.2c-0.1,2.5,0.3,5,1.2,7.4 c0.9,2.3,2.3,4.5,4.1,6.2c1.8,1.7,3.9,3.1,6.2,3.9c1.8,0.7,3.7,1,5.5,1c0.6,2.8,1.4,5.6,2.3,8.4C87,139.1,86.3,139.4,85.6,139.6z" style="fill: inherit;"/><path d="M90.3,201.3c-1.7-1.9-2.6-4.5-2.4-7c0.1-2.5,1.3-5,3.2-6.7c0.9-0.9,2.1-1.6,3.3-2c0.3-0.1,0.6-0.2,0.9-0.3l1-0.2 c0.7-0.1,1.3-0.2,2-0.2l-1-0.1l-1,0c-0.3,0-0.7,0-1,0.1c-0.3,0.1-0.7,0.1-1,0.2c-1.4,0.3-2.7,1-3.8,1.9c-1.1,0.9-2.1,2-2.7,3.3 c-0.7,1.3-1,2.7-1.1,4.2c-0.1,1.5,0.2,2.9,0.7,4.3c0.5,1.3,1.3,2.6,2.4,3.6c2,2,5,3,7.7,2.7C94.5,204.5,92,203.3,90.3,201.3z" style="fill: inherit;"/><path d="M99,188.5c-1.9-0.4-4,0.1-5.5,1.4c-0.8,0.6-1.4,1.4-1.9,2.4c-0.5,0.9-0.7,1.9-0.8,2.9c0,1,0.1,2.1,0.5,3 c0.4,0.9,0.9,1.8,1.7,2.5c1.4,1.4,3.5,2.2,5.3,1.9c-1.8-0.4-3.4-1.4-4.5-2.7c-1.1-1.3-1.6-3-1.5-4.7c0.1-1.7,0.8-3.3,2-4.5 C95.4,189.5,97.1,188.7,99,188.5z" style="fill: inherit;"/><path d="M89.2,208.7l0.5,0.6c0.3,0.3,0.5,0.5,0.8,0.8c0.6,0.5,1.2,0.8,1.9,1c0.7,0.2,1.5,0.1,2.1-0.2c0.7-0.3,1.2-0.7,1.7-1.2 c-0.5,0.4-1.1,0.8-1.8,1c-0.6,0.2-1.3,0.2-1.9,0c-0.6-0.2-1.1-0.6-1.6-1c-0.2-0.2-0.4-0.5-0.6-0.7l-0.6-0.8l-0.2-0.2l-0.3,0.1 c-0.8,0.1-1.6,0.1-2.4,0c-0.8-0.1-1.5-0.4-1.9-0.9c-0.4-0.5-0.6-1.2-0.6-2c0-0.4,0.1-0.8,0.1-1.1l0.3-1.2l0.1-0.5l-0.5-0.3 c-0.6-0.3-1.3-0.8-1.8-1.4c-0.5-0.5-0.9-1.2-1-1.8c-0.1-0.6,0.1-1.3,0.5-1.9c0.2-0.3,0.5-0.6,0.7-0.9l0.9-0.8l0.4-0.4l-0.2-0.5 c-0.4-0.8-0.7-1.7-0.8-2.5c-0.2-0.9-0.2-1.7,0.1-2.5c0.2-0.8,0.7-1.5,1.5-1.9c0.3-0.3,0.8-0.4,1.2-0.6c0.4-0.1,0.9-0.2,1.3-0.4 l0.4-0.1l0-0.3c0.1-0.7,0.3-1.5,0.6-2.2c0.3-0.7,0.9-1.3,1.5-1.6c0.7-0.3,1.5-0.4,2.3-0.3c0.4,0.1,0.8,0.2,1.2,0.3l1.2,0.4 l-1.1-0.6c-0.4-0.2-0.8-0.3-1.2-0.4c-0.6-0.2-1.3-0.2-2-0.1c1.8-2.6,10.3-15.7-1.2-25.7c0,0,4,11.4-11.6,15.6c0,0,0.6,5.8,12,10.3 c-0.8,0.3-1.4,0.9-1.8,1.6c-0.4,0.7-0.6,1.4-0.8,2.1c-0.4,0.1-0.8,0.2-1.2,0.3c-0.5,0.2-1,0.3-1.4,0.6c-0.2,0.2-0.5,0.3-0.7,0.5 l-0.6,0.6c-0.2,0.2-0.3,0.5-0.5,0.7c-0.2,0.2-0.2,0.5-0.3,0.8c-0.4,1-0.4,2.1-0.2,3.2c0.1,0.8,0.4,1.6,0.7,2.4l-0.6,0.6 c-0.3,0.4-0.6,0.7-0.9,1.1c-0.5,0.8-0.9,1.8-0.7,2.9c0.1,1.1,0.7,1.9,1.4,2.6c0.5,0.5,1.1,1,1.8,1.3l-0.2,0.8 c0,0.5-0.1,0.9-0.1,1.4c0,0.9,0.3,2,1,2.7c0.7,0.8,1.7,1.1,2.6,1.2C87.6,209,88.4,208.9,89.2,208.7z" style="fill: inherit;"/><path d="M166.5,204.9c-1.3,1.1-3,1.8-4.9,1.9c1.8,0.6,4,0.2,5.6-1c0.8-0.6,1.5-1.3,2.1-2.2c0.5-0.9,0.9-1.9,1-2.9 c0.1-1,0-2.1-0.2-3c-0.3-1-0.8-1.9-1.4-2.7c-1.3-1.5-3.3-2.4-5.2-2.4c1.8,0.5,3.3,1.6,4.3,3.1c1,1.4,1.4,3.2,1.2,4.8 C168.7,202.2,167.8,203.7,166.5,204.9z" style="fill: inherit;"/><path d="M194.9,86.4l1.8-2l1.8-1.9c1.3-1.2,2.5-2.4,3.9-3.5c1.3-1.1,2.8-2.1,4.2-3c0.7-0.4,1.5-0.9,2.2-1.2 c0.7-0.4,1.6-0.7,2.3-0.9l0,0l0.1,0c3.3-1,6.7-1.7,10.1-1.7c1.7,0,3.4,0.2,5,0.5c1.6,0.4,3.2,0.9,4.7,1.7c3,1.5,5.4,3.8,7.4,6.4 c2,2.7,3.5,5.7,4.4,8.9c0.5,1.6,0.8,3.2,1.1,4.9c0.1,0.8,0.2,1.7,0.2,2.5l0.1,2.6c0.1,0.9,0.1,1.8,0.2,2.7l0.3,2.7 c0.1,0.9,0.3,1.8,0.4,2.7c0.2,0.9,0.3,1.8,0.5,2.7c0.8,3.5,2,7,3.6,10.3c0.9,1.6,1.7,3.3,2.9,4.8c0.4,0.6,0.9,1.2,1.4,1.7 c-0.9,0.3-1.9,0.6-2.8,1.1c-1.9,0.9-3.7,2-5.3,3.3c-3.3,2.5-6,5.5-8.5,8.7c-2.5,3.2-4.7,6.5-6.7,9.9c-1,1.7-2,3.4-2.9,5.2 c-0.9,1.8-1.7,3.5-2.8,5c-2,3.2-4.6,6-7.6,8.3c-3,2.3-6.5,4-10.2,4.8c-3.7,0.8-7.6,0.5-11.2-1c-1.8-0.7-3.5-1.7-5.1-2.8 c-1.6-1.1-3.1-2.4-4.3-3.9c2.3,3.2,5.4,5.8,9,7.6c3.6,1.8,7.8,2.4,11.8,1.8c2-0.3,4-0.9,5.8-1.7c1.9-0.8,3.7-1.8,5.3-2.9 c3.4-2.3,6.3-5.2,8.6-8.6c1.2-1.7,2.1-3.5,3.1-5.2c1-1.7,2-3.3,3-5c2-3.3,4.3-6.4,6.7-9.4c2.4-3,5.1-5.7,8-8c2.9-2.3,6.3-4,9.7-4.3 l4.5-0.4l-3.6-2.8c-0.2-0.2-0.5-0.5-0.8-0.7c-0.3-0.3-0.6-0.6-0.8-0.9c-0.5-0.6-1-1.3-1.5-1.9c-1-1.3-1.8-2.8-2.6-4.3 c-1.5-3-2.6-6.2-3.4-9.5c-0.8-3.3-1.3-6.7-1.5-10.1c-0.1-0.9-0.1-1.7-0.2-2.6c-0.1-0.9-0.2-1.8-0.3-2.7c-0.3-1.8-0.7-3.6-1.3-5.4 c-1.1-3.5-2.9-6.9-5.2-9.8c-2.3-2.9-5.2-5.4-8.6-7c-0.8-0.4-1.7-0.7-2.6-1c-0.4-0.2-0.9-0.2-1.4-0.4c-0.5-0.1-0.9-0.2-1.4-0.3 c-1.8-0.3-3.7-0.4-5.5-0.3c-3.7,0.2-7.2,1.1-10.5,2.3l0.1,0c-1,0.3-1.8,0.7-2.6,1.2c-0.8,0.4-1.5,0.9-2.3,1.4 c-1.5,1-2.8,2.2-4.1,3.4c-1.3,1.2-2.5,2.5-3.7,3.8l-1.7,2L194.9,86.4z" style="fill: inherit;"/><path d="M129.6,45.2c4.7-1.1,9.6-1.6,14.4-1.4c-0.3,1.2-0.6,2.4-0.7,3.7c-0.7,6.1,2.7,8.6,5,9.6c1.4,0.6,3.1,0.8,4.6,0.5 c5.4-1.1,5.5-7.9,5.2-11.3c0.7,0.2,1.4,0.5,2.1,0.7c0.6,0.2,1.2,0.4,1.8,0.6l1.8,0.8l1.8,0.8l0.9,0.4l0.9,0.5l3.5,1.9 c0.6,0.3,1.1,0.7,1.7,1l1.7,1.1c8.9,5.7,16.7,13.1,23.9,21c-6.1-8.9-13.4-17-22.3-23.3c-4.4-3.3-9.3-5.8-14.4-7.9 c-1.3-0.5-2.6-1-3.9-1.4c-0.5-3-1.3-6.2-2.1-8.8c0.9,0.2,1.8,0.5,2.7,0.7c3.6,1.1,7,2.7,10.3,4.4c6.5,3.8,12.4,8.9,17.7,14.6 c-4.1-6.6-9.6-12.5-16.2-17c-0.8-0.6-1.7-1-2.6-1.6l-1.3-0.8l-1.4-0.7c-0.9-0.4-1.8-0.9-2.7-1.3l-2.8-1.1c-1.6-0.5-3.3-1-5-1.3 c-0.3-0.9-0.4-1.4-0.4-1.4c-0.4,0.3-0.7,0.7-1,1.1c-1.8-0.3-3.6-0.5-5.4-0.7c-4-0.3-8.1,0.1-12,0.8c-3.9,0.7-7.8,1.9-11.4,3.4 c-7.3,3-14.2,7.1-19.9,12.5c6.6-4.1,13.6-7.4,20.8-9.8c7.2-2.3,14.8-3.6,22.2-3.2c1,0.1,1.9,0.1,2.9,0.3c-1.6,2.1-3,4.1-3.9,5.8 c-0.3,0.6-0.6,1.2-0.9,1.7c0,0,0,0-0.1,0c-5.5-0.3-11.1,0.3-16.5,1.6c-5.3,1.4-10.5,3.4-15.2,6.1c-4.8,2.6-9.2,5.8-13.4,9.3 c-4.1,3.6-7.9,7.4-11.1,11.7c7.6-7.5,16.3-13.9,25.8-18.5C119.6,48.3,124.5,46.4,129.6,45.2z" style="fill: inherit;"/><path d="M134,24.5c5.4-1.4,10.9-1.9,16.3-1.3c5.4,0.6,10.6,2.2,15.5,4.8c4.9,2.6,9.4,6,13.7,9.8c-3.2-4.8-7.3-9-12.2-12.2 c-4.9-3.2-10.6-5.4-16.6-6c-5.9-0.6-11.9,0.2-17.5,2.2c-5.5,2-10.6,4.9-14.8,8.9c2.5-1.4,5.1-2.6,7.7-3.6 C128.6,26.1,131.3,25.2,134,24.5z" style="fill: inherit;"/><path d="M165,14.7c3.9,2.1,7.5,4.8,11,7.9c-2.6-3.8-5.9-7.2-9.9-9.8c-12-8.3-29-5.7-39.3,4.1C138.6,10.3,152.9,8,165,14.7z" style="fill: inherit;"/><path d="M165.6,7.8c-6-9.1-18-10.3-25.9-3C149.1-0.4,157.7,0.5,165.6,7.8z" style="fill: inherit;"/><path d="M122.3,114.8c-1.2-1.5-2.7-2.9-4.3-4c-1.6-1.2-3.4-2.1-5.3-2.7c-3.8-1.2-8-1-11.7,0.1c-3.8,1.1-7.2,3.1-10.1,5.5 c3.4-1.6,6.9-3.1,10.5-3.8c0.9-0.2,1.8-0.3,2.7-0.4c0.4-0.1,0.9-0.1,1.4-0.1l0.7,0l0.7,0c0.4,0,0.9,0,1.3,0.1l1.3,0.2l1.3,0.3 c0.4,0.1,0.9,0.2,1.3,0.4c3.4,1,6.5,3.2,9,5.8c2.6,2.6,4.7,5.7,6.5,9.1C126.6,121.3,124.7,117.8,122.3,114.8z" style="fill: inherit;"/><path d="M154.7,122.2c1.3-1.2,2.6-2.2,4.1-3.1c2.9-1.8,6-3,9.3-3.5c1.6-0.3,3.3-0.4,5-0.3c1.7,0,3.4,0.2,5,0.5 c1.7,0.3,3.3,0.7,5,1.2c0.8,0.2,1.7,0.5,2.6,0.7c0.9,0.2,1.7,0.4,2.6,0.4c-1.7-0.6-3.2-1.3-4.8-2.1c-0.8-0.3-1.6-0.7-2.5-1 c-0.8-0.3-1.7-0.6-2.5-0.8c-3.4-1-7.1-1.3-10.7-0.7c-1.8,0.3-3.6,0.8-5.2,1.5c-1.7,0.7-3.3,1.6-4.7,2.7c-1.4,1.1-2.7,2.3-3.9,3.7 c-1.1,1.4-2.1,2.9-2.8,4.5C152.3,124.6,153.5,123.3,154.7,122.2z" style="fill: inherit;"/><path d="M105.3,114.2l0.8,0l0.8,0.1c0.5,0.1,1.1,0.1,1.6,0.2l1.6,0.4c0.5,0.1,1,0.3,1.6,0.5c0.5,0.2,1,0.3,1.5,0.6 c2,0.8,3.8,2.1,5.5,3.5c1.6,1.4,3.1,3.1,4.4,5c-0.7-2.2-2-4.1-3.6-5.8c-1.6-1.7-3.5-3.1-5.7-4c-0.5-0.3-1.1-0.4-1.6-0.6 c-0.6-0.2-1.1-0.4-1.7-0.5l-1.7-0.3c-0.6,0-1.2-0.1-1.7-0.1l-0.9,0c-0.3,0-0.6,0-0.9,0.1l-1.7,0.2c-1.1,0.2-2.2,0.5-3.3,0.8 c1.1,0,2.3-0.1,3.4-0.1L105.3,114.2z" style="fill: inherit;"/><path d="M103.5,133.1c0.6,0.3,1.1,0.5,1.7,0.7c2.3,0.8,4.9,1.1,7.3,0.7c2.4-0.3,4.7-1.1,6.7-2.5c-2.3,0.5-4.6,0.8-6.8,0.8 c-2.2,0-4.4-0.4-6.4-1.1c-1-0.4-2-0.8-3-1.4c-0.5-0.2-0.9-0.6-1.4-0.9l-0.7-0.5c-0.2-0.2-0.5-0.3-0.7-0.5c-1.7-1.4-3.3-3-4.9-4.8 c0.8,2.2,2.1,4.3,3.8,6.1c0.8,0.9,1.8,1.7,2.8,2.4C102.4,132.5,103,132.8,103.5,133.1z" style="fill: inherit;"/><path d="M108.8,129.2c3,0,5.5-2.3,5.9-5.2c0.8,0.5,1.6,1.1,2.4,1.7c2.6,2.1,5.1,4.5,7.2,7.3c-1.4-3.2-3.5-6.1-6.1-8.6 c-1.3-1.2-2.7-2.3-4.3-3.2c-1.6-0.9-3.2-1.6-5-2.2c-1.7-0.5-3.6-0.8-5.4-0.8c-1.8,0-3.6,0.1-5.4,0.6c-0.9,0.2-1.7,0.4-2.6,0.7 l-0.6,0.2c-0.2,0.1-0.4,0.1-0.6,0.2c-0.4,0.1-0.8,0.1-1.2,0.1c-0.8,0-1.5-0.2-2.2-0.7c-0.7-0.4-1.2-1.1-1.7-1.9 c0.3,0.8,0.7,1.7,1.3,2.3c0.6,0.7,1.5,1.1,2.5,1.3c0.5,0.1,1,0.1,1.4,0.1c0.2,0,0.5,0,0.7-0.1l0.7-0.1c0.8-0.2,1.6-0.3,2.5-0.4 c1.7-0.2,3.4-0.3,5.1-0.2c-0.5,0.9-0.8,1.9-0.8,3C102.8,126.6,105.5,129.2,108.8,129.2z" style="fill: inherit;"/><path d="M185.3,125.5c0.5,0,1-0.2,1.4-0.4c0.7-0.5,1.2-1.3,1.5-2.1c-0.5,0.7-1.1,1.3-1.8,1.5c-0.3,0.1-0.7,0.2-1,0.1l-1.2-0.3 c-1.6-0.4-3.2-0.7-4.9-0.9c-3.3-0.5-6.7-0.5-10,0.1c-3.3,0.6-6.7,1.9-9.2,4.4c-2.5,2.4-4,5.8-3.8,9.1c0.7-3,2.3-5.6,4.5-7.5 c0.7,2.8,3.2,4.8,6.2,4.8c3.5,0,6.4-2.9,6.4-6.4c0-1-0.2-1.9-0.6-2.7c0.5,0,1.1-0.1,1.7-0.1c1.6-0.1,3.2-0.1,4.8,0 c1.6,0.1,3.2,0.2,4.8,0.3L185.3,125.5z" style="fill: inherit;"/><path d="M176.4,132.9l-0.6,0.5c-0.4,0.3-0.8,0.7-1.3,0.9c-0.9,0.6-1.8,1.1-2.7,1.6c-1.9,0.9-3.9,1.4-6.1,1.6 c-2.1,0.2-4.3,0.1-6.6-0.1c2,1.2,4.3,1.7,6.6,1.8c2.3,0.1,4.7-0.3,6.9-1.3c1.1-0.5,2.1-1.1,3-1.9c0.9-0.7,1.8-1.6,2.5-2.5 c1.4-1.9,2.4-4,3-6.2c-1.3,1.8-2.7,3.6-4.2,5.1C176.8,132.6,176.6,132.7,176.4,132.9z" style="fill: inherit;"/><path d="M159.5,125.9c2-1.7,4.2-3,6.6-3.9l1.8-0.6c0.6-0.2,1.3-0.3,1.9-0.5l0.9-0.2c0.3-0.1,0.6-0.1,1-0.1c0.6-0.1,1.3-0.2,1.9-0.3 c0.6-0.1,1.3-0.1,2-0.1l2-0.1c1.3,0,2.6,0,4,0c-1.3-0.3-2.6-0.5-4-0.7c-1.3-0.1-2.7-0.2-4-0.1c-0.7,0-1.4,0.1-2,0.2 c-0.3,0-0.7,0-1,0.1l-1,0.2c-0.7,0.1-1.3,0.3-2,0.4l-2,0.6c-2.6,1-5,2.4-6.9,4.4c-1.9,1.9-3.4,4.3-4.1,7 C155.9,129.6,157.6,127.5,159.5,125.9z" style="fill: inherit;"/><path d="M155.9,95.4c1-1.8,1.3-3.8,1.1-5.7c-0.3-1.9-1.1-3.7-2.4-5c0.8,1.6,1.2,3.4,1,5c0,0.4-0.1,0.8-0.2,1.2 c-0.1,0.4-0.2,0.8-0.3,1.2c-0.3,0.8-0.6,1.5-1.1,2.1c-0.9,1.3-2.2,2.3-3.6,2.8c-1.4,0.6-3,0.8-4.4,0.5c-3-0.5-5.6-2.8-6.5-5.8 c-0.9-3-0.1-6.7,2.6-9.2c-1.7,0.8-3.1,2.2-3.9,3.9c-0.4,0.9-0.7,1.8-0.9,2.8c-0.2,1-0.1,2,0,3c0.3,2,1.3,3.9,2.8,5.4 c1.5,1.5,3.4,2.5,5.4,2.8c2,0.3,4.2,0,6.1-0.9C153.3,98.7,154.9,97.2,155.9,95.4z" style="fill: inherit;"/><path d="M141.8,104.6c0,1.9,1.5,3.4,3.4,3.4s3.4-1.5,3.4-3.4c0-1.9-1.5-3.4-3.4-3.4S141.8,102.7,141.8,104.6z" style="fill: inherit;"/><path d="M136.8,149.5c-2.4,0-4.4,2-4.4,4.4c0,2.4,2,4.4,4.4,4.4c2.4,0,4.4-2,4.4-4.4C141.2,151.4,139.2,149.5,136.8,149.5z" style="fill: inherit;"/><path d="M104.5,229.3c1.3,5.2,3,10.3,5.1,15.2c2.2,4.9,4.8,9.7,8,14c3.2,4.3,6.9,8.4,11.2,11.7c4.3,3.3,9,6,14,7.8 c5,1.9,10.3,2.9,15.6,3.3c-5.1-1.2-10.2-2.7-14.9-4.9c-2.3-1.1-4.6-2.3-6.8-3.8c-2.1-1.4-4.2-2.9-6.2-4.6c-1.9-1.7-3.7-3.5-5.5-5.4 c-1.7-1.9-3.3-4-4.7-6.1c-2.9-4.2-5.4-8.8-7.4-13.5c-2.1-4.7-3.8-9.6-5.2-14.6c-1.4-5-2.5-10.1-3.4-15.2c-0.9-5.1-1.5-10.3-2-15.6 c-0.5-5.2-0.8-10.5-0.8-15.7c-0.7,5.2-0.9,10.5-0.9,15.8c0,5.3,0.3,10.6,1,15.9C102.2,218.8,103.2,224.1,104.5,229.3z" style="fill: inherit;"/><path d="M202,266.3c8.9-4.5,16.7-12.2,20-21.8c2.2-6.5,2.9-13.3,1.4-20c-1.6-6.8-6.2-13.3-13.1-15.5c-6.7-2-14.1-0.9-19.9,3 c-11.9,8.1-13.9,26.8,0,33.8c4.5,2.1,10,2.3,14.4,0c4.5-2.3,6-7.8,5.8-12.5c-0.1,1.6-0.3,3.2-0.7,4.7c-2.1,8.5-11.9,9.7-18.6,6.2 c-5.2-2.8-8.3-8.9-7.8-14.7c0.6-7.2,5.9-13.9,12.7-16.2c4-1.3,8.8-1.5,12.6-0.1c5.4,1.9,8.8,7.2,10,12.6c1.2,5.7,0.4,11.8-1.5,17.3 c-4,11.3-14.7,19-26.1,22.1c-23,6.1-41.7-5-50.4-26.6c-9-22.7-8.7-50.2-5.9-74.2c-5.8,28.3-7.7,69.2,12,92.6 c6.5,7.6,15.8,13,25.8,14.3C182.8,272.5,193.1,270.8,202,266.3z" style="fill: inherit;"/><path d="M155.5,225.2c0.3,1.4,0.5,2.8,0.8,4.1c0.7,2.7,1.6,5.4,2.9,7.9c0.6,1.3,1.3,2.5,2.1,3.7l1.2,1.7c0.4,0.6,0.8,1.1,1.3,1.7 c1.7,2.2,3.8,4.1,6,5.7c-1.6-2.2-3.2-4.4-4.5-6.8c-0.7-1.1-1.3-2.4-1.9-3.5c-0.5-1.2-1.1-2.4-1.5-3.7c-0.5-1.2-0.9-2.5-1.2-3.7 c-0.3-1.3-0.7-2.5-0.9-3.8c-0.5-2.6-0.9-5.2-1-7.8c-0.1-2.6-0.1-5.3,0-7.9c0.2-2.6,0.5-5.3,0.9-7.9c0.9-5.3,2.1-10.5,3.8-15.7 c-3,4.6-5.1,9.8-6.6,15.1c-0.7,2.7-1.2,5.4-1.6,8.2c-0.3,2.8-0.4,5.6-0.2,8.4C155.2,222.4,155.3,223.8,155.5,225.2z" style="fill: inherit;"/><path d="M186.4,187.9c-13.2-9.4-5.6-18.7-5.6-18.7c-14.1,5.3-10.9,20.3-10,23.6c-0.7-0.5-1.4-0.9-2.1-1.2c-0.3-0.1-0.7-0.2-1-0.3 c-0.3-0.1-0.7-0.1-1-0.2l-1-0.1l-1,0c0.7,0.2,1.3,0.3,2,0.5l0.9,0.3c0.3,0.1,0.6,0.3,0.9,0.4c1.2,0.6,2.2,1.5,3,2.5 c1.6,2,2.5,4.5,2.3,7.1c-0.2,2.5-1.4,4.9-3.3,6.6c-1.9,1.7-4.5,2.6-7.3,2.6c2.7,0.6,5.7,0,8-1.7c1.2-0.9,2.1-2,2.8-3.2 c0.7-1.3,1.1-2.7,1.2-4.2c0.1-1.5-0.1-2.9-0.6-4.3c-0.5-1.4-1.3-2.6-2.3-3.6c-0.2-0.2-0.4-0.4-0.6-0.6c2.2-0.1,4.2-0.3,5.8-0.6 c0.6,0.5,1.1,1.1,1.3,1.8c0.2,0.8,0.2,1.7,0.1,2.5c-0.2,0.9-0.5,1.8-0.8,2.5l-0.3,0.5l0.4,0.4c0.6,0.5,1.2,1.1,1.6,1.7 c0.4,0.6,0.6,1.3,0.5,1.9c-0.1,0.6-0.5,1.3-1,1.8c-0.5,0.5-1.2,1-1.8,1.4l-0.5,0.3l0.1,0.5c0.2,0.8,0.4,1.6,0.4,2.3 c0,0.8-0.2,1.5-0.6,2c-0.4,0.5-1.1,0.8-1.9,0.9c-0.8,0.1-1.6,0.1-2.4,0l-0.3-0.1l-0.1,0.2c-0.7,1.1-1.6,2.2-2.8,2.6 c-0.6,0.2-1.3,0.2-1.9,0c-0.6-0.2-1.3-0.5-1.8-1c0.5,0.5,1,0.9,1.7,1.2c0.7,0.3,1.4,0.4,2.1,0.2c0.7-0.2,1.4-0.5,1.9-1 c0.5-0.4,0.9-0.9,1.3-1.4c0.8,0.2,1.6,0.3,2.4,0.2c0.9-0.1,1.9-0.4,2.6-1.2c0.7-0.8,1-1.8,1-2.7c0-0.8-0.1-1.5-0.2-2.2 c0.7-0.4,1.2-0.8,1.8-1.3c0.7-0.7,1.2-1.5,1.4-2.6c0.2-1.1-0.2-2.1-0.7-2.9c-0.4-0.7-1-1.2-1.5-1.7c0.3-0.8,0.6-1.6,0.7-2.4 c0.2-1,0.2-2.1-0.2-3.2c-0.2-0.5-0.5-1-0.8-1.4c-0.1-0.1-0.2-0.2-0.3-0.3C184.9,191,186.4,187.9,186.4,187.9z" style="fill: inherit;"/><path d="M70.7,208.7l-0.2,1.8l-0.3,1.8c-0.1,0.6-0.2,1.2-0.3,1.8l-0.4,1.8l-0.4,1.9c-0.1,0.7-0.3,1.3-0.4,2 c-0.4,2.7-0.4,5.6,0.3,8.3c0.3,1.4,0.8,2.7,1.4,4c0.6,1.3,1.4,2.5,2.2,3.6c1.7,2.2,3.9,3.9,6.2,5.2c2.3,1.3,4.8,2.2,7.4,2.5 c-4.5-2.4-8.4-5.7-10.8-9.7c-0.6-1-1.1-2-1.5-3.1c-0.4-1.1-0.7-2.2-0.9-3.3c-0.4-2.2-0.3-4.6,0-6.9c0-0.6,0.2-1.2,0.3-1.7l0.4-1.9 c0.2-1.3,0.5-2.6,0.6-3.9l0.2-2l0.1-2c0.1-1.3,0-2.7-0.1-4c-0.2-2.6-0.7-5.3-1.6-7.8l-0.4-0.9l-0.4-0.9c-0.3-0.6-0.6-1.2-1-1.7 c-0.7-1.1-1.6-2.2-2.7-2.9c1.4,2.1,2,4.6,2.4,7c0.4,2.4,0.4,4.9,0.3,7.3C71,206.3,70.9,207.5,70.7,208.7z" style="fill: inherit;"/><path d="M26.7,209.6l-1,2.2c-0.3,0.7-0.7,1.5-1,2.3c-0.6,1.6-1.2,3.1-1.7,4.7c-1,3.2-1.7,6.5-2.1,9.9c-0.2,1.7-0.2,3.4-0.2,5.1 c0.1,1.7,0.3,3.5,0.7,5.2c0.4,1.7,1,3.4,1.8,5c0.8,1.6,1.8,3.2,3,4.5c0.3,0.4,0.6,0.7,0.9,1c0.3,0.3,0.6,0.6,1,0.9 c0.7,0.6,1.4,1.2,2.1,1.6l1.1,0.7l1.2,0.6c0.8,0.4,1.6,0.8,2.4,1.1c3.3,1.3,7,1.7,10.6,1.1c1.8-0.3,3.6-0.9,5.2-2 c1.6-1,3-2.4,3.9-4.1c0.9-1.6,1.5-3.4,1.7-5.2c0.1-0.4,0.1-0.9,0.2-1.3c0-0.4,0.1-0.9,0.1-1.3l0-1.3c0-0.4,0-0.9-0.1-1.4 c-0.2-1.8-0.9-3.6-2-5.1c-0.3-0.4-0.5-0.7-0.8-1c-0.3-0.3-0.6-0.7-0.8-0.9c-0.4-0.5-0.7-1.1-0.9-1.7c-0.2-0.6-0.2-1.3-0.1-2 c0.1-0.3,0.2-0.7,0.3-1c0.1-0.3,0.3-0.7,0.5-1c0.4-0.7,0.8-1.3,1.3-2l0.4-0.5c0.1-0.2,0.3-0.4,0.4-0.6c0.2-0.4,0.4-0.8,0.6-1.2 c0.3-0.8,0.5-1.7,0.6-2.5c0-0.9-0.1-1.7-0.3-2.5c-0.5-1.6-1.4-3-2.5-4.2c0.9,1.3,1.7,2.8,1.9,4.3c0.1,0.8,0.1,1.5,0,2.3 c-0.1,0.7-0.4,1.5-0.7,2.1c-0.2,0.3-0.4,0.6-0.6,0.9c-0.1,0.1-0.2,0.3-0.3,0.4l-0.4,0.5c-0.6,0.6-1.1,1.3-1.6,2 c-0.2,0.4-0.5,0.7-0.7,1.1c-0.2,0.4-0.4,0.9-0.5,1.3c-0.3,0.9-0.3,1.9-0.2,2.9c0.2,1,0.5,1.9,1.1,2.7c0.3,0.4,0.5,0.7,0.7,1 c0.2,0.3,0.4,0.6,0.6,0.9c0.7,1.2,1.1,2.6,1.2,4c0,0.4,0,0.7,0,1.1l-0.1,1.1c0,0.4-0.1,0.7-0.1,1.1c-0.1,0.4-0.1,0.7-0.2,1.1 c-0.3,1.4-0.8,2.8-1.5,3.9c-0.7,1.2-1.7,2.1-2.9,2.7c-1.2,0.7-2.5,1.1-3.9,1.3c-2.8,0.4-5.8,0-8.4-1.1c-2.7-1.2-5.2-2.8-7-5 c-1-1.1-1.7-2.3-2.4-3.6c-0.6-1.3-1.1-2.7-1.4-4.1c-0.3-1.4-0.5-2.9-0.6-4.4c-0.1-1.5,0-3,0.1-4.6c0.3-3.1,0.9-6.1,1.8-9.1 c0.4-1.5,0.9-3,1.5-4.4c0.3-0.7,0.6-1.4,0.9-2.2l0.9-2.3c1.2-3.1,2.2-6.3,2.9-9.5c0.7-3.2,1.2-6.6,1.3-9.9c0.1-3.3-0.2-6.7-0.9-10 c-0.4-1.6-0.9-3.2-1.5-4.8c-0.6-1.5-1.3-3.1-2.2-4.5c-1.7-2.8-3.8-5.4-6.4-7.4c1.2,1.1,2.2,2.4,3.1,3.7c0.9,1.3,1.7,2.7,2.3,4.2 c1.3,2.9,2.2,6,2.6,9.1c0.9,6.2,0.1,12.6-1.6,18.6C29,203.8,27.9,206.7,26.7,209.6z" style="fill: inherit;"/><path d="M291.8,222.4c-1-0.2-2.1-0.2-3.1,0.1c-2.1,0.5-3.9,1.8-5.1,3.6l-1.7,2.4c-0.6,0.8-1.1,1.6-1.8,2.3c-1.2,1.5-2.4,3-3.8,4.3 c-2.6,2.7-5.6,5.1-8.8,6.8c-1.6,0.8-3.3,1.5-5.1,1.8c-0.9,0.2-1.7,0.3-2.6,0.3c-0.4,0-0.9,0-1.3,0c-0.2,0-0.4,0-0.6-0.1 c-0.2,0-0.4-0.1-0.5-0.1l-0.2-0.1l-0.2,0c-3.6-0.2-7-1.8-10.1-4c-3.1-2.2-5.8-5.1-8.2-8.1c-1.2-1.5-2.3-3.2-3.3-4.8 c-1.1-1.8-2.2-3.5-3.5-5.1c-1.3-1.6-2.7-3.1-4.3-4.4c-0.8-0.7-1.6-1.3-2.5-1.8c-0.9-0.6-1.8-1-2.7-1.5c3.3,2.3,5.9,5.4,8,8.8 c1.1,1.7,2,3.4,2.9,5.2c0.9,1.9,2,3.6,3.1,5.4c2.3,3.4,5.1,6.6,8.4,9.2c1.7,1.3,3.5,2.4,5.5,3.3c1.9,0.8,4.1,1.4,6.2,1.5 c0.3,0.1,0.5,0.1,0.8,0.1c0.3,0,0.6,0.1,0.9,0.1c0.6,0,1.1,0,1.7,0c1.1,0,2.2-0.2,3.2-0.4c2.1-0.5,4.1-1.3,5.9-2.3 c1.8-1,3.5-2.2,5.1-3.6c1.6-1.3,3-2.8,4.3-4.4c2.6-3.1,4.8-6.5,6.6-10c0.9-1.6,2.2-2.9,3.9-3.6c1.7-0.7,3.7-0.6,5.6,0 C293.7,223,292.8,222.6,291.8,222.4z" style="fill: inherit;"/><path d="M258.4,187.2c-0.8,5.5-2.5,9.1-3.8,11.1c-1.6,2.5-3,5-4.1,7.7c-7,17.3-1,24.8,3.7,27.9c3.1,2,7.2,2.2,10.3,0.2 c9.2-6.1,3.8-25.6,1.8-31.8c-0.9-2.9-1.6-5.8-2.1-8.8c-0.2-1.6-0.4-2.9-0.4-3.9c-0.1-1.4-0.8-2.8-1.9-3.8c0,0,0,0-0.1-0.1 C260.6,184.7,258.6,185.5,258.4,187.2z" style="fill: inherit;"/><path d="M12,338.8c-4.9-11.2-8.1-23.5-6.9-35.7c1.4-13.7,9.5-27.8,23.1-32.4c14.9-5.5,31.1,0.3,44.1,8.4c0,0.2,0,0.3,0,0.5l0.2,1.5 c0.1,1,0.3,2,0.5,3c0.8,4,2.4,7.9,4.5,11.5c0.6,0.9,1,1.8,1.6,2.6c0.6,0.8,1.2,1.7,1.8,2.5c0.7,0.8,1.3,1.6,2,2.4 c0.7,0.7,1.4,1.5,2.1,2.2c2.9,2.9,6.1,5.5,9.5,7.8c3.4,2.3,6.9,4.3,10.6,6c1.8,0.9,3.7,1.7,5.6,2.4c1.9,0.7,3.8,1.4,5.7,2 c2,0.5,4,1.1,6,1.4c1,0.2,2,0.4,3,0.5l3.1,0.3c1,0.1,2,0.2,3.1,0.2c1,0,2,0.1,3.1,0.1l3.1-0.1l1.5-0.1l1.5-0.2l3-0.3 c1-0.1,2-0.3,3-0.5l1.5-0.3l0.8-0.1l0.7-0.2l3-0.7c1-0.2,2-0.5,2.9-0.8l2.9-0.9c0.9-0.4,1.9-0.8,2.8-1.1c0.9-0.4,1.9-0.7,2.8-1.2 l2.7-1.3c0.5-0.2,0.9-0.4,1.4-0.7l1.3-0.8l2.6-1.5c0.9-0.5,1.7-1.2,2.5-1.7c0.8-0.6,1.7-1.1,2.5-1.8l2.3-1.9c1.6-1.2,3-2.7,4.4-4.1 c5.6-5.7,10.4-12.1,14.2-19.1c-4.7,6.3-10,12.2-15.9,17.3c-5.8,5.1-12.5,9.1-19.6,12.1c-7.1,2.9-14.6,4.6-22.2,5.1 c-7.6,0.6-15.3-0.3-22.5-2.4c-1.8-0.6-3.6-1.2-5.4-1.9c-1.8-0.7-3.5-1.4-5.3-2.2c-3.5-1.6-6.8-3.5-10-5.6 c-6.4-4.1-12.2-9.3-16.3-15.6c-2.1-3.1-3.6-6.6-4.6-10.2c-1-3.6-1.5-7.4-1.2-11.2c0-1,0.1-1.9,0.2-2.9c0.1-1,0.2-1.9,0.4-2.9 l0.6-2.8c0.2-0.9,0.5-1.9,0.8-2.8l0.4-1.4c0.1-0.5,0.3-0.9,0.5-1.4l1-2.8c0.7-1.8,1.6-3.6,2.3-5.4l-1.5,2.5l-0.8,1.3l-0.4,0.6 l-0.3,0.7l-1.3,2.7c-0.2,0.5-0.5,0.9-0.6,1.3l-0.6,1.4c-0.4,0.9-0.8,1.9-1.1,2.8l-0.9,2.9c-0.3,1-0.5,2-0.7,2.9c-0.2,1-0.4,2-0.5,3 c-0.1,1-0.2,2-0.3,3l0,3.1c0,0.3,0,0.5,0,0.8c-8.3-6.3-17.8-11.2-28.2-12.7c-11.2-1.6-23.7,1.9-31.5,10.4 c-7.1,7.2-11.2,17.1-12.2,27.1c-1.3,12.8,2.1,25.6,7,37.2c11.1,25.7,31.7,47,56.8,59.4c14.8,7.4,30.8,12.5,47.2,15 c-15.9-4.1-31.3-9.9-45.6-17.9C42,384.2,22.6,363.6,12,338.8z" style="fill: inherit;"/><path d="M283.7,281.2c-1.6-3.7-3.8-7.2-6.3-10.3c-2.6-3.1-5.6-5.8-9-8.1c-1.7-1.1-3.4-2.1-5.2-3c-0.9-0.4-1.8-0.9-2.8-1.2 c-0.5-0.2-0.9-0.4-1.5-0.5c-0.5-0.2-1-0.3-1.5-0.4l-2.9-0.7l-3-0.5c-0.5-0.1-1-0.2-1.5-0.2l-1.5-0.1c-1-0.1-2-0.2-3-0.1 c-4-0.1-8,0.6-11.8,1.9c-3.8,1.3-7.3,3.2-10.5,5.6c-6.4,4.8-11.2,11.2-15,18c-3.8,6.8-6.6,14.1-8.4,21.7c2.2-7.4,5.4-14.5,9.4-21.1 c2-3.3,4.2-6.4,6.8-9.3c2.5-2.9,5.3-5.5,8.4-7.6c6.2-4.3,13.6-6.7,21.1-6.3c0.9,0,1.9,0.1,2.8,0.2l1.4,0.1c0.5,0,0.9,0.2,1.4,0.2 l2.8,0.6l2.7,0.8c0.4,0.1,0.9,0.3,1.3,0.4c0.4,0.1,0.8,0.3,1.3,0.5c0.8,0.4,1.7,0.8,2.5,1.2c1.6,0.9,3.2,1.8,4.7,2.9 c3,2.2,5.8,4.7,8.1,7.6c2.3,2.9,4.2,6.1,5.6,9.5c1.4,3.4,2.4,7,2.9,10.7c0.5,3.7,0.6,7.4,0.5,11.2c-0.4,7.5-2,14.9-4.3,22.2 c-0.3,0.9-0.5,1.8-0.9,2.7l-1,2.7l-1,2.8c-0.3,0.8-0.6,1.7-1,2.6c-1.4,3.5-3,7-4.7,10.3c-6.9,13.5-16.2,25.9-27.3,36.2 c-2.8,2.6-5.7,5-8.7,7.3c-1.5,1.1-3,2.3-4.6,3.3l-2.3,1.6l-2.4,1.5c-6.5,4-13.2,8-19.8,12.1c-6.6,4-13.3,8-19.8,12.4 c-3.2,2.2-6.4,4.5-9.5,7c-3.1,2.5-6.1,5.1-8.9,7.9c-0.7,0.7-1.4,1.4-2.1,2.1l-2,2.1c-1.3,1.5-2.7,2.9-3.9,4.4 c-1.3,1.5-2.6,2.9-3.8,4.5c-0.6,0.8-1.3,1.5-1.8,2.3l-1.7,2.5c-2.2,3.3-4.2,6.9-5.4,11c-0.3,1-0.5,2.1-0.7,3.1c-0.1,1-0.2,2-0.1,3 c-0.6-0.6-1.3-1.3-1.8-2c-1.9-2.3-3.4-5-4.3-7.8c-0.9-2.8-1.1-5.9-0.7-8.9c0.4-3,1.3-6,2.6-8.8l0.5-1.1l-1-0.6 c-1.6-1-3.2-2.4-4.4-3.8c-1.2-1.5-2.2-3.2-2.3-4.9c-0.1-1.7,0.8-3.4,2.1-4.8c1.3-1.4,3.1-2.5,4.9-3.4l1.1-0.6l-0.8-0.9 c-2.2-2.4-4.1-5.4-5.1-8.5c-0.5-1.6-0.7-3.3-0.7-4.9c0.1-1.7,0.4-3.3,1.1-4.8c0.7-1.5,1.6-3,2.8-4.2c1.1-1.3,2.4-2.4,3.8-3.5 c2.8-2.1,5.8-3.7,9-5.1c-3.2,1.3-6.4,2.8-9.3,4.7c-2.9,2-5.5,4.5-7.1,7.7c-0.8,1.6-1.3,3.4-1.4,5.2c-0.1,1.8,0.1,3.6,0.5,5.4 c0.5,1.8,1.2,3.4,2,5c0.7,1.2,1.4,2.4,2.3,3.5c-1.6,0.8-3.1,1.8-4.5,3.1c-0.8,0.8-1.6,1.7-2.1,2.8c-0.6,1.1-0.9,2.3-0.8,3.6 c0,1.2,0.3,2.4,0.8,3.5c0.5,1.1,1.1,2,1.8,2.9c0.7,0.9,1.5,1.7,2.3,2.4c0.5,0.5,1.1,0.9,1.7,1.4c-1.2,2.7-2.2,5.5-2.6,8.5 c-0.5,3.4-0.4,6.9,0.6,10.2c0.9,3.3,2.6,6.4,4.7,9.1c1.1,1.3,2.2,2.6,3.5,3.7c0.6,0.6,1.3,1.1,2,1.6c0.7,0.5,1.3,1,2.2,1.5l2.1-3 c0,0,0,0-0.1-0.1c0,0-0.1-0.1-0.1-0.2c-0.1-0.1-0.2-0.3-0.3-0.4c-0.2-0.3-0.3-0.7-0.5-1c-0.2-0.7-0.4-1.5-0.4-2.3 c-0.1-0.8,0-1.7,0.1-2.5c0.2-0.8,0.3-1.7,0.6-2.5c1-3.4,2.9-6.6,5-9.7l1.7-2.3c0.6-0.7,1.2-1.5,1.8-2.2c1.2-1.5,2.5-2.9,3.7-4.3 c1.3-1.4,2.6-2.8,3.9-4.2l2-2c0.7-0.7,1.3-1.4,2-2c10.9-10.6,24.4-18.2,37.6-26.2c6.6-4,13.3-7.9,19.9-12l2.5-1.6l2.5-1.7 c1.7-1.1,3.2-2.3,4.8-3.5c3.1-2.4,6.2-4.9,9-7.6c2.9-2.7,5.7-5.5,8.3-8.5c2.6-2.9,5.1-6,7.5-9.2c4.7-6.3,8.9-13,12.4-20.1 c1.8-3.5,3.4-7.1,4.8-10.9c0.3-0.9,0.7-1.9,1-2.9l0.9-2.7l1-2.8c0.3-0.9,0.6-1.9,0.9-2.8c2.3-7.5,3.9-15.4,4.2-23.4 c0.1-4-0.1-8-0.7-12C286.4,288.9,285.3,284.9,283.7,281.2z" style="fill: inherit;"/><path d="M144.1,338.8c0-6.4-5.2-11.5-11.5-11.5c-6.4,0-11.5,5.2-11.5,11.5c0,6.4,5.2,11.5,11.5,11.5 C138.9,350.3,144.1,345.2,144.1,338.8z M123.9,338.8c0-4.8,3.9-8.6,8.6-8.6c4.8,0,8.6,3.9,8.6,8.6c0,4.8-3.9,8.6-8.6,8.6 C127.8,347.4,123.9,343.6,123.9,338.8z" style="fill: inherit;"/><path d="M91.2,318.2c-1-0.7-2.1-1.4-3.1-2.2l-3-2.2c-2-1.6-4-3.1-5.8-4.8c-3.9-3.2-7.4-6.9-11-10.5c2.7,4.3,5.8,8.5,9.5,12.1 l1.3,1.4c0.4,0.5,1,0.9,1.4,1.3l2.9,2.6c2,1.6,4,3.2,6.2,4.7c4.2,2.9,8.8,5.5,13.5,7.6c4.7,2.1,9.6,3.8,14.6,4.8 c-4.7-2.1-9.2-4.3-13.6-6.8C99.6,323.8,95.3,321.1,91.2,318.2z" style="fill: inherit;"/><path d="M175.4,323.8l1.5-1c1-0.7,2.1-1.3,3-2c2-1.4,4-2.8,5.8-4.4c3.8-3,7.1-6.6,10-10.4c-3.8,2.9-7.5,5.9-11.4,8.6l-1.5,1 c-0.5,0.3-1,0.7-1.5,1l-3,1.9c-1,0.6-2,1.2-3,1.8l-1.5,0.9c-0.5,0.3-1,0.6-1.5,0.8c-4.1,2.3-8.3,4.4-12.6,6.3 c-4.3,1.9-8.7,3.7-13.3,5.2c4.8-0.4,9.5-1.5,14.1-3.1c4.6-1.6,9-3.5,13.2-5.9C174.4,324.4,174.9,324.1,175.4,323.8z" style="fill: inherit;"/><path d="M158.6,337.2c1.2-0.3,2.5-0.7,3.7-1.1c5-1.5,9.8-3.5,14.4-5.9c1.1-0.6,2.3-1.2,3.4-1.9l3.3-2c1.1-0.7,2.1-1.5,3.2-2.2 l1.6-1.1l1.5-1.2c1-0.8,2-1.6,3-2.5l2.8-2.7c0.4-0.5,0.9-0.9,1.3-1.4c0.4-0.5,0.8-1,1.2-1.5c0.8-1,1.6-2,2.4-3c-1,0.8-2,1.6-3,2.4 c-0.5,0.4-1,0.8-1.5,1.2c-0.5,0.4-1,0.8-1.5,1.2l-3,2.3l-3.1,2.2l-1.6,1.1l-1.6,1c-1.1,0.7-2.1,1.4-3.2,2c-2.2,1.2-4.4,2.6-6.6,3.7 c-4.5,2.3-9.1,4.5-13.8,6.4c-4.7,1.9-9.5,3.6-14.4,5.1c2.6-0.1,5.1-0.6,7.7-1C156.1,337.8,157.3,337.5,158.6,337.2z" style="fill: inherit;"/><path d="M92.1,324.9c-2.6-1.8-5.3-3.4-7.8-5.4c-5.1-3.7-10-7.8-14.6-12.1c-4.6-4.3-9.1-8.9-13.2-13.8c3.2,5.6,7.2,10.7,11.7,15.4 c1.1,1.2,2.2,2.3,3.4,3.5l3.6,3.3c2.5,2.1,4.9,4.2,7.6,6.1l2,1.4c0.6,0.5,1.3,0.9,2,1.3c1.4,0.9,2.7,1.8,4.1,2.6l4.2,2.4 c0.7,0.4,1.4,0.8,2.1,1.1l2.2,1c5.8,2.9,12,4.8,18.3,6.2c-5.9-2.6-11.7-5-17.2-8.2C97.4,328.3,94.8,326.5,92.1,324.9z" style="fill: inherit;"/></g></svg>