
<svg xmlns="http://www.w3.org/2000/svg" xmlns:xlink="http://www.w3.org/1999/xlink" data-name="16" preserveAspectRatio="xMidYMid meet" version="1.0" viewBox="-18.0 0.0 521.2 432.9" zoomAndPan="magnify" style="fill: rgb(0, 0, 0);" original_string_length="31775" width="208.59120729204656px" height="173.3203304226641px"><g id="__id5_sv59m1zeu"><path d="M441.47082,301.55127l-11.37445,13.99951-4.24664-1.69873.30536-3.12134c-8.91937-14.5686-9.66888-46.98486-2.56329-89.61816l-19.30688,48.50244-4.24664-1.69873,1.78552-14.24609-3.86188-25.01953-5.18317,59.18286-.00006.00024-14.77197-3.91016-4.24664-1.69873,4.60614-1.93896,10.07092-101.9126,5.93652-1.7749,1.62622-2.79712.53857-.81836,4.24664,1.69873,7.87463,50.7478,18.81171-59.49756,11.47003-3.72778-.74243-1.92163,2.52502-1.73657,4.24664,1.69873c-6.99969,70.87207-20.30182,129.51709-3.49988,141.30664ZM499.65594,183.8689l3.49988-23.62402-4.24664-1.69873-1.83502,2.87964-38.979,7.5686-15.01361,114.27026-4.98236,3.90112,4.24664,1.69873,48.56049,5.24976,4.81232-19.24927-4.24664-1.69873-1.63751,1.28333-31.30182-2.20935,4.09332-31.16553,20.40564-1.64575,1.74994-18.37427-4.24664-1.69873-2.49622,2.36194-13.03888,1.28259,4.34369-33.07202,30.31244-6.05957ZM364.72705,274.02344c-2.84235-.00903-5.92883-.54114-9.23303-1.26562l5.94354-67.36035c5.68622-.14453,10.66425-.66016,14.32074-3.19897v-12.24951l-4.24664-1.69873-3.13318,4.36365c-9.63867,1.51111-22.95917-1.08557-35.49347,4.33484v7.43652l-4.24664,3.11426,4.24664,1.69873c5.07397-2.19409,10.27716-3.07349,15.31299-3.44385l-8.91541,63.77563c-3.91687-.44092-7.98547-.50146-12.16498.21143l-2.0025,8.21094-5.14648,1.99097,4.24664,1.69873c17.3844-2.96509,32.87836,7.37622,43.31091,3.35791l2.9024-11.90063-4.24664-1.69873-1.4549,2.6228ZM356.48773,177.61719l1.11133-16.66992h-.00006l-4.24658-1.69873-2.61407,4.21655c-36.8833,11.98633-71.98108-.50769-76.54443,33.61047-1.73077,1.84717-4.74725,5.51501-4.74725,5.51501l4.24664,1.69873h14.44727c.45398-10.43433,8.40991-14.19653,19.64056-16.36792l-10.29932,85.95935-4.62665,1.47302,4.24664,1.69873h17.06183l9.34576-91.42578c10.75482-1.40356,22.49243-3.16992,32.97833-8.00952ZM198.61285,164.92529c-10.88104-1.10388-22.10059,8.32471-29.25018,21.4541l2.46686,4.39624-1.0105,4.0686,4.24664,1.69873c8.66626-20.10547,37.58423-22.0166,37.88007,6.39526-1.03992,27.03857-9.95068,41.44019-22.78424,42.71802l6.5863-51.65063-4.2467-1.69873-1.57599,1.96338-9.42987.42871-5.112,54.72827-2.0647-.88501-2.96301,7.54785,4.24664,1.69873c23.91882,7.27954,47.74084-6.32202,52.59393-39.6001,5.84967-34.66479-10.46356-51.32373-29.58325-53.26343ZM246.85644,184.30359l-9.32935.95203-8.62018,75.46338-1.48016-.23364-3.599,5.82275,4.24664,1.69873,16.02228-2.94287,9.4527-81.44336-4.24664-1.69873-2.44629,2.38171ZM183.24658,270.49292c-11.5188,2.7832-18.31653-3.00659-28.92029-3.5647l7.84766-83.70801-4.24664-1.69873-2.96893,1.49487-7.49872-.12305-10.01337,90.42285-5.02386,5.31982,4.24664,1.69873c21.25409-1.96191,33.35254,11.77148,51.66364,3.26978l1.30792-15.36841-4.24664-1.69873-2.1474,3.95557ZM139.5072,289.93823l9.81244,4.20532v.00024c-10.5929,26.83521-24.76471,24.76465-30.37183,12.61597-3.37415-7.31055-3.8399-21.56689-3.27496-38.81396l-10.7298,1.2439-5.38251,23.68335-15.86298,2.50293-3.7912-1.5166-1.61011,9.62964-18.69037,3.27075-4.24664-1.69873,5.16681-3.61792,9.00128-52.00732-22.31335,4.99316-7.23303,40.64941-18.22308.93433-4.24664-1.69873,4.92737-1.67944,6.89288-34.20386-15.51703,3.47217-4.24664-1.69873,3.10236-4.15234,2.57361-.4021,2.30878-10.10083,15.19427-4.06616,11.39771-56.55835c-27.55182,8.1958-28.67432,22.24634-19.11578,38.66333l-12.61603,9.8125-4.24664-1.69873,1.78149-2.82581c-19.4798-38.77673,14.70947-59.65613,46.92542-64.36389l2.224-2.43164,4.24573,1.69824h.00122l-.00031.00049.00031-.00024-12.98792,72.99194,22.40094-5.99463,12.08093-69.80103,9.17377-1.44849-.35455-.88647,4.69-2.16724,4.24664,1.69873-22.60541,135.19751,5.08258-2.91528,32.4751-116.39551,7.85913.82593,1.0827-1.13843,4.24664,1.69873c1.0423,45.50391-5.00934,98.80151-.16565,119.12744.55536,2.33057,3.58759,2.92627,4.97168.9707l3.96667-5.60425ZM118.68493,208.7251l-10.59052,46.59863,8.17725-1.03857c.76379-14.58984,1.87238-30.41504,2.41327-45.56006Z" style="fill: rgb(184, 45, 39);"/></g><g id="__id6_sv59m1zeu"><path d="M399.84863,115.25269c-26.26837-9.03027-51.64838-1.14404-70.11951,16.56079-30.17828-15.72778-53.13684-12.75098-77.4281,6.18677-24.30267-18.93774-47.26117-21.91455-77.43939-6.18677-18.47125-17.70483-43.84003-25.59106-70.10858-16.56079,20.14844-68.55371,128.96552-39.96509,147.54791-90.59155,18.57117,50.62646,127.38824,22.03784,147.54767,90.59155Z" style="fill: rgb(252, 192, 45);"/></g><g id="__id7_sv59m1zeu"><path d="M131.29388,293.84375c-1.38409,1.95557-4.41632,1.35986-4.97168-.9707-4.84369-20.32593,1.20795-73.62354.16565-119.12744l-13.18848-1.38623-33.84845,121.31787,15.86298-2.50293,5.38251-23.68335,10.7298-1.2439c-.56494,17.24707-.09918,31.50342,3.27496,38.81396,5.60712,12.14868,19.77893,14.21924,30.37183-12.61597v-.00024l-9.81244-4.20532-3.96667,5.60425ZM112.02502,252.58655l-8.17725,1.03845,10.59052-46.59863c-.54089,15.14502-1.64948,30.97021-2.41327,45.56018ZM185.39398,266.53735l-1.30798,15.36841c-18.3111,8.50171-30.40955-5.23169-51.66357-3.26978l10.79053-97.44141,14.71436.3269-7.84766,83.70801c12.42542.65405,19.61908,8.50171,35.31433,1.30786ZM98.3471,156.47266l-24.29749,145.31763-18.69037,3.27075,9.92145-57.32397-22.31335,4.99316-7.23303,40.64941-18.22308.93433,7.57361-37.58203-15.51703,3.47217,3.7381-16.354,15.19427-4.06604,11.39771-56.55847c-27.55182,8.1958-28.67432,22.24634-19.11578,38.66333l-12.61603,9.8125v-.00024c-26.16656-44.38965,15.88678-66.81812,50.93121-69.62158l-.00031.00049.00031-.00024-12.98792,72.99194,22.40094-5.99463,12.08093-69.80103,17.75586-2.80347ZM223.94946,216.48999c-4.85309,33.27808-28.67517,46.87964-52.59393,39.6001l5.89307-63.08984,15.2525-.69336-6.58624,51.65063c12.83356-1.27783,21.74432-15.67944,22.78418-42.71802-.29578-28.41187-29.21375-26.50073-37.88-6.39526l-5.70306-10.16357c19.06561-35.01147,68.19293-23.6543,58.8335,31.80933ZM437.22418,299.85254l-11.37445,13.99951c-12.53516-11.01538-14.54535-46.1936-6.50458-94.43823l-19.30688,48.50244-6.323-40.96436-5.18317,59.18286-.00006.00024-14.77197-3.91016,10.43042-105.55029,12.34796-3.69165,7.87463,50.7478,18.81171-59.49756,17.49927-5.68726c-6.99969,70.87207-20.30182,129.51709-3.49988,141.30664ZM328.63836,195.25c16.18683-6.99976,33.68988-.62402,42.87329-6.99976v12.24951c-3.65649,2.53882-8.63452,3.05444-14.32074,3.1991l-5.94354,67.36023c5.66614,1.24243,10.71472,1.96704,14.93457.34155l-2.9024,11.90063c-10.43256,4.01831-25.92651-6.323-43.31091-3.35791l2.90234-11.90063c4.1795-.71277,8.24811-.65234,12.16498-.21143l8.91541-63.77563c-5.03583.37036-10.23901,1.24976-15.31299,3.44385v-12.24951ZM465.09686,188.22974l-4.34369,33.07202,19.78174-1.9458-1.74994,18.37427-20.40564,1.64575-4.09332,31.16553,37.18597,2.62476-4.81232,19.24927-48.56049-5.24976,15.74933-119.87012,45.06067-8.74951-3.49988,23.62402-30.31244,6.05957ZM233.28045,183.55688l16.02228-1.63501-9.45276,81.44336-16.02222,2.94287,9.4527-82.75122ZM352.24108,175.91846c-10.4859,4.8396-22.22351,6.60596-32.97833,8.00952l-9.34576,91.42578h-17.06183l10.67932-89.1311c-11.23065,2.17151-19.18658,5.93359-19.64056,16.36792h-14.44727c.5556-45.5647,42.23071-26.11646,83.90576-43.34204l-1.11133,16.66992Z" style="fill: rgb(252, 192, 45);"/></g><g id="__id8_sv59m1zeu"><path d="M337.17352,153.87988c-5.02985,2.72437-10.08118,3.02344-15.16162,0l5.27582-16.41382c-1.29724-.78442-2.1731-2.19482-2.1731-3.82129,0-1.92822,1.22528-3.55737,2.93445-4.18799-.41949-28.5426-20.3457-41.96997-39.64117-54.95605-13.74109-9.2467-27.84192-18.74121-34.26135-33.64355v93.84961c0,.87939-.71283,1.59253-1.59253,1.59253-.87976,0-1.59259-.71338-1.59259-1.59253V39.59424c-6.15155,15.63196-20.65045,25.40198-34.7746,34.90649-19.29596,12.98608-39.22205,26.41333-39.64172,54.95581,1.70935.63074,2.93481,2.26001,2.93481,4.18823,0,1.62659-.87592,3.03687-2.17316,3.82129l5.27588,16.41382c-5.08044,3.02344-10.13177,2.72437-15.16162,0l5.27582-16.41382c-1.29724-.78442-2.1731-2.19482-2.1731-3.82129,0-1.89185,1.177-3.50134,2.83551-4.15735.38635-30.24377,21.04449-44.16638,41.04944-57.62854,17.82428-11.99536,34.65997-23.32471,36.30023-45.46948.0011-.01453.00592-.02771.00739-.04199.0058-.05811.01788-.11365.02979-.1698.01013-.04822.01868-.09656.03302-.14282.01538-.04944.03613-.09583.05609-.14319.02087-.0498.04059-.09973.06616-.14673.02112-.03857.04657-.07397.0708-.1106.03271-.0498.06482-.09949.10272-.14502.02521-.03027.05396-.05688.08136-.08521.04382-.04541.08728-.09058.13611-.13037.02899-.02368.06073-.04321.09137-.06482.05316-.03748.10632-.07434.16394-.10535.03241-.01733.06702-.03027.10077-.04541.06061-.0271.12115-.05347.18536-.073.03717-.01123.07605-.01758.11438-.02625.0639-.01428.1275-.02783.19385-.03418.01288-.00134.02466-.00574.03766-.00671.04083-.00317.07977.00293.12.00293.03876.00012.07611-.00586.11536-.00293.01245.00098.02368.00513.03601.00635.06915.00659.13556.02051.20197.03564.03528.00818.07117.01392.10547.02417.06732.02039.1308.04773.19415.07654.03088.01404.06281.02576.09259.04163.05927.03174.11395.06958.16858.1084.02948.02075.06012.03967.08801.0625.04883.03979.09235.08496.13617.13037.02765.02856.05664.05542.08209.08594.03711.04468.06842.09338.10059.14209.02502.03784.05133.07434.07312.11426.0249.0459.04401.09448.06445.14307.02057.04834.04175.09595.0575.14661.01404.04553.0224.09314.03247.1405.01208.05664.02435.11279.03021.17139.00146.0144.00629.02747.00739.04199.01056.14233.02893.27905.04071.42041.13629.23486.22003.50391.22003.79468v1.26819c2.67322,20.52185,18.89539,31.44885,36.03955,42.98621,20.00488,13.46216,40.66296,27.38464,41.04895,57.62842,1.65863.65601,2.83575,2.26562,2.83575,4.15747,0,1.62659-.87592,3.03687-2.17316,3.82129l5.27588,16.41382ZM235.3338,315.2561c-.23315-.80908-1.08093-1.28125-1.88702-1.0459-.80981.23096-1.27838,1.07568-1.04669,1.88623,2.1947,7.65991,4.23523,12.20874,9.89484,17.33716.29205.26367.65857.39478,1.02362.39478v.00024c.41571,0,.8299-.16846,1.13159-.50073.56543-.62427.51776-1.58984-.10651-2.15601-5.14264-4.65918-6.93579-8.67603-9.00983-15.91577ZM277.50201,314.20996c-.80908-.23535-1.65466.23535-1.88708,1.0459-2.07477,7.24121-3.86865,11.25659-9.00977,15.91577-.62433.56616-.672,1.53174-.10657,2.15601.30176.33228.71594.50073,1.13165.50073v-.00024c.36505,0,.73157-.1311,1.02362-.39478,5.65808-5.12695,7.69861-9.67578,9.89484-17.33716.23169-.81055-.23615-1.65527-1.04669-1.88623ZM177.19104,390.13696c-7.67346-.18628-15.11798-.86597-22.34009-2.01465,2.59338-11.22217.15991-19.3501-8.52051-24.33057-1.95123,9.50146,1.26733,17.26465,7.51636,24.17908-10.12488-1.67761-19.7934-4.31677-29.00714-7.8866,2.86664-13.07678-.10352-22.57275-10.3045-28.42554-2.19086,10.66833,1.08252,19.49915,7.68701,27.37915-10.67426-4.38525-20.70624-10.08032-30.10101-17.03247-.00385-7.6604-2.59283-15.72437-7.70258-23.9751-.44324-.71655-1.38342-.93872-2.1001-.49463s-.93793,1.38428-.4939,2.10083c4.27295,6.89941,6.67151,13.61243,7.15417,19.99475-12.84454-10.05334-24.43909-22.56335-34.72589-37.52893-.47681-.69434-1.42743-.87012-2.1217-.39331-.69434.47681-.87018,1.42749-.39337,2.12183,5.47717,7.96826,11.32471,15.2417,17.52075,21.84619-6.18958-.46594-12.72046-2.73999-19.45471-6.73633-.72565-.42896-1.66058-.18921-2.09045.53345-.42981.72559-.19147,1.66113.53345,2.0918,8.11658,4.81714,16.0141,7.2561,23.48846,7.2561v.00024c.17865,0,.35687-.0033.5351-.00598,7.31177,7.39832,15.10236,13.87378,23.35565,19.4325-6.16241.90845-13.04358.16406-20.51593-2.25806-.8009-.25781-1.66211.17871-1.92206.98047-.26001.80176.17877,1.66284.98035,1.92212,5.7431,1.86255,11.18292,2.79517,16.26666,2.79517,3.09033,0,6.0481-.34937,8.86212-1.04041,3.98346,2.51025,8.06787,4.81946,12.25916,6.91345-10.34979-.73389-19.52667,1.82495-27.01459,9.90796,10.98199,5.02112,20.67889,1.78198,29.87988-8.5022,7.46954,3.52319,15.26648,6.38342,23.37177,8.60486-10.50702.74194-19.38336,4.63599-25.81915,13.81726,11.90527,3.59229,21.3399-1.09009,29.28491-12.9104,7.63007,1.896,15.53302,3.22437,23.7027,3.9856-10.29529,3.3844-18.12769,9.46582-22.06396,20.23511,12.41382.39844,20.31689-6.54224,24.94556-19.97998,3.05518.23291,6.14465.39282,9.27313.46875h.03796c.82544,0,1.50415-.65869,1.52423-1.48853.02087-.84326-.64587-1.54224-1.48773-1.56299ZM463.23462,339.47388c-.42987-.72266-1.36707-.96265-2.09045-.53345-6.73102,3.99512-13.26044,6.27222-19.44855,6.7373,6.19385-6.60547,12.03906-13.88013,17.51532-21.84692.47681-.69434.30096-1.64502-.39331-2.12183-.69287-.47681-1.64417-.30103-2.1217.39331-10.28894,14.96826-21.88147,27.48914-34.72705,37.54724.47931-6.38782,2.8775-13.10706,7.15454-20.01306.44397-.71655.22272-1.65674-.49396-2.10083-.71814-.44409-1.6568-.22192-2.1001.49463-5.11621,8.25989-7.70508,16.33521-7.70227,24.00439-9.3902,6.95117-19.4306,12.61914-30.10052,17.00281,6.60425-7.88,9.8775-16.71057,7.68671-27.37878-10.20093,5.85278-13.17108,15.34863-10.30457,28.42529-9.21381,3.56982-18.88214,6.20923-29.00696,7.88672,6.24896-6.91431,9.46753-14.67749,7.5163-24.17896-8.68048,4.98047-11.11395,13.1084-8.52057,24.33044-7.22205,1.1488-14.66644,1.82849-22.33978,2.01477-.8418.021-1.50861.71973-1.48773,1.56299.02014.83008.69879,1.48853,1.52423,1.48853h.03802c3.1283-.07593,6.21765-.23584,9.27277-.46875,4.62872,13.43774,12.53174,20.37842,24.94562,19.97998-3.93634-10.76929-11.76868-16.85071-22.06403-20.23511,8.16968-.76123,16.07257-2.0896,23.70264-3.98572,7.94495,11.82043,17.3797,16.50281,29.28497,12.91052-6.43591-9.1814-15.31238-13.07544-25.81952-13.81726,8.10529-2.22156,15.90234-5.08191,23.37201-8.6051,9.20105,10.28442,18.89795,13.52368,29.88,8.50244-7.4881-8.08325-16.66516-10.64197-27.01526-9.90796,4.19513-2.09583,8.28857-4.39648,12.27515-6.91016,2.80963.68848,5.76147,1.03711,8.84637,1.03711,5.08374,0,10.52435-.93262,16.26666-2.79517.80157-.25928,1.24036-1.12036.98035-1.92212s-1.1167-1.23828-1.92206-.98047c-7.46393,2.41943-14.336,3.16528-20.49359,2.26099,8.24561-5.55737,16.02374-12.04077,23.32898-19.43579.18005.00281.35992.0061.54089.0061v-.00024c7.47363,0,15.37195-2.43896,23.487-7.2561.72491-.43042.96326-1.36621.53345-2.0918Z" style="fill: rgb(238, 115, 40);"/></g><g id="__id9_sv59m1zeu"><path d="M496.20703,134.73584l-58.95984,7.99512c-.09485.01343-.19073.01978-.2851.01978h-.00006c-.58533,0-1.14984-.2417-1.55426-.677-.47021-.50488-.66565-1.20581-.52411-1.88184,4.00012-19.11206-2.50757-40.42114-17.40802-57.00244-14.82782-16.50024-34.73981-25.24585-53.25256-23.39307-.58374.05811-1.15448-.12451-1.59467-.50195-.44012-.37842-.7066-.91968-.73718-1.49927-.78748-14.9646-11.11902-27.33838-28.34558-33.94824-17.5589-6.7395-37.32623-5.29297-45.97968,3.35938-.82843.82959-2.17322.82959-3.00269,0-.82947-.82935-.82947-2.1731,0-3.00269,9.92517-9.92456,31.16479-11.74316,50.50391-4.32251,18.03845,6.92188,29.18134,19.78906,30.89001,35.51782,19.22974-1.12695,39.51703,8.08228,54.67719,24.95166,15.04919,16.74707,22.0069,38.13062,18.94098,57.77881l56.0614-7.60107c1.15759-.1626,2.23126.65527,2.3894,1.8186.15759,1.16235-.65686,2.23145-1.81915,2.38892ZM169.26208,23.84717c17.55939-6.73853,37.32672-5.29419,45.98022,3.35938.82843.82935,2.17426.82935,3.00269,0,.82947-.82959.82947-2.17334,0-3.00269-9.92413-9.9248-31.16376-11.74121-50.50446-4.32275-18.03784,6.92188-29.18127,19.78906-30.89001,35.51807-19.22559-1.13037-39.51648,8.08105-54.67664,24.95044-15.04974,16.74683-22.00745,38.13184-18.94153,57.77979l-56.06134-7.60107c-1.1618-.16284-2.23181.65527-2.3894,1.8186-.15759,1.16235.65686,2.23145,1.81915,2.38892l58.95984,7.99512c.0954.01343.19025.01978.28516.01978l-.00006-.00024c.58533,0,1.14984-.24243,1.55426-.677.47015-.50488.66565-1.20581.52411-1.88184-4.00012-19.11206,2.50812-40.42212,17.40851-57.00317,14.82733-16.49829,34.74188-25.24292,53.25208-23.39209.58167.05811,1.15399-.12451,1.59467-.50195.44012-.37842.70654-.91968.73718-1.49927.78796-14.9646,11.11957-27.33813,28.34558-33.948ZM158.0404,313.46851c2.40857.77979,4.47552,1.90063,6.14587,3.33447,1.74133,1.48145,3.18671,3.45166,4.18103,5.70044.13324.29541.41315.479.73151.479.26855,0,.52203-.12842.67755-.34521.15143-.20947.19031-.47266.10681-.72363-.86108-2.59521-2.27325-4.9541-4.08203-6.82031-1.76001-1.83325-4.0058-3.3479-6.67255-4.50098-.19391-.08521-.39972-.12866-.61127-.12866-.67603,0-1.26593.43042-1.46765,1.06592-.12701.39209-.09332.80884.09387,1.1748.18713.36694.50598.6377.89685.76416ZM170.63592,329.41211c.26752-.35986.19281-.87085-.16644-1.13843-1.15399-.86157-2.5423-1.57275-4.12714-2.11304-1.40283-.47485-2.91455-.80469-4.49414-.97778-.86945-.09229-1.73981-.13892-2.58746-.13892-2.32666,0-4.55481.34839-6.62073,1.03369-.39764.13062-.72473.42603-.89789.81177-.17267.38477-.17627.82422-.01141,1.20483.23639.55469.77869.91235,1.38104.91235.20374,0,.40283-.0415.58014-.11719,2.32098-.93408,4.8913-1.42871,7.43311-1.42871,3.13019,0,6.04578.74634,8.41235,2.14722.13275.08594.28619.13159.44482.13159v.00024c.2561,0,.50079-.12231.65375-.32764ZM181.43097,309.62061c.31573-.28931.49976-.68457.51843-1.11157.01862-.427-.13013-.83667-.41888-1.15186-.30225-.32983-.73309-.51953-1.18097-.51953-.40125,0-.7854.14941-1.08142.41992-1.18567,1.08447-2.15143,2.13599-2.94672,3.20386-2.51019,3.21729-3.54083,7.76489-2.82849,12.46704.05389.40747.39136.70288.80249.70288v.00024c.22968,0,.44952-.09326.60297-.25513.15033-.15771.2265-.36914.2146-.59521-.31158-5.6084,1.73828-9.89868,6.31799-13.16064ZM353.16497,323.4126c.05548.55176.49768.9519,1.05188.9519l.00006-.00024c.6076,0,1.06641-.45312,1.06793-1.05664-.01038-2.8916-.24622-5.46094-.72058-7.85498-.54388-2.75366-1.43604-5.3252-2.64862-7.64038-2.20276-4.28638-5.92609-8.25635-11.06256-11.79712-.42407-.29761-.92383-.4563-1.44586-.4563-.92694,0-1.77875.4978-2.2204,1.29614-.68433,1.22021-.24835,2.76929.9834,3.46094,9.12988,4.81299,14.17462,12.58008,14.99475,23.09668ZM395.18188,324.41748c-2.37024-.40112-4.79749-.60547-7.21381-.60547-9.74683,0-18.60144,3.19336-24.93805,8.99658-.31628.29663-.41473.72778-.25769,1.125.16797.4231.57385.70825,1.01086.70825.25146,0,.48785-.09326.66827-.25708,1.84558-1.53979,4.1095-2.85669,6.72491-3.91211,4.35992-1.71704,9.18073-2.62524,13.94086-2.62524,3.17737,0,6.25885.39917,9.1983,1.19434.14777.02808.29553.0415.44067.0415,1.12756,0,2.09857-.80566,2.30853-1.91504.24158-1.27319-.59875-2.50708-1.88287-2.75073ZM363.71795,321.86157c.47949,0,.87354-.29858,1.00574-.76416,2.34894-8.5498,8.60675-15.7041,17.17523-19.63159.61377-.29053,1.0788-.83472,1.27582-1.49316.19696-.65723.1073-1.36548-.2442-1.94189-.43542-.72363-1.2312-1.17358-2.07623-1.17358-.43909,0-.87042.12012-1.23853.34204-9.00751,5.1853-15.34778,13.93945-16.95697,23.40674-.06165.31812.01245.62402.20892.86255.20221.24585.52002.39307.85022.39307ZM200.22314,303.0415c-1.34686-1.43701-3.3703-1.98755-5.28375-1.44116-1.93835.55469-3.38428,2.11841-3.77307,4.08105-5.74908,29.01367,27.04492,70.15161,63.80798,80.0542.00061.00012.00128.00037.00189.00049.01019.00281.0202.00635.0304.00903.08923.02405.17847.03442.26715.03516.00281,0,.00531.00122.00812.00122v.00024c.0918,0,.18408-.01147.27637-.03638,36.95343-9.93506,69.96588-51.08936,64.22388-80.06372-.38885-1.96289-1.83472-3.52637-3.77307-4.08105-1.91351-.54956-3.93793.00415-5.28375,1.44116-6.57092,7.01001-9.72137,16.09912-13.05688,25.72192-6.10699,17.6189-13.03436,37.57397-42.38574,54.72058-29.31378-17.12573-36.10498-37.05713-42.0918-54.65759-3.2821-9.64673-6.38171-18.75854-12.96771-25.78516ZM359.1701,340.89795c-1.52258-1.28369-3.52631-1.87354-5.4906-1.62061-8.59796,1.11035-18.16693,8.59937-30.28137,18.08032-17.56183,13.74316-39.40845,30.83594-67.92389,35.26758-28.51495-4.43176-50.36163-21.52441-67.9234-35.26758-12.11493-9.48071-21.68396-16.96997-30.28192-18.08032-1.96118-.25098-3.96747.33691-5.4906,1.62061-1.48889,1.25439-2.3526,2.99731-2.4314,4.90625-.39343,9.48999,9.99744,19.04297,25.92957,27.20923l-.11499.08398c21.85809,11.95972,42.45276,20.70898,60.44556,22.84644-15.22235.6106-30.45575-.73389-45.70636-5.06372,16.05243,16.3291,32.77185,20.53467,50.12146,13.28638-9.57819,7.58228-16.18896,16.91113-18.64044,28.68848,17.50171-3.82788,28.02576-16.67358,34.08612-35.28784,6.06036,18.61426,16.58435,31.45996,34.08606,35.28784-2.45154-11.77734-9.06238-21.1062-18.6405-28.68848,17.34961,7.24829,34.06903,3.04272,50.12152-13.28638-15.50055,4.40088-30.9834,5.71436-46.45483,5.02881,18.17999-1.97021,39.06-10.80151,61.24054-22.93774l-.02722-.01978c15.86353-8.15271,26.20074-17.68115,25.80811-27.14722-.0788-1.90869-.9425-3.65161-2.4314-4.90625Z" style="fill: rgb(252, 192, 45);"/></g><g id="__id10_sv59m1zeu"><path d="M89.08801,164.08984l-23.02509,132.09326c-.06738.38672-.40381.65942-.78333.65942-.04559,0-.09174-.00415-.13788-.01147-.43286-.07568-.72321-.48828-.64752-.92163l10.33698-59.30237-37.76239,9.03333-7.36261,41.45581c-.06842.38574-.40436.65747-.78278.65747v-.00024c-.04614,0-.09332-.00415-.1405-.01245-.43286-.07666-.72162-.49048-.64441-.92285l7.24146-40.77368-17.72906,4.24097c-.06226.0144-.12445.02173-.18561.02173-.36029,0-.6864-.24585-.77399-.6106-.10211-.42822.16174-.85742.58942-.96021l18.40302-4.40222,12.70685-71.54749c-18.36969,3.06689-31.53705,10.55811-37.14111,21.15771-4.32831,8.18579-3.96283,18.09399,1.05701,28.65405.18872.39722.02026.87305-.37738,1.06177-.39606.18652-.87146.01855-1.06067-.37744-5.24432-11.03296-5.59949-21.43555-1.02704-30.08276,5.95667-11.26636,19.95142-19.13794,39.40668-22.16455.25659-.04053.51111.04663.69153.23022.17993.18359.25977.44263.21466.6958l-12.78168,71.96875,37.75647-9.03198,12.39026-71.08203c.07568-.43335.49249-.71338.92126-.64795.43286.07568.72314.48828.64746.92163ZM138.539,293.72803c-.10779.38354-2.70819,9.43408-8.04272,12.22534-1.04309.54541-2.12085.81909-3.22198.81909v-.00024c-.7854,0-1.58221-.13892-2.38782-.41675-5.74347-1.98071-8.76978-17.97583-9.19495-48.73755l-18.98688,3.20581c-.0451.0083-.08966.01147-.13373.01147-.00928,0-.01746-.00439-.02667-.00464l-7.39502,25.99194c-.12445.4209-.56769.6604-.98865.53906-.422-.12451-.66357-.56714-.53967-.98926l30.52075-107.04382c.11456-.38989.50391-.63135.90668-.55884.40076.07373.68176.43652.65167.84302-.02228.29541-2.09991,32.67859-2.42706,62.46814-.57025,51.97778,4.85083,61.63794,8.13293,62.76929,1.52472.52563,2.94775.42407,4.3501-.30688,4.72589-2.4707,7.22571-11.15942,7.25061-11.24658.11926-.42407.55884-.6709.98242-.55054.42303.11914.66925.55884.54999.98193ZM117.62683,186.72961l-20.60614,72.42639,18.64996-3.14905c-.04669-4.36365-.04401-9.0083.01025-13.95007.23016-20.98975,1.2782-44.69348,1.94592-55.32727ZM179.61084,274.8396c-9.37512,1.83936-15.17468-.20312-21.31537-2.36597-4.6756-1.64746-9.50366-3.34888-16.19025-3.54907l7.94171-80.92432c.04303-.4375-.2774-.82739-.7149-.86987-.43811-.05493-.82739.27686-.87042.71436l-8.0257,81.78076c-.02173.22192.05084.4436.20013.60962s.36133.26245.58478.2644c6.87738.06958,11.79248,1.80103,16.54535,3.47559,4.60565,1.62354,9.02618,3.18091,14.84442,3.18091,2.20642,0,4.61292-.22388,7.30713-.75269.43134-.08521.71283-.50391.62781-.9353-.08453-.43042-.50134-.70215-.93469-.62842ZM198.10229,170.17676c-11.96149-1.48779-24.26776,8.62354-28.35339,13.75586-.27374.34424-.21674.84497.12701,1.11865.34521.27271.84552.21777,1.11926-.12744,3.90369-4.9043,15.61688-14.56543,26.9101-13.16675,7.07336.8833,12.75366,5.96997,16.88287,15.12012,4.71503,10.44727,6.52472,29.84473-5.31653,47.44604-7.8468,11.66455-19.41467,16.57568-29.44714,16.58301l4.16809-48.53442c.03784-.43848-.28668-.82422-.72522-.86157-.4386-.03516-.82379.28638-.86108.72485l-4.24121,49.38354c-.01868.21777.05237.43237.19647.59619.1441.16284.34943.26025.56665.26758.29187.01147.58215.0166.87457.0166l-.00006-.00024c10.57111-.00122,22.64136-5.17261,30.79034-17.28711,12.20618-18.14355,10.33795-38.15161,5.44666-48.98975-4.37286-9.69043-10.47516-15.08813-18.13739-16.04517ZM240.19592,189.74634c-.44482-.05688-.82794.27588-.87146.71338l-6.7016,67.01929c-.04407.4375.27527.82739.71283.87085.02692.00317.05389.00415.08032.00415.40387,0,.75018-.30688.79114-.71753l6.7016-67.01929c.04407-.4375-.27527-.82739-.71283-.87085ZM347.60516,169.17139c-.16797-.40552-.63043-.59717-1.03998-.43237-11.54102,4.76318-23.50458,6.07471-34.06012,7.23291-16.86316,1.84985-31.42664,3.44653-36.28625,18.63208-.13373.4187.09692.8667.51581,1.00049.08087.02588.16229.03833.24261.03833v.00024c.33698,0,.65009-.21582.75842-.55371,4.54449-14.20044,17.95911-15.67188,34.94305-17.53394,10.66077-1.16968,22.74408-2.49463,34.49408-7.34399.40643-.16797.59979-.63354.43237-1.04004ZM311.24481,182.83374c-.43909-.0498-.82794.27588-.87146.71338l-9.33582,83.97119c-.04358.4375.27576.82739.71332.87085.02698.00317.05341.00415.07983.00415h.00006c.40436,0,.75067-.30688.79108-.71753l9.33685-83.97119c.04303-.4375-.27631-.82739-.71387-.87085ZM366.67419,195.17212c-6.1474,1.31152-11.56128,1.57788-16.79681,1.83716-6.21271.30591-12.08124.59619-18.29034,2.62939-.41785.13672-.64594.58667-.50909,1.00464.10992.33594.422.54858.7569.54858.08191,0,.16541-.01245.2478-.03931,6.00592-1.96704,11.77069-2.25195,17.87354-2.55273,5.29828-.26221,10.7774-.53174,17.0498-1.87036.43024-.09131.70447-.51416.61273-.94458s-.51788-.70605-.94452-.61279ZM360.0664,275.83057c-7.13452.06738-12.92474-1.05249-18.51953-2.13696-5.21631-1.01099-10.1377-1.96167-15.54895-1.79175-.43958.01465-.78436.38257-.76984.82227.01398.43848.37122.73389.82172.77026,5.22723-.16675,10.06873.76929,15.19385,1.7627,5.50458,1.06714,11.19061,2.16919,18.19342,2.16919.21356,0,.42871-.00122.6449-.00317.43958-.00415.79266-.36377.78851-.80347-.00415-.44067-.33026-.79321-.80408-.78906ZM343.06225,268.68506c.39917,0,.74341-.29956.7901-.70605l7.2962-63.63916c.05029-.43652-.26331-.83154-.70038-.88135-.43701-.03931-.83154.26343-.88184.70093l-7.2962,63.63916c-.05029.43652.26331.83154.70038.88135.03107.00317.06116.00513.09174.00513ZM490.82006,168.96533c-.08966-.43042-.51166-.70605-.94196-.61694l-29.49078,6.14331c-.33026.06836-.58118.33813-.62677.67188l-14.13055,103.21729c-.02905.21143.0285.42505.15863.59399.13062.16895.32294.27881.53497.30371l35.63464,4.30078c.03217.00415.06482.0061.09644.0061l-.00006.00024c.39716,0,.74084-.29663.78955-.70093.05292-.43652-.25867-.83374-.69519-.8855l-34.83105-4.20435,6.44257-47.06055,18.93304-1.7937c.43756-.0415.75897-.43042.71753-.86792-.0415-.43848-.43701-.75171-.86786-.71851l-18.56073,1.75842,7.27991-53.17688,28.94025-6.02808c.43085-.09009.70715-.51099.61743-.94238ZM430.97473,174.66162c-.38513-.10889-.79059.08203-.94971.448l-27.30621,62.92261-11.73804-49.8855c-.08917-.38062-.44373-.62842-.82892-.61182-.38879.02588-.70142.32959-.73877.71851l-8.60162,89.70117c-.04199.43774.27893.82642.71649.86792.4422.04663.82684-.27905.86884-.71655l8.14026-84.89111,11.18127,47.51929c.07825.33374.36237.57959.70398.6106.3396.02905.66461-.16064.80151-.47583l25.8551-59.57886c-6.82654,46.38281-11.9812,93.12573-.90668,120.99487.1239.31201.42346.50171.73969.50171.09802,0,.19751-.01758.29395-.05591.40906-.1626.60864-.625.44586-1.03467-11.40417-28.69971-5.31897-78.0564,1.89117-126.15112.05914-.39502-.18402-.77344-.56818-.8833Z" style="fill: rgb(238, 115, 40);"/></g><g id="__id11_sv59m1zeu"><path d="M254.85882,143.80591l5.27582,16.41382c-5.08038,3.02344-10.13177,2.72437-15.16162,0l5.27588-16.4137c-1.29724-.7843-2.17316-2.1947-2.17316-3.82117,0-2.47314,2.00494-4.47827,4.47809-4.47827s4.47809,2.00513,4.47809,4.47827c0,1.62646-.87592,3.03674-2.1731,3.82104ZM402.05328,120.27026c1.29718-.7843,2.1731-2.19458,2.1731-3.82104,0-2.47314-2.00488-4.47827-4.47809-4.47827s-4.47809,2.00513-4.47809,4.47827c0,1.62646.87592,3.03674,2.1731,3.82104l-5.27582,16.41382h.00006c5.08038,3.02344,10.13177,2.72437,15.16156,0l-5.27582-16.41382ZM109.32428,116.44922c0-2.47314-2.00488-4.47827-4.47809-4.47827s-4.47809,2.00513-4.47809,4.47827c0,1.62646.87592,3.03687,2.17316,3.82117l-5.27582,16.4137c5.02979,2.72437,10.08118,3.02344,15.16156,0,0,0-4.68237-14.56738-5.27582-16.41382,1.29718-.7843,2.1731-2.19458,2.1731-3.82104ZM252.58062,31.4397c10.44891-10.15918,7.78534-20.72095,0-31.4397-8.23969,11.72876-9.07782,23.18726,0,31.4397Z" style="fill: rgb(184, 45, 39);"/></g><g id="__id12_sv59m1zeu"><path d="M229.64679,312.66406c-.46899-1.98291.75824-3.97058,2.74109-4.43958,1.98291-.46899,3.97058.7583,4.43958,2.74121.46899,1.98279-.75824,3.97058-2.74115,4.43958-1.98285.46899-3.97052-.7583-4.43951-2.74121ZM276.86279,315.40381c1.98218.46899,3.96899-.75781,4.43781-2.73999s-.75793-3.96899-2.74011-4.43774c-1.98218-.46887-3.96899.75781-4.43781,2.73999s.75793,3.96899,2.74011,4.43774ZM255.28265,384.72046h-.00006.00006ZM265.00195,333.13428c0-18.21265-19.86169-18.21265-19.86169,0-27.16144-11.91943-25.46277,28.13135,10.1424,51.58618,40.45227-24.3584,34.84155-66.26025,9.7193-51.58618ZM418.20257,417.63794c-2.8833-.44946-7.36267-.38989-11.27997-.61157-3.9035-.17798-7.18066-.55225-7.18066-.55225,0,0,2.35095,2.6062,5.82257,5.1333,3.42413,2.5603,8.02826,4.91821,10.98193,5.28149,4.06146.56567,7.49622-1.18652,7.63739-3.76807.14154-2.60059-2.55585-4.89258-5.98126-5.48291ZM463.73767,392.72607c-3.27045-.13721-8.24823.28833-12.61646.26587-4.34955.03149-7.99994-.2854-7.99994-.2854,0,0,.72113.65332,1.96802,1.59399,1.24078.95386,3.01813,2.20264,5.09961,3.38037,4.12384,2.40625,9.58228,4.37988,12.93622,4.42334v-.00024c4.62128.14575,8.22418-2.07666,8.02344-4.65112-.20154-2.59961-3.51947-4.49072-7.41089-4.72681ZM499.90997,357.15308c-.72333-2.50977-5.21967-3.39331-9.9425-2.479-1.98425.37305-4.38086,1.01514-6.99292,1.65771-2.63873.64233-5.46313,1.32959-8.06647,1.96338-5.24652,1.28369-9.39551,2.62842-9.39551,2.62842,0,0,4.49634,1.04175,9.92407,2.12695,2.71973.53174,5.73096,1.03662,8.62964,1.22461,2.89447.19775,5.62573.05762,7.57928-.35449v.00024c5.38525-1.17822,8.97736-4.29443,8.2644-6.76782ZM428.04449,331.0293c-1.75153.26807-3.18304,1.69946-3.45148,3.45093-.43066,2.81079,1.95544,5.19727,4.76617,4.76697,1.75146-.26819,3.18304-1.69958,3.45142-3.45105.43073-2.81079-1.95538-5.19727-4.76611-4.76685ZM460.91534,338.16895c-.43066,2.81079,1.95544,5.19727,4.76617,4.76697,1.75146-.26819,3.18304-1.69958,3.45142-3.45105.43073-2.81079-1.95538-5.19727-4.76611-4.76685-1.75153.26807-3.18304,1.69946-3.45148,3.45093ZM439.04925,362.85522c-1.75153.26807-3.18304,1.69946-3.45148,3.45093-.43066,2.81079,1.95544,5.19727,4.76617,4.76697,1.75146-.26819,3.18304-1.69958,3.45142-3.45105.43073-2.81079-1.95538-5.19727-4.76611-4.76685ZM459.39874,323.3761c1.75146-.26819,3.18304-1.69958,3.45142-3.45105.43073-2.81079-1.95538-5.19727-4.76611-4.76685-1.75153.26807-3.18304,1.69946-3.45148,3.45093-.43066,2.81079,1.95544,5.19727,4.76617,4.76697ZM90.58001,417.63794c-3.42542.59033-6.1228,2.88232-5.98126,5.48291.14117,2.58154,3.57593,4.33374,7.63733,3.76807,2.95367-.36328,7.55786-2.72119,10.98199-5.28149,3.47156-2.5271,5.82257-5.1333,5.82257-5.1333,0,0-3.27716.37427-7.18073.55225-3.91724.22168-8.39667.16211-11.27991.61157ZM57.66131,392.99194c-4.36816.02246-9.34595-.40308-12.61639-.26587-3.89142.23608-7.20935,2.1272-7.41089,4.72681-.20081,2.57446,3.4021,4.79688,8.02344,4.65112v.00024c3.35388-.04346,8.81238-2.01709,12.93622-4.42334,2.08148-1.17773,3.85883-2.42651,5.09955-3.38037,1.24695-.94067,1.96808-1.59399,1.96808-1.59399,0,0-3.65039.31689-8,.2854ZM33.87451,358.29517c-2.60333-.63379-5.42773-1.32104-8.06647-1.96338-2.61212-.64258-5.00867-1.28467-6.99298-1.65771-4.72278-.91431-9.21912-.03076-9.9425,2.479-.71295,2.47339,2.87915,5.5896,8.26447,6.76782v-.00024c1.95349.41211,4.68481.55225,7.57922.35449,2.89874-.18799,5.90997-.69287,8.6297-1.22461,5.42773-1.08521,9.92407-2.12695,9.92407-2.12695,0,0-4.14899-1.34473-9.39551-2.62842ZM86.35015,335.8396c0-2.29712-1.86218-4.15942-4.1593-4.15942s-4.1593,1.8623-4.1593,4.15942,1.86218,4.15942,4.1593,4.15942,4.1593-1.8623,4.1593-4.15942ZM71.18609,363.5061c-2.29712,0-4.1593,1.8623-4.1593,4.15942s1.86218,4.15942,4.1593,4.15942,4.1593-1.8623,4.1593-4.15942-1.86218-4.15942-4.1593-4.15942ZM51.71148,324.56775c2.29712,0,4.1593-1.8623,4.1593-4.15942s-1.86218-4.15942-4.1593-4.15942-4.1593,1.8623-4.1593,4.15942,1.86218,4.15942,4.1593,4.15942ZM45.86853,343.68774c2.29712,0,4.1593-1.8623,4.1593-4.15942s-1.86218-4.15942-4.1593-4.15942-4.1593,1.8623-4.1593,4.15942,1.86218,4.15942,4.1593,4.15942Z" style="fill: rgb(184, 45, 39);"/></g></svg>