<?xml version="1.0" encoding="utf-8"?>
<!-- Uploaded to: SVG Repo, www.svgrepo.com, Generator: SVG Repo Mixer Tools -->
<!DOCTYPE svg PUBLIC "-//W3C//DTD SVG 1.1//EN" "http://www.w3.org/Graphics/SVG/1.1/DTD/svg11.dtd">
<svg fill="#000000" width="800px" height="800px" viewBox="0 0 1000 1000" version="1.1" xmlns="http://www.w3.org/2000/svg" xmlns:xlink="http://www.w3.org/1999/xlink"  enable-background="new 0 0 1000 1000" xml:space="preserve">

<g>
<g transform="translate(0.000000,511.000000) scale(0.100000,-0.100000)">
<path d="M3293.2,4126.3c-163.4-18.2-304.6-40.3-314.7-52.5c-10.1-10.1-40.3-74.6-70.6-141.2c-28.3-66.6-96.8-221.9-151.3-342.9l-98.9-223.9l240.1-330.8l240-332.8l-56.5-14.1c-30.3-8.1-119-20.2-195.7-30.3l-139.2-16.1l-159.4-359.1l-157.3-361.1l770.6-1061c423.6-585,895.6-1234.5,1048.9-1444.3c153.3-209.8,274.3-385.3,270.3-389.3c-4-4-213.8,82.7-464,195.7c-252.1,110.9-470,195.7-482.1,189.6c-20.2-12.1-593.1-423.6-617.3-443.8c-12.1-10.1,62.5-718.1,78.7-766.5c12.1-30.3,179.5-113,641.5-318.7c698-312.7,585-236,1161.9-766.5l195.7-179.5l800.8-127.1c439.7-70.6,806.9-129.1,815-129.1c6.1,0,115-141.2,240-312.7c125.1-171.5,234-312.7,244.1-312.7c26.2,0,256.2,169.5,258.2,189.6c0,8.1-121,181.6-266.3,383.3l-268.3,369.1l-806.9,125.1c-443.8,68.6-823,131.1-841.2,139.2c-20.2,8.1-187.6,153.3-377.2,324.8l-340.9,310.6l-570.9,254.2l-572.9,256.2l-18.2,197.7l-18.2,199.7l56.5,42.4c32.3,24.2,104.9,74.6,161.4,115l100.9,72.6l966.2-431.7c530.5-236,968.3-427.6,970.3-425.6c2,4-603.1,841.2-1345.5,1861.9c-742.3,1020.7-1359.6,1876-1371.7,1900.2c-18.1,36.3-8.1,76.7,54.5,215.8c84.7,193.7,76.7,187.6,363.1,199.7l119,4l681.8-938C4443.1,904.8,4818.3,390.4,4901,275.4l151.3-207.8l123,86.7c68.6,46.4,127.1,96.8,133.1,110.9c6.1,12.1-500.3,724.2-1121.6,1581.5c-861.4,1184.1-1129.6,1565.4-1119.6,1595.6c6,22.2,42.4,104.9,78.7,187.6l66.6,147.3l189.6,18.2c159.4,16.1,191.6,14.1,219.9-14.1c18.2-16.1,530.5-716.1,1137.7-1553.3c607.2-837.1,1109.5-1529,1117.5-1537.1c10.1-12.1,191.6,102.9,282.4,177.5c4,4-58.5,96.8-137.2,205.7l-143.2,199.7l82.7,181.5l82.7,181.5l201.7,24.2c110.9,14.1,209.8,18.1,217.9,8.1c8.1-8.1,70.6-100.9,139.2-201.7l123-187.6l131.1,94.8c72.6,52.4,131.1,100.9,131.1,110.9s-40.3,72.6-90.8,141.2c-50.4,68.6-90.8,131.1-90.8,139.2s36.3,90.8,78.7,185.6l78.7,169.5l117,14.1c66.6,8.1,155.3,18.2,199.7,22.2l80.7,10.1l453.9-627.4c250.1-347,524.5-728.2,613.2-849.2l157.3-217.9l250.1-903.7c137.2-496.3,258.2-925.9,268.3-954.1c12.1-36.3,365.1-540.6,520.4-742.4c14.1-20.2,286.4,187.6,274.3,207.8c-8.1,12.1-112.9,157.3-234,322.8c-121,163.4-227.9,318.7-238,342.9c-10.1,22.2-131.1,453.9-270.3,958.2C8939.4,493.3,8895,632.5,8838.6,713.1C8770,808,7529.4,2518.5,7525.4,2522.6c-2,2-179.5-16.1-399.4-38.3l-395.4-42.4l-80.7-181.5l-78.7-183.6l-375.2-62.5c-207.8-34.3-381.3-66.6-387.3-70.6c-4-6-36.3-76.7-72.6-159.4c-34.3-82.7-70.6-159.4-78.7-167.4c-8.1-10.1-435.7,558.8-948.1,1264.8l-932,1282.9l-92.8-2C3632.1,4160.6,3456.6,4144.4,3293.2,4126.3z"/>
<path d="M564,3236.7l-464-464l110.9-110.9c60.5-60.5,119-110.9,131.1-110.9c10.1,0,131.1,110.9,266.3,246.1L856.5,3045V1314.3V-414.5h171.5h171.5v1724.7c0,948.1,6,1724.7,14.1,1724.7c8.1,0,127.1-110.9,262.2-246.1l248.1-248.1l121,121l121,121L1508,3240.7c-252.1,254.2-464,459.9-470,459.9S818.1,3492.9,564,3236.7z"/>
</g>
</g>
</svg>