<?xml version="1.0" encoding="UTF-8"?>
<svg xmlns="http://www.w3.org/2000/svg" xmlns:xlink="http://www.w3.org/1999/xlink" version="1.1" viewBox="0 0 1539 2347.13">
  <!-- Generator: Adobe Illustrator 29.8.0, SVG Export Plug-In . SVG Version: 2.1.1 Build 160)  -->
  <defs>
    <style>
      .st0 {
        fill: #668376;
      }

      .st1 {
        fill: #cba582;
      }

      .st2 {
        fill: #cba582;
      }

      .st3 {
        fill: #9bbdb1;
      }

      .st4 {
        fill: none;
        stroke: #b0dab3;
        stroke-linecap: round;
        stroke-linejoin: round;
      }
    </style>
    <symbol id="New_Symbol" viewBox="0 0 11.76 19.57">
      <g>
        <path class="st3" d="M2.56,18.43c-1.65-.94-2.11-2.86-2.05-4.26.15-4.03,5.75-8.16,7.6-13.03.33-.87,1.56-.84,1.88.03,2.27,6.25,1.45,14.06-1.98,16.68-1.32,1.01-3.23,1.84-5.44.58Z"/>
        <g>
          <path class="st0" d="M2.77,18.59c1.91-4.34,3.45-8.64,5.56-12.9-.65,4.64-2.39,9.38-5.56,12.9h0Z"/>
          <path class="st0" d="M2.77,18.59c2.56-2.9,5.12-5.41,6.36-9.16.34,4.02-2.92,7.57-6.36,9.16h0Z"/>
          <path class="st0" d="M2.77,18.59c3-1.19,5.96-3.37,6.92-6.58.77,3.5-3.61,7.07-6.92,6.58h0Z"/>
          <path class="st0" d="M2.77,18.59c-.25-3.52.75-7.23,2.77-10.12-.65,3.52-1.53,6.77-2.77,10.12h0Z"/>
          <path class="st0" d="M2.74,18.6c-1.6-2.39-1.39-5.94.51-8.11-.46,2.85-.61,5.23-.51,8.11h0Z"/>
        </g>
        <path class="st4" d="M2.56,18.43c-1.65-.94-2.11-2.86-2.05-4.26.15-4.03,5.75-8.16,7.6-13.03.33-.87,1.56-.84,1.88.03,2.27,6.25,1.45,14.06-1.98,16.68-1.32,1.01-3.23,1.84-5.44.58Z"/>
      </g>
    </symbol>
  </defs>
  <g id="Core">
    <g id="Core1" data-name="Core">
      <path class="st1" d="M750.52,1348.74c-71.4,69.74-167.42,86.5-216.5,111.32-49.84,25.2-87.81,68.97-107.13,121.37-43.92,119.17-314.6,762.23-314.6,762.23l-69.81-31.03s307.96-653.63,322.07-681.01c36.94-71.67,57.73-151.61,60.38-232.19,1.87-56.8-5.13-113.62-3.44-170.43,1.69-56.81,24.15-137.75,58.31-183.18h0c-15.95,33.56-31.52,67.29-35.04,103.72-3.1,32.06,3.38,64.16,7.55,96.1,7.71,59.11,17.6,132.29,9.47,191.33,33.98-90.37,85.27-174.19,150.25-245.6,33.01-36.27,54.6-43.62,76.23-87.64,36.78-5.98,66.92-31.98,92.46-59.12-44.47,71.58-146.37,146.92-195.51,215.38-22.97,31.99-47.08,66.11-63.16,102.06-13.96,31.22-27.92,62.44-41.89,93.66,0,0,73.46-52.86,154.99-68.04,81.54-15.18,115.36-38.94,115.36-38.94Z"/>
      <path class="st2" d="M745.53,1343.76c-46.96,45.5-106.99,69.11-167.41,90.92-24.94,9-49.5,18.38-71.56,33.4-27.04,18.41-49.9,42.61-66.86,70.58-16.63,27.43-26.32,59.02-38.12,88.77-12.61,31.8-25.48,63.5-38.4,95.17-16.34,40.04-32.8,80.03-49.31,120-18.08,43.78-36.24,87.52-54.43,131.26-17.97,43.2-35.98,86.38-54.02,129.55-15.73,37.65-31.49,75.3-47.26,112.93-11.65,27.81-23.32,55.61-34.99,83.4-5.59,13.31-12.29,26.62-16.94,40.3-.2.59-.49,1.17-.74,1.75,3.45-1.4,6.9-2.81,10.35-4.21-23.27-10.34-46.54-20.69-69.81-31.03.84,3.21,1.69,6.43,2.53,9.64,4.72-10.01,9.44-20.02,14.15-30.03,12.42-26.34,24.83-52.69,37.25-79.03,17.51-37.14,35.02-74.27,52.54-111.4,20-42.39,40-84.78,60.01-127.16,19.97-42.29,39.94-84.58,59.93-126.86,17.14-36.25,34.28-72.49,51.46-108.71,11.79-24.86,23.58-49.73,35.46-74.55,13.62-28.46,27.97-56.5,38.89-86.18,14.56-39.57,24.41-80.71,29.71-122.52,5.61-44.24,4.51-88.54,2.48-132.98-1.86-40.7-4.8-82.1,1.31-122.58,5.34-35.36,15.1-70.7,30.04-103.25,6.69-14.58,14.51-28.67,24.09-41.55,2.15-2.89.63-8.13-2.53-9.64h0c-3.2-1.53-7.9-1.13-9.64,2.53-11.4,23.99-22.81,48.27-29.83,73.97-7.32,26.79-8.14,53.92-5.13,81.41,5.67,51.82,14.9,103.1,17.94,155.22,1.63,28.02,1.76,56.25-1.97,84.12-1.13,8.42,11.26,8.71,13.84,1.87,38.53-102,99.27-199.67,180.13-273.43,18.72-17.07,34.27-35.29,45.63-58.12l-4.21,3.24c38.63-6.7,69.46-33.31,95.57-60.94-3.69-2.85-7.38-5.69-11.07-8.54-15.77,25.17-35.75,47.43-56.28,68.78-22.63,23.54-46.35,45.99-69.57,68.94-21.39,21.15-42.65,42.67-61.2,66.41-21.55,27.58-41.84,57.11-58.79,87.75-10.42,18.83-18.72,38.72-27.5,58.35-9.08,20.29-18.15,40.59-27.23,60.88-2.53,5.66,3.25,14.23,9.64,9.64,28.44-20.42,60.71-37.03,93.24-49.73,13.67-5.34,27.62-9.96,41.84-13.57,15.14-3.85,30.61-6.23,45.81-9.87,22.23-5.32,44.14-12.1,65.12-21.2,8.28-3.6,16.91-7.41,24.36-12.61,7.38-5.16.35-17.38-7.11-12.17-5.82,4.06-12.44,7.18-18.86,10.15-19.49,9.01-40.21,15.46-61,20.71-29.58,7.47-59.3,12.02-88.03,22.73-23.85,8.89-46.93,19.89-69.06,32.47-11.4,6.48-22.76,13.27-33.42,20.92l9.64,9.64c16.02-35.82,30.78-72.6,48.55-107.59,16.54-32.58,37.76-63.09,59.57-92.33,37.08-49.7,85.82-90.11,128.92-134.34,23.16-23.77,45.85-48.63,63.52-76.84,4.23-6.76-5.55-14.38-11.07-8.54-23.45,24.82-50.73,49.46-85.21,56.55-4.11.85-6.63,1.21-8.86,5.02-1.99,3.4-3.61,7.03-5.58,10.45-3.96,6.87-8.37,13.51-13.42,19.63-8.32,10.07-18.03,18.8-27.66,27.58-51.27,46.76-93.51,104.83-127.8,164.94-20.33,35.65-37.72,72.91-52.22,111.3,4.61.62,9.23,1.25,13.84,1.87,6.52-48.72,1.89-98.49-3.86-147.05-2.92-24.69-6.32-49.31-9.77-73.93-3.89-27.69-6.46-55.73-.76-83.36,6.03-29.24,18.73-56.46,31.46-83.26-3.21.84-6.43,1.69-9.64,2.53h0c-.84-3.21-1.69-6.43-2.53-9.64-20.41,27.44-33.58,60.29-43.21,92.89-9.98,33.82-15.83,68.74-16.27,104.02-.58,45.83,3.81,91.54,3.97,137.36.15,43.09-4.43,85.95-14.29,127.92-9.71,41.32-24.19,81.51-43.31,119.42-2.73,5.41-5.42,10.82-8.04,16.28-10.2,21.17-20.26,42.4-30.34,63.62-16.2,34.12-32.36,68.26-48.51,102.4-19.48,41.18-38.94,82.37-58.39,123.56-20.22,42.83-40.44,85.66-60.65,128.49-18.37,38.93-36.73,77.87-55.09,116.81-13.91,29.5-27.82,59.01-41.73,88.51-6.85,14.53-13.79,29.02-20.54,43.59-.3.65-.61,1.29-.91,1.93-1.48,3.14-1.19,7.99,2.53,9.64,23.27,10.34,46.54,20.69,69.81,31.03,4.56,2.03,8.46.3,10.35-4.21,3.85-9.15,7.7-18.31,11.55-27.47,10.36-24.65,20.7-49.3,31.04-73.95,14.85-35.41,29.69-70.84,44.5-106.27,17.49-41.81,34.95-83.64,52.37-125.48,18.22-43.75,36.41-87.52,54.54-131.31,17.15-41.42,34.25-82.87,51.25-124.36,14.01-34.2,27.97-68.43,41.73-102.73,9.11-22.72,18.22-45.45,26.77-68.39,21.35-57.32,64.29-103.79,121.26-126.87,24.98-10.12,50.71-18.29,75.74-28.28,30-11.97,59.3-25.94,85.96-44.29,14.1-9.7,27.4-20.51,39.69-32.42,6.53-6.32-3.45-16.29-9.97-9.97Z"/>
    </g>
  </g>
  <g id="Branch">
    <g id="Branches">
      <path class="st2" d="M460.28,1257.13c4.46-22.13,9.35-44.22,15.74-65.89,2.58-8.74,5.41-17.41,8.59-25.96,1.49-4.02,3.06-8,4.7-11.96.2-.48.4-.95.6-1.43-1,2.41-.21.5.01-.02.44-1.04.89-2.07,1.35-3.11.82-1.87,1.67-3.74,2.52-5.6,7.39-15.98,16.05-31.33,25.21-46.35,5.3-8.7,10.84-17.26,16.15-25.96,5.51-9.04,10.92-18.15,16.8-26.96,1.46-2.18,2.94-4.35,4.47-6.48.7-.98,1.41-1.96,2.13-2.93.38-.51.76-1.02,1.14-1.52.23-.3.46-.6.69-.91.77-1.01-1.02,1.3-.18.23,3.15-4.03,6.47-7.93,10.04-11.59,1.71-1.76,3.49-3.46,5.32-5.1.91-.81,1.84-1.61,2.78-2.39.47-.39.94-.77,1.42-1.15.18-.14,1.16-.91.15-.12-1.06.82.25-.18.45-.33,4.02-3,8.3-5.64,12.81-7.83.56-.27,1.12-.53,1.68-.79s2.59-1.02.37-.18c1.18-.44,2.33-.93,3.52-1.36,3.46-1.24,6.16-4.85,4.92-8.67-1.1-3.41-4.96-6.26-8.67-4.92-10.61,3.82-20.09,9.64-28.57,17.05-8.16,7.12-15.06,15.56-21.39,24.31-6.23,8.62-11.81,17.68-17.33,26.76s-11.01,17.82-16.55,26.72c-9.61,15.44-18.83,31.16-26.77,47.54s-14.37,32.86-19.74,49.96c-6.57,20.94-11.55,42.35-16.04,63.83-.65,3.12-1.29,6.24-1.92,9.36-.73,3.6,1.03,7.78,4.92,8.67,3.51.8,7.89-1.06,8.67-4.92h0Z"/>
    </g>
    <g id="Branches1" data-name="Branches">
      <path class="st2" d="M686.08,1379.44c3.68-17.5,8.38-34.8,14.64-51.56.73-1.96,1.48-3.91,2.26-5.85.39-.96.78-1.93,1.17-2.89.19-.46.38-.91.57-1.37.2-.49.59-1.37-.31.73.14-.32.27-.63.4-.95,1.64-3.83,3.36-7.63,5.18-11.38,3.62-7.47,7.59-14.77,11.92-21.85,4.45-7.28,9.26-14.34,14.39-21.16.61-.81,1.22-1.61,1.84-2.41.73-.95-.99,1.27-.45.58.16-.2.31-.4.47-.6.38-.48.75-.96,1.13-1.44,1.34-1.69,2.69-3.36,4.06-5.02,2.87-3.46,5.81-6.86,8.83-10.2,13.04-14.42,27.36-27.65,42.33-40.06,4.13-3.42,8.3-6.78,12.52-10.08,1.02-.8,2.05-1.59,3.07-2.39-1.86,1.45.17-.13.59-.45.63-.48,1.25-.96,1.88-1.44,2.29-1.74,4.58-3.47,6.89-5.18,9.67-7.18,19.52-14.14,29.47-20.92,2.61-1.78,5.23-3.54,7.85-5.3,3.06-2.05,4.68-6.31,2.53-9.64-1.97-3.05-6.37-4.72-9.64-2.53-20.19,13.51-39.98,27.65-58.91,42.88-15.56,12.53-30.52,25.87-44.21,40.43-12.35,13.13-23.68,27.3-33.45,42.45-9.4,14.57-17.17,30.08-23.61,46.17-6.61,16.5-11.61,33.6-15.54,50.92-.51,2.25-1,4.5-1.47,6.76-.76,3.6,1.06,7.79,4.92,8.67,3.53.81,7.86-1.06,8.67-4.92h0Z"/>
    </g>
  </g>
  <g id="Branches2" data-name="Branches">
    <g id="Branches3" data-name="Branches">
      <path class="st2" d="M1193.12,1064.02c18.65-.54,36.92-5.04,54.48-11.13,17.73-6.15,35.04-13.58,52.28-20.95,17.09-7.31,34.05-14.92,50.87-22.83,16.75-7.87,33.35-16.05,49.81-24.51,16.53-8.5,32.91-17.3,49.12-26.38,2.01-1.13,4.02-2.26,6.02-3.39,3.21-1.82,4.57-6.47,2.53-9.64-2.09-3.25-6.21-4.47-9.64-2.53-16.03,9.07-32.23,17.87-48.57,26.37s-32.84,16.72-49.47,24.64c-16.63,7.92-33.41,15.55-50.31,22.88-4.23,1.83-8.46,3.65-12.7,5.44-.3.13-.61.25-.91.38,0,0,1.28-.54.55-.23-.53.22-1.06.45-1.59.67-1.06.45-2.12.89-3.19,1.33-2.13.89-4.25,1.77-6.38,2.65-8.4,3.46-16.81,6.89-25.33,10.05-8.46,3.13-17.04,5.99-25.78,8.26-4.34,1.13-8.72,2.11-13.14,2.9-1.1.2-2.21.38-3.31.56-.47.07-.95.15-1.42.22-.32.05-.63.09-.95.14-1.01.15.18.09.45-.06-.4.22-1.2.15-1.67.21-.56.07-1.11.13-1.67.19-1.11.12-2.23.22-3.35.31-2.24.18-4.48.3-6.73.36-3.68.11-7.22,3.16-7.05,7.05.17,3.73,3.1,7.16,7.05,7.05h0Z"/>
      <path class="st2" d="M1080.36,1139.16c12.53-.85,25.11-.83,37.64-.02,6.2.4,12.38.99,18.54,1.75.8.1,1.6.2,2.4.3.05,0,1.18.16.43.06s.38.05.43.06c1.71.24,3.42.49,5.13.75,3.08.47,6.15.98,9.21,1.53,24.9,4.47,49.31,11.39,73.24,19.56,23.79,8.13,47.1,17.56,70.32,27.2,23.25,9.65,46.41,19.51,69.91,28.54,23.42,8.99,47.19,17.16,71.51,23.37,3.01.77,6.04,1.51,9.07,2.22,3.58.84,7.8-1.11,8.67-4.92.82-3.6-1.08-7.77-4.92-8.67-24.56-5.75-48.56-13.58-72.17-22.4-23.57-8.81-46.77-18.58-70-28.26-23.39-9.75-46.83-19.43-70.72-27.9-23.85-8.46-48.16-15.76-72.98-20.76-25.08-5.05-50.75-7.85-76.35-6.98-3.12.11-6.23.27-9.34.48-3.67.25-7.23,3.06-7.05,7.05.16,3.6,3.11,7.32,7.05,7.05h0Z"/>
      <path class="st2" d="M1202.31,1153.84c12.05,20.51,23.6,41.32,34.61,62.41,11.05,21.16,21.57,42.59,31.54,64.28,5.6,12.18,11.02,24.43,16.28,36.76.64,1.51,2.71,2.83,4.21,3.24,1.69.46,3.93.25,5.43-.71,1.5-.97,2.83-2.42,3.24-4.21.45-1.98.08-3.59-.71-5.43-9.33-21.89-19.2-43.54-29.61-64.93-10.44-21.46-21.43-42.66-32.94-63.58-6.46-11.74-13.09-23.39-19.88-34.94-1.87-3.18-6.44-4.59-9.64-2.53s-4.53,6.24-2.53,9.64h0Z"/>
      <path class="st2" d="M985.52,1185.72c10.96-13.88,21.25-28.3,30.89-43.13,10.11-15.54,19.61-31.57,27.56-48.34,4.1-8.65,7.86-17.53,10.62-26.7,1.06-3.53-1.27-7.84-4.92-8.67-3.8-.86-7.53,1.14-8.67,4.92-1.1,3.67-2.37,7.28-3.76,10.85-.33.84-.66,1.68-1,2.51-.19.48-.39.95-.59,1.43-.09.21-.18.42-.27.64-.29.69.76-1.79.17-.4-.81,1.9-1.66,3.79-2.52,5.68-3.75,8.14-7.91,16.09-12.31,23.9-9.08,16.1-19.15,31.66-29.83,46.74-2.74,3.88-5.54,7.72-8.38,11.53-1.29,1.74-2.6,3.46-3.92,5.18-.33.43-.65.85-.98,1.28-.54.7,1.18-1.52.42-.55-.16.21-.32.41-.48.62-.66.85-1.33,1.7-2,2.55-1.21,1.53-2.06,2.95-2.06,4.98,0,1.73.77,3.79,2.06,4.98,2.54,2.33,7.53,3.09,9.97,0h0Z"/>
      <path class="st2" d="M1312.2,883.65c-21.27,42.68-48,82.57-79.45,118.41-31.24,35.6-66.9,67.34-106.1,93.94-20.74,14.08-42.44,26.58-64.8,37.9-25.15,12.72-50.91,24.18-76.25,36.5-24.95,12.13-49.45,25.23-72.47,40.76-18.68,12.6-36.22,26.75-52.76,42.04-14.04,12.98-27.46,26.61-41.75,39.33-16.84,14.99-34.35,27.96-53.74,39.77-5.9,3.59-11.89,7.04-17.94,10.37-7.95,4.37-.85,16.55,7.11,12.17,21.99-12.1,42.92-25.93,62.32-41.88,15.06-12.38,28.96-26.03,43.03-39.49,14.93-14.28,30.46-28.2,46.95-40.35,22.1-16.27,45.84-30.12,70.28-42.56,48.2-24.54,98.55-44.7,144.27-73.92,40.65-25.98,78.03-57.19,110.88-92.52,32.84-35.33,61.35-74.82,84.25-117.28,2.86-5.31,5.64-10.67,8.33-16.07,1.7-3.41.91-7.63-2.53-9.64-3.12-1.83-7.94-.89-9.64,2.53h0Z"/>
    </g>
  </g>
  <g id="Branches4" data-name="Branches">
    <g id="Branches5" data-name="Branches">
      <path class="st2" d="M704.26,1390.6c5.14-.91,10.29-1.76,15.45-2.55,2.53-.39,5.07-.76,7.6-1.11.61-.08,1.22-.18,1.83-.25-.09.01-1.18.16-.35.05.3-.04.61-.08.91-.12,1.42-.19,2.85-.37,4.27-.54,10.26-1.26,20.57-2.22,30.9-2.78,10.4-.56,20.82-.71,31.23-.35,5.2.18,10.39.49,15.57.93,2.54.22,5.08.47,7.61.76,1.32.15,2.63.31,3.95.48.53.07,1.82.2.56.07.71.07,1.42.2,2.12.3,4.4.64,8.65,1.34,12.85,2.81.79.28,1.58.57,2.36.88.39.15.78.31,1.17.47,1.61.66-1.62-.71-.19-.08,1.79.78,3.56,1.6,5.31,2.47,8.43,4.18,16.46,9.17,24.29,14.36,9.32,6.18,18.37,12.75,27.29,19.5,1.2.91,2.4,1.82,3.6,2.74.56.43,1.11.85,1.66,1.28.23.18,1.25.96.26.2s.16.12.4.31c2.37,1.84,4.73,3.69,7.08,5.55,4.71,3.73,9.4,7.5,14.05,11.31,8.92,7.3,17.74,14.73,26.49,22.24,7.59,6.53,15.12,13.12,22.59,19.78,5.51,4.91,10.99,9.85,16.44,14.83,2.61,2.38,5.15,4.84,7.79,7.19.12.1.23.21.34.32l-2.06-4.98c.32,5.45.91,10.9,1.6,16.32,1.42,11.22,3.2,22.48,6.47,33.33,1.74,5.77,3.89,11.63,7.1,16.76,1.95,3.12,6.37,4.63,9.64,2.53,3.13-2.02,4.62-6.3,2.53-9.64-.86-1.37-1.63-2.8-2.33-4.26-.19-.4-.38-.8-.56-1.21-.07-.15-.14-.31-.21-.46-.45-.99.3.72.31.74-.34-.87-.7-1.74-1.03-2.61-1.35-3.64-2.45-7.38-3.4-11.14-1.93-7.64-3.22-15.41-4.33-23.2.38,2.65-.04-.3-.12-.99-.11-.85-.21-1.71-.31-2.56-.18-1.5-.34-3-.49-4.49-.23-2.21-.43-4.42-.6-6.63-.06-.82-.1-1.65-.18-2.48-.2-2.13-1-3.94-2.49-5.38-3.61-3.49-7.39-6.82-11.1-10.2-7.6-6.91-15.26-13.75-22.99-20.52-10.11-8.87-20.31-17.62-30.64-26.22-11.55-9.62-23.27-19.04-35.21-28.18-10.83-8.28-21.85-16.34-33.28-23.77-9.5-6.17-19.28-11.91-29.76-16.24-3.69-1.53-7.48-2.78-11.43-3.43-12.9-2.14-25.93-3.42-39-3.86-25.8-.87-51.59,1.43-77.1,5.21-6.08.9-12.14,1.89-18.18,2.96-3.64.64-6.01,5.28-4.92,8.66,1.27,3.91,4.77,5.61,8.66,4.92h0Z"/>
      <path class="st2" d="M1055.54,1531.57c-9.08-13.35-22.76-22.84-37.75-28.5-3.66-1.38-7.42-2.47-11.26-3.22-1.88-.37-3.73-.28-5.43.71-1.46.86-2.85,2.53-3.24,4.21-.79,3.48,1.05,7.91,4.92,8.66,3.23.63,6.41,1.5,9.51,2.58.76.27,1.52.55,2.28.84.35.14.7.27,1.05.41.18.07.35.14.52.21.8.32-1.56-.68-.46-.2,1.58.69,3.14,1.42,4.68,2.2,3.18,1.63,6.25,3.46,9.18,5.51.69.48,1.38.98,2.06,1.49.15.11.33.22.47.35.06.06-1.25-.98-.65-.5.41.33.82.65,1.22.98,1.35,1.11,2.66,2.27,3.93,3.48,1.39,1.33,2.72,2.73,3.98,4.18.33.39.66.78.98,1.17.12.15.24.3.36.44.72.9.05-.08-.28-.38.7.63,1.24,1.68,1.77,2.46,2.07,3.04,6.29,4.69,9.64,2.53,3.03-1.95,4.74-6.38,2.53-9.64h0Z"/>
      <path class="st2" d="M1169.48,1537.56c-22.17-12.74-44.35-25.48-66.52-38.23-11.09-6.37-22.17-12.74-33.26-19.11-9.13-5.25-18.19-10.63-27.43-15.68-13.99-7.64-28.43-14.46-42.98-20.95-17.21-7.67-34.65-14.87-52.36-21.31-14.68-5.34-29.63-10.4-44.95-13.57-1.48-.31-2.97-.59-4.47-.85-1.91-.33-3.69-.3-5.43.71-1.46.86-2.85,2.53-3.24,4.21-.78,3.42,1.04,8,4.92,8.66,14.76,2.53,29.16,7.26,43.26,12.21,8.49,2.98,16.9,6.16,25.26,9.48,4.31,1.71,8.61,3.47,12.89,5.26.54.23,1.08.45,1.63.68.5.21,2.16.93.12.05,1.08.46,2.16.91,3.23,1.37,2.14.92,4.28,1.84,6.41,2.77,15.03,6.57,29.93,13.51,44.44,21.19,8.07,4.27,15.94,8.92,23.86,13.47l33.03,18.98c22.09,12.7,44.19,25.39,66.28,38.09l8.2,4.71c3.2,1.84,7.85.85,9.64-2.53,1.77-3.36.89-7.68-2.53-9.64h0Z"/>
      <path class="st2" d="M1201.89,1499.21c-13.03-.93-26.09-1.09-39.15-.75-12.39.32-24.77,1-37.16,1.4-7.67.24-15.34.37-23.02.32-3.69-.02-7.21,3.26-7.04,7.04s3.09,7.02,7.04,7.04c25.47.16,50.89-2.09,76.36-1.88,7.66.07,15.32.36,22.97.91,3.68.26,7.21-3.43,7.04-7.04-.18-4.04-3.1-6.76-7.04-7.04h0Z"/>
      <path class="st2" d="M1171.2,1457.75c-2.69.41-5.38.79-8.08,1.15l1.87-.25c-14.56,1.95-29.18,3.39-43.79,4.78-14.99,1.43-29.99,2.78-44.96,4.48-8.32.94-16.63,1.99-24.91,3.24-1.63.25-3.42,1.88-4.21,3.24-.88,1.51-1.26,3.74-.71,5.43s1.61,3.35,3.24,4.21c1.78.94,3.45,1.01,5.43.71,2.69-.41,5.38-.79,8.08-1.15l-1.87.25c14.56-1.95,29.18-3.39,43.79-4.78,14.99-1.43,29.99-2.78,44.96-4.48,8.32-.94,16.63-1.99,24.91-3.24,1.63-.25,3.42-1.88,4.21-3.24.88-1.51,1.26-3.74.71-5.43s-1.61-3.35-3.24-4.21c-1.78-.94-3.45-1.01-5.43-.71h0Z"/>
      <path class="st2" d="M1160.09,1393.56c-23.96,5.26-47.92,10.52-71.89,15.78-24.88,5.46-49.76,10.92-74.64,16.38-13.15,2.89-26.29,5.77-39.44,8.66-3.6.79-6.05,5.18-4.92,8.66,1.23,3.79,4.8,5.77,8.66,4.92,23.96-5.26,47.92-10.52,71.89-15.78,24.88-5.46,49.76-10.92,74.64-16.38,13.15-2.89,26.29-5.77,39.44-8.66,3.6-.79,6.05-5.18,4.92-8.66-1.23-3.79-4.8-5.77-8.66-4.92h0Z"/>
      <path class="st2" d="M1119.2,1350.58c-5.29,9.04-10.93,17.88-16.93,26.47-1.56,2.24-3.14,4.46-4.75,6.65-.78,1.07-1.58,2.14-2.37,3.2-.4.53-.8,1.06-1.2,1.59-.22.29-.45.59-.67.88-.3.39-1.29,1.35.02-.03-1.79,1.88-3.27,4.16-4.92,6.17-1.73,2.11-3.49,4.19-5.29,6.25-3.79,4.32-7.75,8.5-11.92,12.45-2.68,2.54-2.75,7.44,0,9.96s7.1,2.71,9.96,0c7.65-7.23,14.56-15.2,21.05-23.48,7.1-9.06,13.78-18.43,20.02-28.1,3.16-4.9,6.22-9.87,9.17-14.91,1.86-3.18.83-7.86-2.53-9.64s-7.65-.87-9.64,2.53h0Z"/>
    </g>
  </g>
  <g id="Branches6" data-name="Branches">
    <g id="Branches7" data-name="Branches">
      <path class="st2" d="M834.25,998.85c14.97-15.95,32.22-29.33,49.3-41.95,19.97-14.75,40.51-28.73,60.73-43.12,18.86-13.42,37.72-27.1,54.9-42.65,16.55-14.97,30.47-32.46,42.24-51.39,24.22-38.94,39.6-82.43,60.26-123.21,9.97-19.68,21.76-39.7,35.28-55.95,15.43-18.55,33.44-33.28,54.58-44.72,43.5-23.55,94.95-31.37,143.45-36.85,6.13-.69,12.27-1.35,18.4-2,3.79-.4,7.05-2.95,7.05-7.05,0-3.5-3.24-7.45-7.05-7.05-51.27,5.4-103.5,11.48-151.23,32.17-22.94,9.94-44.26,23.66-62.09,41.26-16.17,15.96-29.37,34.77-40.59,54.46-22.93,40.24-38.15,84.27-60.36,124.88-5.42,9.91-11.25,19.6-17.7,28.88-6.41,9.22-12.8,17.22-20.86,25.64-15.23,15.9-32.3,28.83-49.61,41.49-20.14,14.73-40.79,28.75-61.07,43.28-19.08,13.67-38.13,27.68-55.32,43.7-3.54,3.3-6.97,6.7-10.28,10.22-2.6,2.77-2.75,7.22,0,9.97,2.63,2.63,7.35,2.79,9.97,0h0Z"/>
      <path class="st2" d="M1184.75,597.11c10.38-23.26,28.14-42.28,38.27-65.68,5.2-12.01,8.88-24.5,11.21-37.38,2.35-13,3.56-26.2,4.07-39.39.56-14.42.34-28.85.06-43.27-.07-3.68-3.19-7.22-7.05-7.05-3.76.17-7.12,3.1-7.05,7.05.36,18.46.64,36.95-.74,55.38-.39,5.18-.91,10.34-1.59,15.49.08-.62.17-1.25.25-1.87-1.06,7.9-2.51,15.75-4.52,23.48-1,3.84-2.13,7.65-3.41,11.4-.63,1.85-1.29,3.68-1.99,5.5-.36.94-.74,1.89-1.12,2.82-.08.2-.17.4-.25.6-.29.72.31-.72.29-.68-.27.51-.46,1.07-.69,1.6-6.49,14.76-15.95,27.81-24.68,41.28-4.91,7.58-9.56,15.34-13.25,23.6-.8,1.79-1.25,3.47-.71,5.43.45,1.63,1.71,3.41,3.24,4.21,3.07,1.62,8.04,1.07,9.64-2.53h0Z"/>
      <path class="st2" d="M1036.21,511.1c5.81,15.71,11.09,31.63,15.76,47.72,4.89,16.85,9.12,33.89,12.5,51.11,1.91,9.73,3.55,19.51,4.88,29.34l-.25-1.87c3.05,22.78,4.45,45.87,3.06,68.84-.38,6.25-.98,12.49-1.8,18.7l.25-1.87c-.47,3.45-1.01,6.88-1.62,10.31-.34,1.9-.3,3.71.71,5.43.86,1.46,2.53,2.86,4.21,3.24,3.44.78,7.97-1.04,8.67-4.92,2.66-14.78,3.99-29.79,4.19-44.81.2-15.17-.7-30.34-2.4-45.41-1.79-15.9-4.37-31.71-7.66-47.36-3.17-15.09-6.96-30.05-11.27-44.86-4.14-14.22-8.74-28.3-13.78-42.22-.61-1.7-1.23-3.39-1.86-5.08s-1.58-3.24-3.24-4.21c-1.51-.88-3.74-1.26-5.43-.71-3.38,1.09-6.29,4.97-4.92,8.67h0Z"/>
      <path class="st2" d="M1051.41,802.95c6.21-6.1,12.74-11.87,19.57-17.27.38-.3.75-.59,1.13-.89.16-.13.32-.25.49-.38.92-.71-.36.28-.45.35.88-.65,1.74-1.33,2.61-1.98,1.69-1.26,3.39-2.5,5.11-3.73,3.41-2.43,6.89-4.77,10.41-7.03,14.04-9.02,28.86-16.77,43.96-23.86,8.87-4.16,17.84-8.11,26.83-11.98,1.51-.65,2.83-2.71,3.24-4.21.46-1.69.25-3.93-.71-5.43s-2.42-2.83-4.21-3.24c-1.97-.45-3.59-.08-5.43.71-15.84,6.81-31.6,13.86-46.85,21.92-14.82,7.84-29.11,16.67-42.4,26.91-8.14,6.27-15.93,12.94-23.27,20.15-2.63,2.59-2.79,7.41,0,9.97s7.16,2.76,9.97,0h0Z"/>
      <path class="st2" d="M785.7,1049.6c13.14-13.97,25.69-28.51,39.33-42,6.74-6.66,13.75-13.06,21.19-18.93.33-.26,2.02-1.52.39-.31.43-.32.85-.65,1.28-.98.98-.74,1.97-1.47,2.96-2.19,1.93-1.4,3.88-2.75,5.87-4.07,4.02-2.66,8.16-5.14,12.41-7.4,2.11-1.12,4.26-2.2,6.42-3.22,1.08-.51,2.17-1.01,3.26-1.49.51-.23,1.02-.45,1.53-.67.28-.12.58-.28.88-.38-1.69.56-.54.23-.14.07,4.55-1.88,9.19-3.56,13.88-5.05,9.36-2.98,18.95-5.24,28.61-7,4.92-.9,9.86-1.58,14.79-2.34-.17.03-1.69.22-.43.06.24-.03.48-.06.72-.09.56-.07,1.12-.14,1.68-.22,1.36-.17,2.73-.34,4.09-.5,2.49-.29,4.98-.56,7.48-.81,9.89-1,19.8-1.73,29.71-2.41,22.36-1.54,44.72-3.05,67.07-4.58,2.74-.19,5.47-.37,8.21-.56,3.67-.25,7.23-3.06,7.05-7.05-.16-3.6-3.11-7.32-7.05-7.05-22.71,1.55-45.41,3.1-68.12,4.65-20.66,1.41-41.34,2.85-61.82,6.09-20.09,3.18-39.84,8.38-58.3,17.05-17.9,8.42-33.74,20.57-48.08,34.08-14.08,13.27-26.81,27.85-39.93,42.04-1.63,1.76-3.27,3.52-4.91,5.27-2.53,2.69-2.86,7.34,0,9.97,2.74,2.52,7.27,2.87,9.97,0h0Z"/>
    </g>
  </g>
  <g id="Branches8" data-name="Branches">
    <g id="Branches9" data-name="Branches">
      <path class="st2" d="M514,860.65c10.53-16.95,18.94-35.26,25.12-54.23,6.21-19.08,10.05-38.92,11.58-58.92.84-10.96.92-21.97.25-32.94-.22-3.67-3.08-7.23-7.05-7.05-3.63.16-7.29,3.11-7.05,7.05.95,15.55.37,31.17-1.69,46.62.08-.62.17-1.25.25-1.87-1.78,13.2-4.62,26.26-8.51,39-1.93,6.33-4.12,12.59-6.57,18.75-.59,1.48-1.28,2.95-1.82,4.45.73-2.06-.09.21-.32.73-.4.94-.81,1.87-1.23,2.8-1.34,2.99-2.74,5.95-4.2,8.88-3.34,6.71-7,13.26-10.96,19.63-1.95,3.14-.78,7.9,2.53,9.64,3.45,1.82,7.56.82,9.64-2.53h0Z"/>
      <path class="st2" d="M472.14,399.22c-9.84,20.76-16.55,42.79-20.52,65.4-4.03,22.91-5.57,46.19-5.48,69.44.09,23.51,1.83,46.97,4.09,70.36,2.41,25.07,5.38,50.08,7.47,75.18,2.1,25.12,3.32,50.36,2.21,75.57-.14,3.08-.31,6.15-.51,9.23-.24,3.69,3.42,7.21,7.05,7.05,4.03-.18,6.79-3.1,7.05-7.05,1.66-24.94.9-49.96-.92-74.86-1.83-25-4.71-49.9-7.23-74.83-2.38-23.48-4.44-47.01-4.97-70.62-.26-11.41-.17-22.83.39-34.23.27-5.57.66-11.14,1.17-16.69.27-2.88.57-5.75.9-8.62.15-1.27.31-2.55.47-3.82.04-.32.08-.64.12-.95-.17,1.36-.03.24,0-.03.1-.74.21-1.48.31-2.22,1.6-11.04,3.78-22.01,6.66-32.79,1.45-5.43,3.08-10.81,4.89-16.13.89-2.61,1.83-5.21,2.81-7.79.49-1.29,1-2.58,1.51-3.86.24-.59.48-1.18.72-1.77.16-.39.33-.79.49-1.18-.28.66-.19.45.04-.08,1.1-2.55,2.24-5.08,3.43-7.58,1.58-3.33,1.03-7.76-2.53-9.64-3.14-1.66-7.96-1.03-9.64,2.53h0Z"/>
      <path class="st2" d="M145.55,578.7c1.3.08,2.59.24,3.89.4,1.09.14-2.28-.31-1.2-.16.19.03.39.05.58.08.45.06.9.13,1.36.2,1.01.15,2.01.32,3.01.49,5.1.87,10.17,1.93,15.22,3.07,15.41,3.48,30.64,7.8,45.69,12.6,20.7,6.6,41.06,14.2,61.1,22.6.92.38-1.68-.71-.3-.13.4.17.79.33,1.19.5.66.28,1.32.56,1.98.85,1.47.63,2.93,1.26,4.39,1.9,2.84,1.24,5.67,2.49,8.49,3.76,5.96,2.69,11.89,5.45,17.78,8.29,12.32,5.94,24.48,12.21,36.46,18.81,26.37,14.53,51.87,30.65,76.23,48.35,3.16,2.3,6.3,4.62,9.42,6.98,1.36,1.03,3.87,1.14,5.43.71,1.63-.45,3.41-1.71,4.21-3.24.86-1.64,1.3-3.62.71-5.43s-1.69-3.05-3.24-4.21c-24.5-18.44-50.22-35.26-76.88-50.42-23.43-13.32-47.59-25.38-72.31-36.12-21.11-9.17-42.59-17.49-64.45-24.7-15.74-5.19-31.67-9.85-47.79-13.68-9.63-2.29-19.41-4.45-29.27-5.45-.56-.06-1.13-.11-1.69-.14-3.69-.24-7.21,3.41-7.05,7.05.18,4.02,3.1,6.79,7.05,7.05h0Z"/>
      <path class="st2" d="M242.03,700.64c.9-.8,1.81-1.59,2.75-2.35.24-.19.48-.39.73-.58s1.09-.85.03-.03c-1.11.86-.11.09.15-.11.29-.22.59-.44.88-.65,2.12-1.55,4.3-3.01,6.53-4.4,4.95-3.07,10.12-5.77,15.41-8.21,1.42-.65,2.85-1.29,4.28-1.91.21-.09.42-.17.62-.27.14-.06-1.6.67-.9.38.37-.15.73-.31,1.1-.46.74-.31,1.48-.61,2.23-.9,3.04-1.21,6.11-2.34,9.2-3.4,6.33-2.17,12.76-4.04,19.26-5.62,7.42-1.81,14.92-3.23,22.49-4.25-.62.08-1.25.17-1.87.25,13.62-1.81,27.53-2.36,41.18-.53-.62-.08-1.25-.17-1.87-.25,4.04.55,8.04,1.33,11.98,2.38,3.56.95,7.82-1.19,8.67-4.92s-1.11-7.65-4.92-8.67c-20.24-5.42-41.84-4.35-62.33-1.05-20.89,3.36-41.54,9.67-60.51,19.1-8.96,4.45-17.58,9.79-25.05,16.48-2.75,2.47-2.7,7.49,0,9.97,2.94,2.7,7.03,2.63,9.97,0h0Z"/>
      <path class="st2" d="M203.15,965.07c.83-1.17,1.68-2.32,2.54-3.46.2-.27.41-.53.61-.8.59-.78-.79.99-.18.23.47-.59.93-1.18,1.41-1.77,1.84-2.27,3.74-4.49,5.7-6.65,3.8-4.19,7.83-8.16,12.04-11.94,2.17-1.95,4.38-3.84,6.64-5.68,1.03-.84,2.08-1.68,3.12-2.5.26-.2.55-.4.79-.62-.14.13-1.23.94-.24.19.67-.51,1.33-1.01,2-1.51,4.58-3.41,9.29-6.64,14.1-9.71,19.68-12.57,40.89-22.51,62.24-31.88,5.45-2.39,10.91-4.75,16.38-7.09,1.48-.63,2.96-1.26,4.44-1.89,1.24-.53.23-.1-.01,0,.37-.16.74-.31,1.12-.47.93-.39,1.86-.78,2.8-1.17,3.18-1.32,6.37-2.62,9.58-3.87,12.83-5.03,25.94-9.49,39.45-12.28,1.65-.34,3.31-.66,4.97-.94.78-.13,1.56-.26,2.34-.39.39-.06.78-.12,1.17-.18.19-.03,1.84-.26.82-.12-1.12.15.8-.1.82-.1.39-.05.78-.09,1.17-.14.78-.09,1.57-.17,2.35-.24,1.76-.17,3.52-.29,5.29-.39,3.33-.17,6.68-.2,10.01-.07,1.57.06,3.15.15,4.72.29.79.07,1.57.14,2.36.22.39.04.79.09,1.18.13.24.03,2.21.18.49.06,4.94.35,10.06,1.98,14.7,3.64,1.11.4,2.21.81,3.3,1.25.35.14.69.28,1.04.42.26.11,1.14.56.2.08s-.05-.02.21.09c.35.15.7.31,1.05.46,2.44,1.08,4.84,2.24,7.22,3.46,19.83,10.16,37.72,23.74,55.63,36.88,1.87,1.37,3.75,2.74,5.63,4.11,3,2.17,7.98.62,9.64-2.53,1.93-3.65.67-7.33-2.53-9.64-17.95-12.96-35.49-26.63-54.83-37.52-9.57-5.39-19.77-10.35-30.49-12.97-13.38-3.26-27.49-3.16-41.06-1.34-28.1,3.78-54.31,15.35-80.11,26.52-21.8,9.43-43.56,19.19-63.95,31.44-20.22,12.14-39.32,26.88-54.1,45.41-2.05,2.57-4.05,5.19-5.96,7.87-2.15,3.01-.63,7.97,2.53,9.64,3.63,1.92,7.35.69,9.64-2.53h0Z"/>
      <path class="st2" d="M313.64,409.95c26.92,30.39,42.15,68.75,54.28,106.96,6.25,19.7,11.78,39.63,17.78,59.41,6.87,22.63,14.33,45.08,22.38,67.33,16.08,44.48,34.45,88.16,55.01,130.76,19.16,39.71,41.68,79.69,47.72,124.04,2.94,21.54.91,43.15-4.74,64.07s-15.01,42.3-24.56,62.59c-2.43,5.16-4.88,10.3-7.33,15.45-1.63,3.44-.95,7.61,2.53,9.64,3.07,1.8,8,.92,9.64-2.53,19.76-41.55,41-84.79,39.9-131.97-1.08-46.07-21.61-88.55-41.54-129.09-20.92-42.57-40.25-85.78-56.95-130.19-8.47-22.52-16.34-45.26-23.61-68.19-6.56-20.7-12.41-41.6-18.71-62.37-12.01-39.61-26.11-79.86-51.44-113.14-3.32-4.36-6.76-8.61-10.4-12.71-2.53-2.85-7.39-2.58-9.97,0-2.83,2.83-2.53,7.11,0,9.97h0Z"/>
    </g>
  </g>
  <g id="Branches10" data-name="Branches">
    <g id="Branches11" data-name="Branches">
      <path class="st2" d="M623.33,141.17c14.64,14.17,22.96,32.92,29.67,51.83,7.16,20.16,12.97,40.94,22.82,60.03,5.19,10.07,11.72,19.23,19.21,27.71,7.46,8.45,15.62,16.25,23.02,24.76,7.43,8.55,13.8,17.99,17.36,28.82,3.7,11.26,4.82,23.02,4.98,34.82.17,12.73-.74,25.43-1.14,38.15-.42,13.09-.03,26.16,1.2,39.2,2.57,27.27,8.21,54.12,14.44,80.75,5.98,25.56,12.73,51.03,17.22,76.91,3.18,18.33,4.56,37.31,4.53,56.26-.07,46.59-8.55,92.79-20.1,137.79-1.72,6.69-3.51,13.36-5.37,20.02-2.44,8.75,11.16,12.49,13.59,3.75,13.31-47.75,23.69-96.85,25.66-146.51.78-19.66.14-39.39-2.33-58.92-3.08-24.37-8.95-48.29-14.65-72.15-6.37-26.69-12.89-53.4-16.83-80.57-1.95-13.4-3.15-26.94-3.41-40.48-.25-12.92.61-25.81,1.06-38.71.87-25.1-.39-51.16-14.1-73.05-12.25-19.57-31.4-33.42-44.34-52.41-24.04-35.27-25.88-81.19-51.68-115.52-3.32-4.41-6.87-8.59-10.85-12.44-6.52-6.31-16.5,3.65-9.97,9.97h0Z"/>
      <path class="st2" d="M755.29,360.08c6.81-16.16,13.44-32.4,19.89-48.71,6.42-16.23,12.66-32.54,18.73-48.9,6.09-16.45,12-32.96,17.73-49.53,5.73-16.58,11.27-33.22,16.63-49.91,5.34-16.62,10.49-33.3,15.46-50.03.63-2.11,1.25-4.22,1.87-6.34,1.04-3.54-1.26-7.83-4.92-8.67-3.78-.86-7.56,1.14-8.67,4.92-4.95,16.83-10.08,33.6-15.4,50.31-5.29,16.63-10.77,33.21-16.42,49.73-5.68,16.59-11.55,33.12-17.59,49.58-6.05,16.46-12.27,32.86-18.68,49.18-6.38,16.25-12.93,32.43-19.67,48.53-.85,2.03-1.7,4.06-2.56,6.09-.66,1.56-.1,4.05.71,5.43.86,1.46,2.53,2.86,4.21,3.24,1.8.41,3.83.32,5.43-.71s2.48-2.42,3.24-4.21h0Z"/>
      <path class="st2" d="M750.21,111.66c.32.74.64,1.48.96,2.21.3.7-.4-.92-.35-.82.08.16.15.35.22.52.19.46.38.92.57,1.39.65,1.58,1.28,3.17,1.89,4.76,1.23,3.2,2.4,6.43,3.51,9.68,2.33,6.8,4.41,13.69,6.3,20.63,3.92,14.37,7.03,28.96,9.6,43.63,1.46,8.33,2.74,16.68,3.86,25.06l-.25-1.87c1.9,14.22,3.36,28.5,4.39,42.81.26,3.67,3.05,7.23,7.05,7.05,3.59-.16,7.33-3.11,7.05-7.05-1.48-20.63-3.85-41.21-7.14-61.63-3.32-20.62-7.63-41.14-13.67-61.15-3.32-11-7.22-21.8-11.83-32.32-.66-1.51-2.7-2.82-4.21-3.24-1.69-.46-3.93-.25-5.43.71-1.5.97-2.83,2.42-3.24,4.21-.45,1.97-.09,3.6.71,5.43h0Z"/>
      <path class="st2" d="M789.68,686.79c3.51-9.08,7.11-18.12,10.8-27.12.97-2.37,1.95-4.73,2.94-7.09.48-1.16.97-2.32,1.46-3.48.18-.44.63-1.47-.14.32.11-.26.22-.52.33-.78.27-.65.55-1.3.83-1.95,2.06-4.85,4.16-9.69,6.29-14.52,8.54-19.31,17.62-38.41,27.76-56.93,5.25-9.6,10.8-19.05,16.82-28.19,2.03-3.09.71-7.93-2.53-9.64-3.53-1.86-7.47-.76-9.64,2.53-11.14,16.91-20.73,34.82-29.64,52.99-9.52,19.4-18.22,39.21-26.48,59.18-4.25,10.27-8.37,20.59-12.38,30.95-.62,1.61-.12,4,.71,5.43s2.53,2.86,4.21,3.24c1.8.41,3.83.32,5.43-.71,1.63-1.05,2.54-2.41,3.24-4.21h0Z"/>
      <path class="st2" d="M694.34,1107.3c15.63-31.96,24.44-66.94,31.73-101.6,7.57-35.96,13.15-72.29,20.13-108.37,3.58-18.47,7.81-36.71,12.89-54.82,6.05-21.56,12.2-43.21,13.79-65.65,2.78-39.23-8.73-77.73-26.34-112.42-18.17-35.8-42.64-68.04-67.74-99.2-3.05-3.79-6.12-7.56-9.19-11.32-2.41-2.95-7.47-2.5-9.97,0-2.92,2.92-2.42,7.01,0,9.97,24.69,30.22,48.96,61.11,68.09,95.23,18.19,32.44,31.42,68.35,31.47,105.66.03,20.87-4.58,41.05-10.09,61.07-5.2,18.9-10.42,37.71-14.36,56.93-7.2,35.18-12.6,70.7-19.58,105.91-3.57,18.01-7.5,35.95-12.31,53.68-2.25,8.31-4.7,16.57-7.43,24.74-1.33,4-2.73,7.97-4.21,11.92-.72,1.93-1.47,3.85-2.23,5.76-.38.95-.76,1.89-1.15,2.83-.14.35-.29.7-.44,1.05-.24.57.09-.2-.32.75-1.56,3.63-3.2,7.21-4.94,10.76-1.67,3.42-.93,7.62,2.53,9.64,3.1,1.81,7.96.9,9.64-2.53h0Z"/>
    </g>
  </g>
  <g id="Branches12" data-name="Branches">
    <g id="Branches13" data-name="Branches">
      <path class="st2" d="M413.88,1518.42c-4.42-23.4-9.95-46.64-17.67-69.19-4.01-11.72-8.61-23.26-13.85-34.48-2.51-5.38-5.18-10.67-8.03-15.88-1.64-3.01-3.25-6.08-5.23-8.89-5.79-8.19-13.39-14.93-21.17-21.17-10.52-8.44-21.61-16.15-32.92-23.5-12.18-7.92-24.61-15.44-37.17-22.74-12.18-7.08-24.47-13.94-36.86-20.65-10.16-5.51-20.38-10.91-30.64-16.21-6.16-3.18-12.33-6.33-18.53-9.42-.96-.48-1.91-.97-2.88-1.43-2.58-1.22-4.6-.96-7.03-.24-1.96.58-3.93,1.13-5.9,1.66-6.87,1.86-13.8,3.49-20.79,4.81-2.08.39-4.16.76-6.25,1.09-1.02.16-2.05.32-3.07.46-.24.03-.48.08-.72.1.03,0,1.92-.25.79-.11-.6.08-1.2.15-1.81.22-4.01.47-8.04.79-12.08.82-1.77,0-3.54-.04-5.3-.17-.8-.06-1.6-.16-2.4-.24,2.88.3-.2-.06-.95-.21-3.6-.72-7.78,1.03-8.66,4.92-.8,3.51,1.06,7.89,4.92,8.66,11.29,2.27,23.07.79,34.3-1.07,9.34-1.55,18.58-3.7,27.7-6.23,1.86-.52,3.72-1.04,5.56-1.62-1.81-.24-3.62-.47-5.43-.71,2.25,1.11,4.49,2.23,6.73,3.36,6,3.02,11.97,6.08,17.93,9.18,8.63,4.48,17.22,9.03,25.77,13.65,10.14,5.48,20.23,11.07,30.24,16.79,10.55,6.02,21.01,12.19,31.34,18.57,9.85,6.09,19.59,12.37,29.07,19.02,2.18,1.53,4.34,3.08,6.49,4.65,1.06.77,2.11,1.55,3.15,2.34.5.37.99.75,1.48,1.12.21.16.42.32.63.48.26.2,1.48,1.14.32.24s-.13-.1.1.08c.2.16.4.32.61.47.5.39,1,.78,1.49,1.18.94.75,1.87,1.5,2.79,2.26,1.73,1.42,3.43,2.87,5.1,4.35,2.98,2.64,5.86,5.39,8.54,8.33.57.63,1.14,1.27,1.69,1.92.26.31.52.63.78.94.63.77,1.1,1.47-.21-.29.89,1.19,1.75,2.39,2.51,3.66,4.86,8.07,9.09,16.56,12.99,25.13,1.03,2.27,2.04,4.55,3.02,6.84.1.23.54,1.26.15.35-.37-.86-.02-.05.04.11.23.56.46,1.11.69,1.67.49,1.19.97,2.39,1.45,3.59,1.81,4.56,3.52,9.16,5.14,13.79,6.52,18.67,11.52,37.84,15.59,57.17,1,4.73,1.94,9.47,2.83,14.21.68,3.63,5.25,6.02,8.66,4.92,3.88-1.25,5.65-4.78,4.92-8.66h0Z"/>
      <path class="st2" d="M141.02,1255.87c1.69.41,3.37.89,5.02,1.45.77.26,1.53.54,2.28.84.37.14.79.26,1.13.46.07.04-1.45-.63-.74-.31.25.11.5.22.75.33,3.26,1.46,6.39,3.2,9.39,5.15,1.45.94,2.85,1.94,4.24,2.97.34.25,1.01.82-.44-.35.16.13.33.25.49.38.32.26.65.51.97.78.69.56,1.37,1.14,2.04,1.73,2.59,2.26,5.03,4.69,7.3,7.27.65.74,1.28,1.49,1.9,2.25.19.23,1.15,1.46.41.5s.2.27.38.51c1.11,1.5,2.16,3.06,3.15,4.65,1.94,3.13,6.39,4.62,9.64,2.53,3.14-2.03,4.6-6.28,2.53-9.64-3.94-6.37-8.87-12.21-14.42-17.23-5.79-5.22-12.27-9.83-19.33-13.16-4.15-1.96-8.45-3.62-12.92-4.7-3.58-.86-7.8,1.13-8.66,4.92-.83,3.62,1.09,7.74,4.92,8.66h0Z"/>
      <path class="st2" d="M88.8,1148.11c19.69,16.19,39.39,32.38,59.08,48.57,9.78,8.04,19.57,16.08,29.35,24.13,8.23,6.77,16.57,13.42,24.65,20.35,12.05,10.34,23.5,21.4,34.67,32.67,12.86,12.97,25.35,26.34,37.27,40.19,2.87,3.33,5.7,6.69,8.48,10.09,1.32,1.61,2.63,3.23,3.93,4.86.6.75,1.2,1.51,1.79,2.27.29.37.59.75.88,1.12.16.21.32.41.48.62.71.92-1.09-1.41-.34-.44,4.36,5.67,8.59,11.46,12.42,17.5.82,1.29,1.61,2.59,2.39,3.9,1.87,3.18,6.44,4.59,9.64,2.53,3.2-2.06,4.52-6.24,2.53-9.64-7.84-13.34-17.72-25.55-27.64-37.38-11.75-13.99-24.13-27.45-36.88-40.53-11.53-11.83-23.37-23.41-35.76-34.35-6.91-6.1-14.1-11.87-21.21-17.72-9.78-8.04-19.57-16.08-29.35-24.13-19.69-16.19-39.39-32.38-59.08-48.57-2.45-2.01-4.89-4.02-7.34-6.03-1.48-1.22-2.99-2.06-4.98-2.06-1.73,0-3.79.77-4.98,2.06-2.37,2.59-3.04,7.46,0,9.96h0Z"/>
      <path class="st2" d="M109.96,1099.83c1.46,3.16,2.87,6.34,4.24,9.53.16.37.78,1.88,0,.01.12.28.24.56.35.84.35.84.7,1.68,1.04,2.52.62,1.52,1.23,3.04,1.83,4.56,2.29,5.81,4.43,11.68,6.49,17.58,4.07,11.7,7.81,23.52,11.82,35.25,2.44,7.14,4.99,14.24,7.7,21.28.68,1.76,1.55,3.22,3.24,4.21,1.51.88,3.74,1.26,5.43.71,3.34-1.08,6.34-4.98,4.92-8.66-9.2-23.89-16.09-48.6-25.37-72.46-2.95-7.59-6.12-15.09-9.54-22.48-.7-1.51-2.66-2.81-4.21-3.24-1.69-.46-3.93-.25-5.43.71-3.46,2.23-4.18,6.05-2.53,9.64h0Z"/>
      <path class="st2" d="M158.46,1110.37c3.25,15.15,7.23,30.15,11.28,45.1,4.24,15.67,8.63,31.31,12.66,47.04,2.1,8.21,4.11,16.44,5.88,24.72.77,3.61,5.19,6.04,8.66,4.92,3.8-1.23,5.75-4.8,4.92-8.66-3.25-15.15-7.23-30.15-11.28-45.1-4.24-15.67-8.63-31.31-12.66-47.04-2.1-8.21-4.11-16.44-5.88-24.72-.77-3.61-5.19-6.04-8.66-4.92-3.8,1.23-5.75,4.8-4.92,8.66h0Z"/>
      <path class="st2" d="M222.43,1098.08c3.55,24.28,7.09,48.55,10.64,72.83,3.68,25.21,7.36,50.41,11.05,75.62,1.95,13.32,3.89,26.64,5.84,39.95.24,1.62,1.89,3.42,3.24,4.21,1.51.88,3.74,1.26,5.43.71s3.35-1.61,4.21-3.24c.94-1.79,1-3.44.71-5.43-3.55-24.28-7.09-48.55-10.64-72.83-3.68-25.21-7.36-50.41-11.05-75.62-1.95-13.32-3.89-26.64-5.84-39.95-.24-1.62-1.89-3.42-3.24-4.21-1.51-.88-3.74-1.26-5.43-.71s-3.35,1.61-4.21,3.24c-.94,1.79-1,3.44-.71,5.43h0Z"/>
      <path class="st2" d="M280.43,1109.21c-13.87,17.15-26.78,35.33-37.17,54.83-2.99,5.62-5.69,11.36-8.14,17.23-.65,1.56-.1,4.04.71,5.43.86,1.46,2.53,2.85,4.21,3.24,1.8.41,3.83.32,5.43-.71,1.65-1.06,2.49-2.42,3.24-4.21.54-1.3-.56,1.29-.17.41.13-.3.26-.61.39-.91.21-.49.43-.98.65-1.46.55-1.24,1.12-2.46,1.7-3.69,1.08-2.26,2.2-4.5,3.36-6.72,2.47-4.73,5.12-9.37,7.88-13.94,5.61-9.27,11.71-18.24,18.14-26.95.88-1.2,1.77-2.39,2.67-3.57.42-.56.84-1.11,1.27-1.67.3-.39,1.97-2.49.54-.71,1.76-2.2,3.48-4.44,5.25-6.63,1.21-1.5,2.06-2.98,2.06-4.98,0-1.73-.77-3.79-2.06-4.98-2.57-2.36-7.49-3.06-9.96,0h0Z"/>
    </g>
  </g>
  <g id="Leaf">
    <use width="11.76" height="19.57" transform="translate(430.54 1301.81) rotate(-148.15) scale(5.85 -5.85)" xlink:href="#New_Symbol"/>
  </g>
  <g id="Leaves">
    <use width="11.76" height="19.57" transform="translate(980.59 1155.91) rotate(-87.27) scale(6.09 -6.09)" xlink:href="#New_Symbol"/>
    <use width="11.76" height="19.57" transform="translate(290.54 1017.25) rotate(18.47) scale(5.85)" xlink:href="#New_Symbol"/>
    <use width="11.76" height="19.57" transform="translate(159.36 1004.49) rotate(-168.48) scale(5.85 -5.85)" xlink:href="#New_Symbol"/>
    <use width="11.76" height="19.57" transform="translate(184.2 1158.16) rotate(-168.48) scale(5.85 -5.85)" xlink:href="#New_Symbol"/>
    <use width="11.76" height="19.57" transform="translate(59.12 1207.18) rotate(133.51) scale(5.85 -5.85)" xlink:href="#New_Symbol"/>
    <use width="11.76" height="19.57" transform="translate(691.48 970.48) rotate(-115.99) scale(5.85 -5.85)" xlink:href="#New_Symbol"/>
    <use width="11.76" height="19.57" transform="translate(573.02 630.12) rotate(-173.9) scale(4.98 -4.98)" xlink:href="#New_Symbol"/>
    <use width="11.76" height="19.57" transform="translate(505.82 302.48) rotate(-173.9) scale(5.85 -5.85)" xlink:href="#New_Symbol"/>
    <use width="11.76" height="19.57" transform="translate(651.6 1087.23) rotate(-90.44) scale(5.85 -5.85)" xlink:href="#New_Symbol"/>
    <use width="11.76" height="19.57" transform="translate(560.23 673.06) rotate(15.34) scale(4.98)" xlink:href="#New_Symbol"/>
    <use width="11.76" height="19.57" transform="translate(498.58 455.52) rotate(27.83) scale(5.85)" xlink:href="#New_Symbol"/>
    <use width="11.76" height="19.57" transform="translate(510.61 361.97) rotate(32.63) scale(5.85)" xlink:href="#New_Symbol"/>
    <use width="11.76" height="19.57" transform="translate(598.16 930.67) rotate(-158.66) scale(5.85 -5.85)" xlink:href="#New_Symbol"/>
    <use width="11.76" height="19.57" transform="translate(532.4 702.72) rotate(171.81) scale(4.98 -4.98)" xlink:href="#New_Symbol"/>
    <use width="11.76" height="19.57" transform="translate(448.5 394.24) rotate(171.81) scale(5.85 -5.85)" xlink:href="#New_Symbol"/>
    <use width="11.76" height="19.57" transform="translate(92.35 484.55) rotate(135.3) scale(5.85 -5.85)" xlink:href="#New_Symbol"/>
    <use width="11.76" height="19.57" transform="translate(336.06 290.99) rotate(-178.5) scale(6.09 -6.09)" xlink:href="#New_Symbol"/>
    <use width="11.76" height="19.57" transform="translate(282.29 341.71) rotate(141.14) scale(6.09 -6.09)" xlink:href="#New_Symbol"/>
    <use width="11.76" height="19.57" transform="translate(299.6 328.98) rotate(-14.92) scale(6.16)" xlink:href="#New_Symbol"/>
    <use width="11.76" height="19.57" transform="translate(644.93 4.91) rotate(-178.5) scale(6.09 -6.09)" xlink:href="#New_Symbol"/>
    <use width="11.76" height="19.57" transform="translate(591.16 55.63) rotate(141.14) scale(6.09 -6.09)" xlink:href="#New_Symbol"/>
    <use width="11.76" height="19.57" transform="translate(781.06 24.65) rotate(179.58) scale(6.09 -6.09)" xlink:href="#New_Symbol"/>
    <use width="11.76" height="19.57" transform="translate(747.5 108.11) rotate(150.42) scale(6.09 -6.09)" xlink:href="#New_Symbol"/>
    <use width="11.76" height="19.57" transform="translate(608.47 42.9) rotate(-14.92) scale(6.16)" xlink:href="#New_Symbol"/>
    <use width="11.76" height="19.57" transform="translate(687.84 449.07) rotate(-178.5) scale(6.09 -6.09)" xlink:href="#New_Symbol"/>
    <use width="11.76" height="19.57" transform="translate(634.07 499.79) rotate(141.14) scale(6.09 -6.09)" xlink:href="#New_Symbol"/>
    <use width="11.76" height="19.57" transform="translate(671.12 605.1) rotate(125.43) scale(6.09 -6.09)" xlink:href="#New_Symbol"/>
    <use width="11.76" height="19.57" transform="translate(651.38 487.07) rotate(-14.92) scale(6.16)" xlink:href="#New_Symbol"/>
    <use width="11.76" height="19.57" transform="translate(954.97 541.28) rotate(-108.64) scale(6.09 -6.09)" xlink:href="#New_Symbol"/>
    <use width="11.76" height="19.57" transform="translate(888.83 508.26) rotate(-149) scale(6.09 -6.09)" xlink:href="#New_Symbol"/>
    <use width="11.76" height="19.57" transform="translate(906.74 520.14) rotate(54.94) scale(6.16)" xlink:href="#New_Symbol"/>
    <use width="11.76" height="19.57" transform="translate(1102.69 440.27) rotate(-158.91) scale(6.09 -6.09)" xlink:href="#New_Symbol"/>
    <use width="11.76" height="19.57" transform="translate(1035.02 470.03) rotate(160.73) scale(6.09 -6.09)" xlink:href="#New_Symbol"/>
    <use width="11.76" height="19.57" transform="translate(1038.54 570.73) rotate(149.27) scale(6.09 -6.09)" xlink:href="#New_Symbol"/>
    <use width="11.76" height="19.57" transform="translate(1055.6 463.84) rotate(4.67) scale(6.16)" xlink:href="#New_Symbol"/>
    <use width="11.76" height="19.57" transform="translate(1247.16 759.67) rotate(-87.71) scale(6.09 -6.09)" xlink:href="#New_Symbol"/>
    <use width="11.76" height="19.57" transform="translate(1209.67 722.69) rotate(75.86) scale(6.16)" xlink:href="#New_Symbol"/>
    <use width="11.76" height="19.57" transform="translate(1436.68 598.1) rotate(-69.97) scale(6.09 -6.09)" xlink:href="#New_Symbol"/>
    <use width="11.76" height="19.57" transform="translate(1405.67 531) rotate(-110.33) scale(6.09 -6.09)" xlink:href="#New_Symbol"/>
    <use width="11.76" height="19.57" transform="translate(1412.24 551.46) rotate(93.61) scale(6.16)" xlink:href="#New_Symbol"/>
    <use width="11.76" height="19.57" transform="translate(1132.35 984.88) rotate(-69.97) scale(6.09 -6.09)" xlink:href="#New_Symbol"/>
    <use width="11.76" height="19.57" transform="translate(1101.34 917.77) rotate(-110.33) scale(6.09 -6.09)" xlink:href="#New_Symbol"/>
    <use width="11.76" height="19.57" transform="translate(1107.91 938.23) rotate(93.61) scale(6.16)" xlink:href="#New_Symbol"/>
    <use width="11.76" height="19.57" transform="translate(816.83 1446.39) rotate(-56.89) scale(6.09 -6.09)" xlink:href="#New_Symbol"/>
    <use width="11.76" height="19.57" transform="translate(920.79 1087.52) rotate(-140.12) scale(6.09 -6.09)" xlink:href="#New_Symbol"/>
    <use width="11.76" height="19.57" transform="translate(830.99 1130.23) rotate(-150.12) scale(6.09 -6.09)" xlink:href="#New_Symbol"/>
    <use width="11.76" height="19.57" transform="translate(728.95 1210.39) rotate(-171.77) scale(6.09 -6.09)" xlink:href="#New_Symbol"/>
    <use width="11.76" height="19.57" transform="translate(803.58 1395.43) rotate(106.69) scale(6.16)" xlink:href="#New_Symbol"/>
    <use width="11.76" height="19.57" transform="translate(945.29 1114.36) rotate(76.3) scale(6.16)" xlink:href="#New_Symbol"/>
    <use width="11.76" height="19.57" transform="translate(1451.93 1336.36) rotate(-27.01) scale(6.09 -6.09)" xlink:href="#New_Symbol"/>
    <use width="11.76" height="19.57" transform="translate(1477.43 1283.53) rotate(130.26) scale(6.16)" xlink:href="#New_Symbol"/>
    <use width="11.76" height="19.57" transform="translate(1476.83 1265.95) rotate(-68.46) scale(6.09 -6.09)" xlink:href="#New_Symbol"/>
    <use width="11.76" height="19.57" transform="translate(1241.93 1365.29) rotate(13.56) scale(6.09 -6.09)" xlink:href="#New_Symbol"/>
    <use width="11.76" height="19.57" transform="translate(1295.66 1341.74) rotate(170.83) scale(6.16)" xlink:href="#New_Symbol"/>
    <use width="11.76" height="19.57" transform="translate(1306.64 1328.01) rotate(-27.88) scale(6.09 -6.09)" xlink:href="#New_Symbol"/>
    <use width="11.76" height="19.57" transform="translate(1518.81 1022.17) rotate(-69.16) scale(6.09 -6.09)" xlink:href="#New_Symbol"/>
    <use width="11.76" height="19.57" transform="translate(1502.27 965.89) rotate(88.11) scale(6.16)" xlink:href="#New_Symbol"/>
    <use width="11.76" height="19.57" transform="translate(1414.11 1005.27) rotate(88.11) scale(6.16)" xlink:href="#New_Symbol"/>
    <use width="11.76" height="19.57" transform="translate(1375.56 806.29) rotate(41.35) scale(6.16)" xlink:href="#New_Symbol"/>
    <use width="11.76" height="19.57" transform="translate(1317.4 897.14) rotate(41.35) scale(6.16)" xlink:href="#New_Symbol"/>
    <use width="11.76" height="19.57" transform="translate(1490.04 953.26) rotate(-110.6) scale(6.09 -6.09)" xlink:href="#New_Symbol"/>
    <use width="11.76" height="19.57" transform="translate(1349.04 840.97) rotate(-155.25) scale(6.09 -6.09)" xlink:href="#New_Symbol"/>
    <use width="11.76" height="19.57" transform="translate(1247.61 1189.58) rotate(122.96) scale(6.16)" xlink:href="#New_Symbol"/>
    <use width="11.76" height="19.57" transform="translate(1209.43 1168.41) rotate(-73.65) scale(6.09 -6.09)" xlink:href="#New_Symbol"/>
    <use width="11.76" height="19.57" transform="translate(1085.68 975.42) rotate(28.68) scale(6.16)" xlink:href="#New_Symbol"/>
    <use width="11.76" height="19.57" transform="translate(1067.41 1015.07) rotate(-167.92) scale(6.09 -6.09)" xlink:href="#New_Symbol"/>
    <use width="11.76" height="19.57" transform="translate(1266.28 939.52) rotate(-155.25) scale(6.09 -6.09)" xlink:href="#New_Symbol"/>
    <use width="11.76" height="19.57" transform="translate(1337.61 605.92) rotate(115.06) scale(6.16)" xlink:href="#New_Symbol"/>
    <use width="11.76" height="19.57" transform="translate(1139.49 350.6) rotate(-42.18) scale(6.09)" xlink:href="#New_Symbol"/>
    <use width="11.76" height="19.57" transform="translate(1213.33 354.02) rotate(-1.82) scale(6.09)" xlink:href="#New_Symbol"/>
    <use width="11.76" height="19.57" transform="translate(1191.9 355.65) rotate(154.24) scale(6.16 -6.16)" xlink:href="#New_Symbol"/>
    <use width="11.76" height="19.57" transform="translate(960.23 111.84) rotate(-101.98) scale(6.09 -6.09)" xlink:href="#New_Symbol"/>
    <use width="11.76" height="19.57" transform="translate(898.37 71.37) rotate(-142.34) scale(6.09 -6.09)" xlink:href="#New_Symbol"/>
    <use width="11.76" height="19.57" transform="translate(914.78 85.24) rotate(61.6) scale(6.16)" xlink:href="#New_Symbol"/>
    <use width="11.76" height="19.57" transform="translate(893.87 154.63) rotate(61.6) scale(6.16)" xlink:href="#New_Symbol"/>
    <use width="11.76" height="19.57" transform="translate(580.76 235.57) rotate(115.08) scale(6.09 -6.09)" xlink:href="#New_Symbol"/>
    <use width="11.76" height="19.57" transform="translate(605.74 305.14) rotate(74.71) scale(6.09 -6.09)" xlink:href="#New_Symbol"/>
    <use width="11.76" height="19.57" transform="translate(601 284.18) rotate(-81.35) scale(6.16)" xlink:href="#New_Symbol"/>
    <use width="11.76" height="19.57" transform="translate(92.23 553.08) rotate(-67.34) scale(5.85)" xlink:href="#New_Symbol"/>
    <use width="11.76" height="19.57" transform="translate(170.81 531.27) rotate(-38.65) scale(4.95)" xlink:href="#New_Symbol"/>
    <use width="11.76" height="19.57" transform="translate(82.43 555.64) rotate(102.71) scale(5.85 -5.85)" xlink:href="#New_Symbol"/>
    <use width="11.76" height="19.57" transform="translate(112.45 714.75) rotate(77.35) scale(5.85 -5.85)" xlink:href="#New_Symbol"/>
    <use width="11.76" height="19.57" transform="translate(170.48 751.21) rotate(-125.3) scale(5.85)" xlink:href="#New_Symbol"/>
    <use width="11.76" height="19.57" transform="translate(167.45 760.88) rotate(44.75) scale(5.85 -5.85)" xlink:href="#New_Symbol"/>
    <use width="11.76" height="19.57" transform="translate(216.48 959.86) rotate(44.75) scale(5.85 -5.85)" xlink:href="#New_Symbol"/>
    <use width="11.76" height="19.57" transform="translate(95.15 893) rotate(98.07) scale(5.85 -5.85)" xlink:href="#New_Symbol"/>
    <use width="11.76" height="19.57" transform="translate(136.53 947.63) rotate(-104.57) scale(5.85)" xlink:href="#New_Symbol"/>
    <use width="11.76" height="19.57" transform="translate(252.09 897.84) rotate(-104.57) scale(5.85)" xlink:href="#New_Symbol"/>
    <use width="11.76" height="19.57" transform="translate(130.27 955.6) rotate(65.48) scale(5.85 -5.85)" xlink:href="#New_Symbol"/>
    <use width="11.76" height="19.57" transform="translate(248.62 726.7) rotate(44.75) scale(5.85 -5.85)" xlink:href="#New_Symbol"/>
    <use width="11.76" height="19.57" transform="translate(189.12 577.02) rotate(102.71) scale(5.24 -5.24)" xlink:href="#New_Symbol"/>
    <use width="11.76" height="19.57" transform="translate(175.62 1021.73) rotate(-23.22) scale(5.85)" xlink:href="#New_Symbol"/>
    <use width="11.76" height="19.57" transform="translate(118.17 1034.82) rotate(-15.43) scale(5.85)" xlink:href="#New_Symbol"/>
    <use width="11.76" height="19.57" transform="translate(1.05 1177.31) rotate(-91.13) scale(5.85)" xlink:href="#New_Symbol"/>
    <use width="11.76" height="19.57" transform="translate(1217.05 1315.7) rotate(-129.07) scale(5.85 -5.85)" xlink:href="#New_Symbol"/>
    <use width="11.76" height="19.57" transform="translate(937.46 1308.02) rotate(37.55) scale(5.85)" xlink:href="#New_Symbol"/>
    <use width="11.76" height="19.57" transform="translate(1275.14 1434) rotate(57.89) scale(5.85)" xlink:href="#New_Symbol"/>
    <use width="11.76" height="19.57" transform="translate(1122.55 1464.81) rotate(57.89) scale(5.85)" xlink:href="#New_Symbol"/>
    <use width="11.76" height="19.57" transform="translate(1120.65 1599.13) rotate(115.9) scale(5.85)" xlink:href="#New_Symbol"/>
    <use width="11.76" height="19.57" transform="translate(1253.28 1424.85) rotate(-87.37) scale(5.85 -5.85)" xlink:href="#New_Symbol"/>
    <use width="11.76" height="19.57" transform="translate(1261.23 1483.23) rotate(-95.17) scale(5.85 -5.85)" xlink:href="#New_Symbol"/>
    <use width="11.76" height="19.57" transform="translate(1169.05 1642.99) rotate(-19.46) scale(5.85 -5.85)" xlink:href="#New_Symbol"/>
  </g>
</svg>