<?xml version="1.0" encoding="UTF-8"?>
<svg version="1.1" xmlns="http://www.w3.org/2000/svg" width="590" height="800">
<path d="M0 0 C0.66 0 1.32 0 2 0 C2.42410156 0.90621094 2.84820312 1.81242188 3.28515625 2.74609375 C7.27058678 11.08854603 11.45452105 18.63955824 18.20703125 25.1171875 C20 27 20 27 20 29 C20.57733887 29.25499268 21.15467773 29.50998535 21.74951172 29.77270508 C24.23433042 31.12779117 25.95928695 32.68720607 28.0078125 34.63671875 C33.23370654 39.3686175 38.91240236 43.0773519 44.875 46.8125 C45.9690918 47.50682129 47.06318359 48.20114258 48.19042969 48.91650391 C54.78551473 53.07377318 61.46196235 57.04289688 68.25 60.875 C76.08675384 65.30647322 83.06877164 70.24876617 90 76 C90.76699219 76.60328125 91.53398437 77.2065625 92.32421875 77.828125 C104.62288489 87.85446616 111.57761952 102.87524216 113.40234375 118.4296875 C113.64766595 121.28617891 113.85278609 124.13694326 114 127 C114.85078125 127.02578125 115.7015625 127.0515625 116.578125 127.078125 C137.40076743 128.05280188 162.20072498 131.80126635 177 148 C190.36993527 165.75920127 195.33822884 190.04331101 195 212 C196.093125 211.835 197.18625 211.67 198.3125 211.5 C219.60283322 208.99525492 241.55256841 213.28258881 259.15234375 225.7421875 C267.85812518 232.64471379 274.60366277 240.30079388 280 250 C280.67289063 251.18142578 280.67289063 251.18142578 281.359375 252.38671875 C298.43524052 284.27220838 296.5124005 325.05207743 296.32247853 360.21949506 C296.30819489 363.17229794 296.29988179 366.1250646 296.29327202 369.07789421 C296.13013163 440.39425317 295.13742788 511.71165507 294.31049757 583.02260737 C294.13053867 598.54651599 293.95567214 614.07047535 293.78442383 629.59448242 C293.58291368 647.86130607 293.37880167 666.12809722 293.17022032 684.39484161 C293.1480139 686.3399025 293.12580888 688.28496341 293.10360527 690.23002434 C293.09268954 691.1859465 293.08177381 692.14186867 293.0705273 693.12675818 C292.99444161 699.8038918 292.92013563 706.48104383 292.84651375 713.15820503 C292.7572038 721.25196718 292.66489194 729.34568872 292.56882221 737.43937356 C292.52008125 741.55127651 292.47259313 745.66318288 292.42870712 749.77514076 C292.38841696 753.54640143 292.34424916 757.31759736 292.2971701 761.0887792 C292.27333519 763.073529 292.25344751 765.05832504 292.23377377 767.04312044 C292.11571474 776.05517538 291.63114944 785.01227179 291 794 C280.42920386 796.06140244 270.21077262 796.27707133 259.47167969 796.20581055 C256.63727743 796.18757897 253.80320484 796.18530151 250.96875 796.18554688 C249.11718476 796.18062809 247.26562168 796.17479821 245.4140625 796.16796875 C244.59169098 796.16685593 243.76931946 796.1657431 242.92202759 796.16459656 C238.02720163 796.12641083 233.18611356 795.87627312 228.30545044 795.4988575 C219.42567591 794.87025834 210.56702032 794.86051421 201.66894531 794.87301636 C199.860027 794.87186174 198.05110891 794.87027193 196.24219131 794.86828911 C191.31114501 794.86414267 186.38011823 794.86616515 181.44907188 794.86927533 C176.11566414 794.87154841 170.78225963 794.86804035 165.44885254 794.86529541 C155.01636465 794.8608591 144.58388397 794.86180466 134.1513958 794.86470805 C125.66933 794.86697049 117.18726621 794.86727096 108.7052002 794.86618423 C107.49595516 794.866031 106.28671013 794.86587777 105.04082131 794.86571989 C102.58392429 794.86540015 100.12702727 794.86507594 97.67013025 794.8647473 C74.65570533 794.86189878 51.64128441 794.8651697 28.62686014 794.87054767 C8.89837351 794.87501513 -10.83010723 794.87423903 -30.55859375 794.86962891 C-53.49316123 794.86427207 -76.42772522 794.86217341 -99.36229324 794.86524117 C-101.80992889 794.8655597 -104.25756454 794.86587408 -106.7052002 794.86618423 C-107.909345 794.86633851 -109.11348979 794.86649279 -110.35412383 794.86665174 C-118.8216547 794.86751356 -127.28918334 794.86606122 -135.75671387 794.86370468 C-146.08199402 794.86089417 -156.40726657 794.86167132 -166.73254585 794.86698543 C-171.99615522 794.86960555 -177.25975194 794.87065621 -182.52336121 794.86733627 C-187.34945941 794.86433843 -192.17553333 794.86602378 -197.00162935 794.87131383 C-198.73965954 794.8724232 -200.47769182 794.87188004 -202.21572065 794.86943804 C-211.45484748 794.85746096 -220.60737336 795.05827969 -229.82106113 795.77152836 C-234.43795716 796.10334657 -239.04090082 796.16189226 -243.66796875 796.16796875 C-244.59491043 796.17129715 -245.52185211 796.17462555 -246.47688293 796.17805481 C-248.40833042 796.18305126 -250.3397863 796.18546544 -252.27124023 796.18530273 C-255.19334167 796.1875044 -258.1150735 796.20577962 -261.03710938 796.22460938 C-270.59589252 796.25230893 -279.62925738 796.04072385 -289 794 C-289.72191487 783.71974909 -290.16993002 773.48402823 -290.27210999 763.17555237 C-290.2891296 761.75831679 -290.30650423 760.34108544 -290.32419676 758.92385811 C-290.3711976 755.07695129 -290.41317969 751.23000451 -290.45423758 747.3830303 C-290.49967025 743.21028526 -290.54985176 739.03759674 -290.59938049 734.86489868 C-290.69567975 726.68642164 -290.78752841 718.5079005 -290.87770445 710.32935388 C-290.95163774 703.62956146 -291.02710029 696.92978786 -291.10360527 690.23002434 C-291.1200542 688.78907934 -291.1200542 688.78907934 -291.13683544 687.31902434 C-291.15914013 685.36535579 -291.1814466 683.41168727 -291.20375483 681.45801877 C-291.41286542 663.12662425 -291.61674207 644.79517428 -291.81896006 626.46370261 C-291.99007708 610.96427331 -292.16620271 595.46490771 -292.34594727 579.96557617 C-294.18204706 421.5132315 -294.18204706 421.5132315 -294.18348765 364.58609271 C-294.18359226 361.57028326 -294.18512256 358.55447667 -294.18669319 355.53866768 C-294.18794339 351.01768069 -294.18285461 346.49675038 -294.17142606 341.97577786 C-294.16774034 340.39243116 -294.1654147 338.80908052 -294.16464877 337.2257297 C-294.15844622 330.08260617 -294.10614691 323.07201228 -293 316 C-292.92266275 314.50256497 -292.87005317 313.00329902 -292.859375 311.50390625 C-292.30364951 283.44404364 -286.04285089 253.92278093 -266 233 C-248.73188081 216.63588038 -227.12211255 210.69792649 -203.62890625 210.8984375 C-200.03558483 211.03725824 -196.55469023 211.46344298 -193 212 C-193.03480469 211.43796875 -193.06960937 210.8759375 -193.10546875 210.296875 C-193.86446599 186.73181768 -187.39232109 162.06761772 -171.5234375 144.3515625 C-157.34760257 130.61190711 -130.83232636 126.71573847 -112 127 C-111.97421875 126.22398438 -111.9484375 125.44796875 -111.921875 124.6484375 C-110.93787901 105.90778651 -104.31854885 90.52816607 -90.6796875 77.5 C-81.15600664 68.99513151 -69.97975899 62.70643266 -58.89160156 56.5065918 C-45.83990283 49.17488984 -33.17123697 41.01128425 -22 31 C-21.15179688 30.24589844 -20.30359375 29.49179687 -19.4296875 28.71484375 C-10.77646226 20.57763653 -4.4546846 10.99008396 0 0 Z " fill="#FFFFFF" transform="translate(294,1)"/>
</svg>
